<svg width="75" height="75" viewBox="0 0 75 75" fill="none" xmlns="http://www.w3.org/2000/svg">
<g clip-path="url(#clip0_2110_2)">
<path d="M37.5 17.8219C43.9125 17.8219 44.6719 17.85 47.1938 17.9625C49.5375 18.0656 50.8031 18.4594 51.6469 18.7875C52.7625 19.2188 53.5688 19.7438 54.4031 20.5781C55.2469 21.4219 55.7625 22.2188 56.1938 23.3344C56.5219 24.1781 56.9156 25.4531 57.0188 27.7875C57.1313 30.3187 57.1594 31.0781 57.1594 37.4813C57.1594 43.8938 57.1313 44.6531 57.0188 47.175C56.9156 49.5188 56.5219 50.7844 56.1938 51.6281C55.7625 52.7438 55.2375 53.55 54.4031 54.3844C53.5594 55.2281 52.7625 55.7438 51.6469 56.175C50.8031 56.5031 49.5281 56.8969 47.1938 57C44.6625 57.1125 43.9031 57.1406 37.5 57.1406C31.0875 57.1406 30.3281 57.1125 27.8063 57C25.4625 56.8969 24.1969 56.5031 23.3531 56.175C22.2375 55.7438 21.4313 55.2188 20.5969 54.3844C19.7531 53.5406 19.2375 52.7438 18.8063 51.6281C18.4781 50.7844 18.0844 49.5094 17.9813 47.175C17.8688 44.6438 17.8406 43.8844 17.8406 37.4813C17.8406 31.0688 17.8688 30.3094 17.9813 27.7875C18.0844 25.4437 18.4781 24.1781 18.8063 23.3344C19.2375 22.2188 19.7625 21.4125 20.5969 20.5781C21.4406 19.7344 22.2375 19.2188 23.3531 18.7875C24.1969 18.4594 25.4719 18.0656 27.8063 17.9625C30.3281 17.85 31.0875 17.8219 37.5 17.8219ZM37.5 13.5C30.9844 13.5 30.1688 13.5281 27.6094 13.6406C25.0594 13.7531 23.3063 14.1656 21.7875 14.7562C20.2031 15.375 18.8625 16.1906 17.5313 17.5312C16.1906 18.8625 15.375 20.2031 14.7563 21.7781C14.1656 23.3063 13.7531 25.05 13.6406 27.6C13.5281 30.1687 13.5 30.9844 13.5 37.5C13.5 44.0156 13.5281 44.8313 13.6406 47.3906C13.7531 49.9406 14.1656 51.6938 14.7563 53.2125C15.375 54.7969 16.1906 56.1375 17.5313 57.4688C18.8625 58.8 20.2031 59.625 21.7781 60.2344C23.3063 60.825 25.05 61.2375 27.6 61.35C30.1594 61.4625 30.975 61.4906 37.4906 61.4906C44.0063 61.4906 44.8219 61.4625 47.3813 61.35C49.9313 61.2375 51.6844 60.825 53.2031 60.2344C54.7781 59.625 56.1188 58.8 57.45 57.4688C58.7813 56.1375 59.6063 54.7969 60.2156 53.2219C60.8063 51.6938 61.2188 49.95 61.3313 47.4C61.4438 44.8406 61.4719 44.025 61.4719 37.5094C61.4719 30.9938 61.4438 30.1781 61.3313 27.6188C61.2188 25.0688 60.8063 23.3156 60.2156 21.7969C59.625 20.2031 58.8094 18.8625 57.4688 17.5312C56.1375 16.2 54.7969 15.375 53.2219 14.7656C51.6938 14.175 49.95 13.7625 47.4 13.65C44.8313 13.5281 44.0156 13.5 37.5 13.5Z" fill="white"/>
<path d="M37.5 25.1719C30.6938 25.1719 25.1719 30.6938 25.1719 37.5C25.1719 44.3062 30.6938 49.8281 37.5 49.8281C44.3062 49.8281 49.8281 44.3062 49.8281 37.5C49.8281 30.6938 44.3062 25.1719 37.5 25.1719ZM37.5 45.4969C33.0844 45.4969 29.5031 41.9156 29.5031 37.5C29.5031 33.0844 33.0844 29.5031 37.5 29.5031C41.9156 29.5031 45.4969 33.0844 45.4969 37.5C45.4969 41.9156 41.9156 45.4969 37.5 45.4969Z" fill="white"/>
<path d="M53.1937 24.6843C53.1937 26.278 51.9 27.5624 50.3156 27.5624C48.7219 27.5624 47.4375 26.2687 47.4375 24.6843C47.4375 23.0905 48.7313 21.8062 50.3156 21.8062C51.9 21.8062 53.1937 23.0999 53.1937 24.6843Z" fill="white"/>
</g>
<defs>
<clipPath id="clip0_2110_2">
<rect width="48" height="48" fill="white" transform="translate(13.5 13.5)"/>
</clipPath>
</defs>
</svg>
