<svg viewBox="0 0 569.7 93.2" xmlns="http://www.w3.org/2000/svg">
    <g id="svgGroup" stroke-linecap="round" fill-rule="evenodd" font-size="9pt" stroke="#ffffff" stroke-width="0.25mm" fill="none" style="stroke:#ffffff;stroke-width:0.25mm;fill:none">
        <path d="M 9.5 70 L 0 70 L 0 0 L 9.5 0 L 9.5 70 Z" id="0"/>
        <path d="M 35.5 70 L 26.5 70 L 26.5 18 L 35.2 18 L 35.2 26.7 Q 38 22.5 42.35 19.65 A 17.316 17.316 0 0 1 49.456 17.025 A 22.629 22.629 0 0 1 52.7 16.8 A 23.225 23.225 0 0 1 57.765 17.318 Q 62.859 18.456 65.85 22.1 Q 69.975 27.126 70.188 35.209 A 33.764 33.764 0 0 1 70.2 36.1 L 70.2 70 L 61.2 70 L 61.2 37.1 A 19.265 19.265 0 0 0 60.858 33.359 Q 60.419 31.145 59.419 29.397 A 10.966 10.966 0 0 0 58.55 28.1 A 8.579 8.579 0 0 0 52.273 24.747 A 12.061 12.061 0 0 0 51.2 24.7 A 13.122 13.122 0 0 0 44.351 26.664 A 17.353 17.353 0 0 0 42.5 27.95 Q 38.4 31.2 35.5 35.6 L 35.5 70 Z" id="1"/>
        <path d="M 81.2 65.8 L 85 58.3 A 18.557 18.557 0 0 0 88.144 60.426 Q 89.698 61.27 91.55 61.95 A 24.073 24.073 0 0 0 99.161 63.387 A 27.464 27.464 0 0 0 100 63.4 Q 105.392 63.4 108.235 61.685 A 7.738 7.738 0 0 0 108.45 61.55 Q 111.3 59.7 111.3 56.8 A 7.123 7.123 0 0 0 110.986 54.653 A 6.212 6.212 0 0 0 110.25 53.1 A 6.384 6.384 0 0 0 109.321 52.006 Q 108.307 51.034 106.634 50.081 A 22.3 22.3 0 0 0 106.4 49.95 A 28.462 28.462 0 0 0 104.406 48.957 Q 102.29 47.995 99.301 46.946 A 103.602 103.602 0 0 0 98.3 46.6 A 46.616 46.616 0 0 1 93.902 44.857 Q 91.788 43.883 90.112 42.795 A 19.335 19.335 0 0 1 87.35 40.65 A 11.324 11.324 0 0 1 84.056 34.654 A 16.794 16.794 0 0 1 83.7 31.1 Q 83.7 25.1 88.95 20.95 Q 93.354 17.469 100.608 16.908 A 37.527 37.527 0 0 1 103.5 16.8 A 40.794 40.794 0 0 1 107.946 17.031 Q 110.254 17.284 112.27 17.815 A 25.234 25.234 0 0 1 112.4 17.85 Q 116.3 18.9 119.4 20.5 L 116.9 27.9 Q 114.2 26.3 110.75 25.3 A 25.024 25.024 0 0 0 106.267 24.453 A 31.837 31.837 0 0 0 103.1 24.3 A 20.632 20.632 0 0 0 100.163 24.495 Q 97.077 24.94 95.2 26.4 A 9.322 9.322 0 0 0 93.842 27.673 Q 93.14 28.492 92.805 29.365 A 4.529 4.529 0 0 0 92.5 31 A 4.921 4.921 0 0 0 93.995 34.552 A 7.082 7.082 0 0 0 94.6 35.1 A 9.88 9.88 0 0 0 95.9 35.969 Q 98.173 37.271 102.598 38.734 A 84.459 84.459 0 0 0 102.8 38.8 A 67.753 67.753 0 0 1 107.862 40.698 Q 113.789 43.217 116.6 46.1 Q 120.5 50.1 120.5 56.1 Q 120.5 62.848 115.249 66.855 A 16.618 16.618 0 0 1 114.85 67.15 Q 110.11 70.547 102.662 71.095 A 40.423 40.423 0 0 1 99.7 71.2 Q 93.8 71.2 89.05 69.7 A 30.883 30.883 0 0 1 85.21 68.215 Q 83.229 67.284 81.648 66.136 A 18.229 18.229 0 0 1 81.2 65.8 Z" id="2"/>
        <path d="M 134.5 52.1 L 134.5 27.7 L 125.5 27.7 L 125.5 19.9 L 134.7 19.9 L 136.6 3.5 L 143.5 3.5 L 143.5 19.9 L 157.9 19.9 L 157.9 27.7 L 143.5 27.7 L 143.5 52.8 A 21.559 21.559 0 0 0 143.668 55.596 Q 144.141 59.202 145.95 60.9 Q 148.4 63.2 151.8 63.2 Q 154.3 63.2 156.55 62.4 Q 158.8 61.6 160.7 60.5 L 163.2 67.7 A 18.546 18.546 0 0 1 161.582 68.556 Q 160.78 68.935 159.834 69.308 A 43.365 43.365 0 0 1 157.8 70.05 Q 154.4 71.2 150.7 71.2 Q 143.2 71.2 138.85 66.25 A 16.116 16.116 0 0 1 135.622 60.348 Q 134.859 57.917 134.615 54.98 A 34.777 34.777 0 0 1 134.5 52.1 Z" id="3"/>
        <path d="M 205.8 22.2 L 205.8 18 L 214 18 L 214 57.4 A 12.15 12.15 0 0 0 214.102 59.036 Q 214.434 61.47 215.85 62.35 Q 217.7 63.5 219.9 63.5 L 218 70.5 A 17.722 17.722 0 0 1 213.735 70.028 Q 208.098 68.628 206.503 63.08 A 13.59 13.59 0 0 1 206.4 62.7 A 21.307 21.307 0 0 1 203.29 66.126 A 28.498 28.498 0 0 1 200.15 68.55 Q 196.2 71.2 190.1 71.2 Q 183.6 71.2 178.3 67.9 A 22.947 22.947 0 0 1 170.887 60.373 A 27.923 27.923 0 0 1 169.85 58.55 A 27.228 27.228 0 0 1 167.22 50.608 A 36.644 36.644 0 0 1 166.7 44.3 A 33.142 33.142 0 0 1 167.697 36.031 A 27.968 27.968 0 0 1 169.85 30.3 Q 173 24.1 178.55 20.45 A 22.297 22.297 0 0 1 189.745 16.844 A 27.388 27.388 0 0 1 191.3 16.8 A 22.584 22.584 0 0 1 196.094 17.29 A 18.703 18.703 0 0 1 199.45 18.35 A 26.002 26.002 0 0 1 203.737 20.644 A 22.103 22.103 0 0 1 205.8 22.2 Z M 205 56.7 L 205 28.8 Q 202.3 26.9 199.05 25.75 Q 195.8 24.6 192.2 24.6 A 15.924 15.924 0 0 0 187.229 25.354 A 14.024 14.024 0 0 0 183.75 27.05 A 16.301 16.301 0 0 0 178.731 32.474 A 19.962 19.962 0 0 0 178 33.85 A 20.663 20.663 0 0 0 176.247 39.527 A 27.678 27.678 0 0 0 175.9 44 Q 175.9 49.6 178 53.95 A 17.602 17.602 0 0 0 181.106 58.496 A 15.697 15.697 0 0 0 183.8 60.75 Q 187.5 63.2 192.1 63.2 Q 195.9 63.2 199.3 61.35 Q 202.7 59.5 205 56.7 Z" id="4"/>
        <path d="M 233.3 88.8 L 236.6 81 A 20.562 20.562 0 0 0 240.417 83.373 A 24.737 24.737 0 0 0 242.2 84.15 Q 244.959 85.228 248.759 85.376 A 31.788 31.788 0 0 0 250 85.4 A 21.701 21.701 0 0 0 254.521 84.957 Q 257.422 84.339 259.622 82.859 A 12.576 12.576 0 0 0 261.15 81.65 A 11.352 11.352 0 0 0 264.057 77.157 Q 265.2 74.056 265.2 69.7 L 265.2 63.3 Q 263.2 65.7 259.45 67.85 Q 255.7 70 250.5 70 Q 244.6 70 239.3 66.95 A 22.236 22.236 0 0 1 232.008 60.112 A 27.437 27.437 0 0 1 230.7 58 A 25.181 25.181 0 0 1 227.987 50.376 A 35.033 35.033 0 0 1 227.4 43.8 A 32.06 32.06 0 0 1 228.317 35.992 A 26.682 26.682 0 0 1 230.65 29.9 A 25.706 25.706 0 0 1 236.714 22.278 A 24.448 24.448 0 0 1 239.4 20.3 Q 244.9 16.8 251.5 16.8 A 22.366 22.366 0 0 1 256.32 17.301 A 18.715 18.715 0 0 1 259.5 18.3 A 25.705 25.705 0 0 1 263.328 20.268 A 20.998 20.998 0 0 1 265.7 22 L 265.7 18 L 273.9 18 L 273.9 68.8 Q 273.9 77.4 270.9 82.8 Q 267.9 88.2 262.55 90.7 A 25.811 25.811 0 0 1 255.946 92.721 A 35.243 35.243 0 0 1 250 93.2 Q 245.4 93.2 241.05 92.1 A 27.232 27.232 0 0 1 235.75 90.183 A 23.518 23.518 0 0 1 233.3 88.8 Z M 264.9 56 L 264.9 28.8 Q 262.734 27.225 259.697 25.941 A 36.018 36.018 0 0 0 259.6 25.9 A 16.249 16.249 0 0 0 255.796 24.849 A 22.135 22.135 0 0 0 252.4 24.6 Q 248.3 24.6 244.7 26.8 Q 241.1 29 238.85 33.15 Q 236.6 37.3 236.6 43.3 A 24.32 24.32 0 0 0 237.078 48.236 A 18.311 18.311 0 0 0 238.85 53.2 A 18.576 18.576 0 0 0 241.761 57.275 A 15.802 15.802 0 0 0 244.7 59.7 Q 248.3 62 252.5 62 A 15.276 15.276 0 0 0 257.078 61.332 A 13.606 13.606 0 0 0 259.7 60.2 A 20.855 20.855 0 0 0 262.681 58.184 A 16.309 16.309 0 0 0 264.9 56 Z" id="5"/>
        <path d="M 298.4 70 L 289.4 70 L 289.4 18 L 298.1 18 L 298.1 29.3 Q 299.4 26 301.6 23.15 Q 303.8 20.3 307.1 18.55 A 14.817 14.817 0 0 1 311.78 17.026 A 19.459 19.459 0 0 1 314.8 16.8 Q 316.3 16.8 317.8 16.95 A 18.972 18.972 0 0 1 318.855 17.084 Q 319.355 17.162 319.782 17.262 A 8.817 8.817 0 0 1 320.3 17.4 L 317.6 26.7 A 9.763 9.763 0 0 0 315.455 26.088 Q 314.359 25.9 313.1 25.9 A 12.958 12.958 0 0 0 306.47 27.746 A 15.609 15.609 0 0 0 306.05 28 Q 302.722 30.086 300.578 34.442 A 22.927 22.927 0 0 0 300.55 34.5 Q 298.787 38.107 298.47 43.328 A 39.09 39.09 0 0 0 298.4 45.7 L 298.4 70 Z" id="6"/>
        <path d="M 361.9 22.2 L 361.9 18 L 370.1 18 L 370.1 57.4 A 12.15 12.15 0 0 0 370.202 59.036 Q 370.534 61.47 371.95 62.35 Q 373.8 63.5 376 63.5 L 374.1 70.5 A 17.722 17.722 0 0 1 369.835 70.028 Q 364.198 68.628 362.603 63.08 A 13.59 13.59 0 0 1 362.5 62.7 A 21.307 21.307 0 0 1 359.39 66.126 A 28.498 28.498 0 0 1 356.25 68.55 Q 352.3 71.2 346.2 71.2 Q 339.7 71.2 334.4 67.9 A 22.947 22.947 0 0 1 326.987 60.373 A 27.923 27.923 0 0 1 325.95 58.55 A 27.228 27.228 0 0 1 323.32 50.608 A 36.644 36.644 0 0 1 322.8 44.3 A 33.142 33.142 0 0 1 323.797 36.031 A 27.968 27.968 0 0 1 325.95 30.3 Q 329.1 24.1 334.65 20.45 A 22.297 22.297 0 0 1 345.845 16.844 A 27.388 27.388 0 0 1 347.4 16.8 A 22.584 22.584 0 0 1 352.194 17.29 A 18.703 18.703 0 0 1 355.55 18.35 A 26.002 26.002 0 0 1 359.837 20.644 A 22.103 22.103 0 0 1 361.9 22.2 Z M 361.1 56.7 L 361.1 28.8 Q 358.4 26.9 355.15 25.75 Q 351.9 24.6 348.3 24.6 A 15.924 15.924 0 0 0 343.329 25.354 A 14.024 14.024 0 0 0 339.85 27.05 A 16.301 16.301 0 0 0 334.831 32.474 A 19.962 19.962 0 0 0 334.1 33.85 A 20.663 20.663 0 0 0 332.347 39.527 A 27.678 27.678 0 0 0 332 44 Q 332 49.6 334.1 53.95 A 17.602 17.602 0 0 0 337.206 58.496 A 15.697 15.697 0 0 0 339.9 60.75 Q 343.6 63.2 348.2 63.2 Q 352 63.2 355.4 61.35 Q 358.8 59.5 361.1 56.7 Z" id="7"/>
        <path d="M 397 70 L 388 70 L 388 18 L 396.7 18 L 396.7 26.7 Q 399.5 22.5 403.8 19.65 A 17.205 17.205 0 0 1 413.002 16.809 A 20.858 20.858 0 0 1 413.6 16.8 A 20.994 20.994 0 0 1 418.017 17.24 Q 421.003 17.882 423.285 19.463 A 13.128 13.128 0 0 1 423.75 19.8 A 15.751 15.751 0 0 1 429.198 27.489 A 19.154 19.154 0 0 1 429.3 27.8 Q 432.4 23.2 436.65 20 A 15.669 15.669 0 0 1 443.441 17.116 A 21.446 21.446 0 0 1 447.2 16.8 A 21.437 21.437 0 0 1 452.088 17.322 Q 455.674 18.162 458.163 20.351 A 12.994 12.994 0 0 1 459.85 22.15 A 18.992 18.992 0 0 1 463.261 29.422 Q 464 32.472 464 36.1 L 464 70 L 455 70 L 455 36.8 A 19.042 19.042 0 0 0 454.663 33.111 Q 454.227 30.905 453.228 29.161 A 10.982 10.982 0 0 0 452.5 28.05 A 7.974 7.974 0 0 0 446.687 24.754 A 10.678 10.678 0 0 0 445.6 24.7 A 11.926 11.926 0 0 0 438.841 26.827 A 15.996 15.996 0 0 0 437.25 28.05 Q 433.4 31.4 430.5 35.9 L 430.5 70 L 421.5 70 L 421.5 36.8 A 19.042 19.042 0 0 0 421.163 33.111 Q 420.727 30.905 419.728 29.161 A 10.982 10.982 0 0 0 419 28.05 A 7.974 7.974 0 0 0 413.187 24.754 A 10.678 10.678 0 0 0 412.1 24.7 A 12.02 12.02 0 0 0 405.781 26.528 A 16.244 16.244 0 0 0 403.8 27.95 Q 399.9 31.2 397 35.6 L 397 70 Z" id="8"/>
        <path d="M 522.5 70 L 480.5 70 L 480.5 0 L 522.5 0 L 522.5 8.2 L 490 8.2 L 490 29.5 L 518 29.5 L 518 37.5 L 490 37.5 L 490 61.8 L 522.5 61.8 L 522.5 70 Z" id="9"/>
        <path d="M 569.7 70 L 529.5 70 L 529.5 62.9 L 558.2 25.8 L 530.1 25.8 L 530.1 18 L 569.2 18 L 569.2 24.9 L 540.6 62 L 569.7 62 L 569.7 70 Z" id="10"/>
    </g>
</svg>