<svg viewBox="0 0 529.9 93.2" xmlns="http://www.w3.org/2000/svg">
    <g id="svgGroup" stroke-linecap="round" fill-rule="evenodd" font-size="9pt" stroke="#ffffff" stroke-width="0.25mm" fill="none" style="stroke:#ffffff;stroke-width:0.25mm;fill:none">
        <path d="M 9.5 70 L 0 70 L 0 0 L 9.5 0 L 9.5 70 Z" id="0" vector-effect="non-scaling-stroke"/>
        <path d="M 35.5 70 L 26.5 70 L 26.5 18 L 35.2 18 L 35.2 26.7 Q 38 22.5 42.35 19.65 A 17.316 17.316 0 0 1 49.456 17.025 A 22.629 22.629 0 0 1 52.7 16.8 A 23.225 23.225 0 0 1 57.765 17.318 Q 62.859 18.456 65.85 22.1 Q 69.975 27.126 70.188 35.209 A 33.764 33.764 0 0 1 70.2 36.1 L 70.2 70 L 61.2 70 L 61.2 37.1 A 19.265 19.265 0 0 0 60.858 33.359 Q 60.419 31.145 59.419 29.397 A 10.966 10.966 0 0 0 58.55 28.1 A 8.579 8.579 0 0 0 52.273 24.747 A 12.061 12.061 0 0 0 51.2 24.7 A 13.122 13.122 0 0 0 44.351 26.664 A 17.353 17.353 0 0 0 42.5 27.95 Q 38.4 31.2 35.5 35.6 L 35.5 70 Z" id="1" vector-effect="non-scaling-stroke"/>
        <path d="M 87.7 52.1 L 87.7 27.7 L 78.7 27.7 L 78.7 19.9 L 87.9 19.9 L 89.8 3.5 L 96.7 3.5 L 96.7 19.9 L 111.1 19.9 L 111.1 27.7 L 96.7 27.7 L 96.7 52.8 A 21.559 21.559 0 0 0 96.868 55.596 Q 97.341 59.202 99.15 60.9 Q 101.6 63.2 105 63.2 Q 107.5 63.2 109.75 62.4 Q 112 61.6 113.9 60.5 L 116.4 67.7 A 18.546 18.546 0 0 1 114.782 68.556 Q 113.98 68.935 113.034 69.308 A 43.365 43.365 0 0 1 111 70.05 Q 107.6 71.2 103.9 71.2 Q 96.4 71.2 92.05 66.25 A 16.116 16.116 0 0 1 88.822 60.348 Q 88.059 57.917 87.815 54.98 A 34.777 34.777 0 0 1 87.7 52.1 Z" id="2" vector-effect="non-scaling-stroke"/>
        <path d="M 161 22.2 L 161 18 L 169.2 18 L 169.2 57.4 A 12.15 12.15 0 0 0 169.302 59.036 Q 169.634 61.47 171.05 62.35 Q 172.9 63.5 175.1 63.5 L 173.2 70.5 A 17.722 17.722 0 0 1 168.935 70.028 Q 163.298 68.628 161.703 63.08 A 13.59 13.59 0 0 1 161.6 62.7 A 21.307 21.307 0 0 1 158.49 66.126 A 28.498 28.498 0 0 1 155.35 68.55 Q 151.4 71.2 145.3 71.2 Q 138.8 71.2 133.5 67.9 A 22.947 22.947 0 0 1 126.087 60.373 A 27.923 27.923 0 0 1 125.05 58.55 A 27.228 27.228 0 0 1 122.42 50.608 A 36.644 36.644 0 0 1 121.9 44.3 A 33.142 33.142 0 0 1 122.897 36.031 A 27.968 27.968 0 0 1 125.05 30.3 Q 128.2 24.1 133.75 20.45 A 22.297 22.297 0 0 1 144.945 16.844 A 27.388 27.388 0 0 1 146.5 16.8 A 22.584 22.584 0 0 1 151.294 17.29 A 18.703 18.703 0 0 1 154.65 18.35 A 26.002 26.002 0 0 1 158.937 20.644 A 22.103 22.103 0 0 1 161 22.2 Z M 160.2 56.7 L 160.2 28.8 Q 157.5 26.9 154.25 25.75 Q 151 24.6 147.4 24.6 A 15.924 15.924 0 0 0 142.429 25.354 A 14.024 14.024 0 0 0 138.95 27.05 A 16.301 16.301 0 0 0 133.931 32.474 A 19.962 19.962 0 0 0 133.2 33.85 A 20.663 20.663 0 0 0 131.447 39.527 A 27.678 27.678 0 0 0 131.1 44 Q 131.1 49.6 133.2 53.95 A 17.602 17.602 0 0 0 136.306 58.496 A 15.697 15.697 0 0 0 139 60.75 Q 142.7 63.2 147.3 63.2 Q 151.1 63.2 154.5 61.35 Q 157.9 59.5 160.2 56.7 Z" id="3" vector-effect="non-scaling-stroke"/>
        <path d="M 189.5 88.8 L 192.8 81 A 20.562 20.562 0 0 0 196.617 83.373 A 24.737 24.737 0 0 0 198.4 84.15 Q 201.159 85.228 204.959 85.376 A 31.788 31.788 0 0 0 206.2 85.4 A 21.701 21.701 0 0 0 210.721 84.957 Q 213.622 84.339 215.822 82.859 A 12.576 12.576 0 0 0 217.35 81.65 A 11.352 11.352 0 0 0 220.257 77.157 Q 221.4 74.056 221.4 69.7 L 221.4 63.3 Q 219.4 65.7 215.65 67.85 Q 211.9 70 206.7 70 Q 200.8 70 195.5 66.95 A 22.236 22.236 0 0 1 188.208 60.112 A 27.437 27.437 0 0 1 186.9 58 A 25.181 25.181 0 0 1 184.187 50.376 A 35.033 35.033 0 0 1 183.6 43.8 A 32.06 32.06 0 0 1 184.517 35.992 A 26.682 26.682 0 0 1 186.85 29.9 A 25.706 25.706 0 0 1 192.914 22.278 A 24.448 24.448 0 0 1 195.6 20.3 Q 201.1 16.8 207.7 16.8 A 22.366 22.366 0 0 1 212.52 17.301 A 18.715 18.715 0 0 1 215.7 18.3 A 25.705 25.705 0 0 1 219.528 20.268 A 20.998 20.998 0 0 1 221.9 22 L 221.9 18 L 230.1 18 L 230.1 68.8 Q 230.1 77.4 227.1 82.8 Q 224.1 88.2 218.75 90.7 A 25.811 25.811 0 0 1 212.146 92.721 A 35.243 35.243 0 0 1 206.2 93.2 Q 201.6 93.2 197.25 92.1 A 27.232 27.232 0 0 1 191.95 90.183 A 23.518 23.518 0 0 1 189.5 88.8 Z M 221.1 56 L 221.1 28.8 Q 218.934 27.225 215.897 25.941 A 36.018 36.018 0 0 0 215.8 25.9 A 16.249 16.249 0 0 0 211.996 24.849 A 22.135 22.135 0 0 0 208.6 24.6 Q 204.5 24.6 200.9 26.8 Q 197.3 29 195.05 33.15 Q 192.8 37.3 192.8 43.3 A 24.32 24.32 0 0 0 193.278 48.236 A 18.311 18.311 0 0 0 195.05 53.2 A 18.576 18.576 0 0 0 197.961 57.275 A 15.802 15.802 0 0 0 200.9 59.7 Q 204.5 62 208.7 62 A 15.276 15.276 0 0 0 213.278 61.332 A 13.606 13.606 0 0 0 215.9 60.2 A 20.855 20.855 0 0 0 218.881 58.184 A 16.309 16.309 0 0 0 221.1 56 Z" id="4" vector-effect="non-scaling-stroke"/>
        <path d="M 254.6 70 L 245.6 70 L 245.6 18 L 254.3 18 L 254.3 29.3 Q 255.6 26 257.8 23.15 Q 260 20.3 263.3 18.55 A 14.817 14.817 0 0 1 267.98 17.026 A 19.459 19.459 0 0 1 271 16.8 Q 272.5 16.8 274 16.95 A 18.972 18.972 0 0 1 275.055 17.084 Q 275.555 17.162 275.982 17.262 A 8.817 8.817 0 0 1 276.5 17.4 L 273.8 26.7 A 9.763 9.763 0 0 0 271.655 26.088 Q 270.559 25.9 269.3 25.9 A 12.958 12.958 0 0 0 262.67 27.746 A 15.609 15.609 0 0 0 262.25 28 Q 258.922 30.086 256.778 34.442 A 22.927 22.927 0 0 0 256.75 34.5 Q 254.987 38.107 254.67 43.328 A 39.09 39.09 0 0 0 254.6 45.7 L 254.6 70 Z" id="5" vector-effect="non-scaling-stroke"/>
        <path d="M 321.1 22.2 L 321.1 18 L 329.3 18 L 329.3 57.4 A 12.15 12.15 0 0 0 329.402 59.036 Q 329.734 61.47 331.15 62.35 Q 333 63.5 335.2 63.5 L 333.3 70.5 A 17.722 17.722 0 0 1 329.035 70.028 Q 323.398 68.628 321.803 63.08 A 13.59 13.59 0 0 1 321.7 62.7 A 21.307 21.307 0 0 1 318.59 66.126 A 28.498 28.498 0 0 1 315.45 68.55 Q 311.5 71.2 305.4 71.2 Q 298.9 71.2 293.6 67.9 A 22.947 22.947 0 0 1 286.187 60.373 A 27.923 27.923 0 0 1 285.15 58.55 A 27.228 27.228 0 0 1 282.52 50.608 A 36.644 36.644 0 0 1 282 44.3 A 33.142 33.142 0 0 1 282.997 36.031 A 27.968 27.968 0 0 1 285.15 30.3 Q 288.3 24.1 293.85 20.45 A 22.297 22.297 0 0 1 305.045 16.844 A 27.388 27.388 0 0 1 306.6 16.8 A 22.584 22.584 0 0 1 311.394 17.29 A 18.703 18.703 0 0 1 314.75 18.35 A 26.002 26.002 0 0 1 319.037 20.644 A 22.103 22.103 0 0 1 321.1 22.2 Z M 320.3 56.7 L 320.3 28.8 Q 317.6 26.9 314.35 25.75 Q 311.1 24.6 307.5 24.6 A 15.924 15.924 0 0 0 302.529 25.354 A 14.024 14.024 0 0 0 299.05 27.05 A 16.301 16.301 0 0 0 294.031 32.474 A 19.962 19.962 0 0 0 293.3 33.85 A 20.663 20.663 0 0 0 291.547 39.527 A 27.678 27.678 0 0 0 291.2 44 Q 291.2 49.6 293.3 53.95 A 17.602 17.602 0 0 0 296.406 58.496 A 15.697 15.697 0 0 0 299.1 60.75 Q 302.8 63.2 307.4 63.2 Q 311.2 63.2 314.6 61.35 Q 318 59.5 320.3 56.7 Z" id="6" vector-effect="non-scaling-stroke"/>
        <path d="M 356.2 70 L 347.2 70 L 347.2 18 L 355.9 18 L 355.9 26.7 Q 358.7 22.5 363 19.65 A 17.205 17.205 0 0 1 372.202 16.809 A 20.858 20.858 0 0 1 372.8 16.8 A 20.994 20.994 0 0 1 377.217 17.24 Q 380.203 17.882 382.485 19.463 A 13.128 13.128 0 0 1 382.95 19.8 A 15.751 15.751 0 0 1 388.398 27.489 A 19.154 19.154 0 0 1 388.5 27.8 Q 391.6 23.2 395.85 20 A 15.669 15.669 0 0 1 402.641 17.116 A 21.446 21.446 0 0 1 406.4 16.8 A 21.437 21.437 0 0 1 411.288 17.322 Q 414.874 18.162 417.363 20.351 A 12.994 12.994 0 0 1 419.05 22.15 A 18.992 18.992 0 0 1 422.461 29.422 Q 423.2 32.472 423.2 36.1 L 423.2 70 L 414.2 70 L 414.2 36.8 A 19.042 19.042 0 0 0 413.863 33.111 Q 413.427 30.905 412.428 29.161 A 10.982 10.982 0 0 0 411.7 28.05 A 7.974 7.974 0 0 0 405.887 24.754 A 10.678 10.678 0 0 0 404.8 24.7 A 11.926 11.926 0 0 0 398.041 26.827 A 15.996 15.996 0 0 0 396.45 28.05 Q 392.6 31.4 389.7 35.9 L 389.7 70 L 380.7 70 L 380.7 36.8 A 19.042 19.042 0 0 0 380.363 33.111 Q 379.927 30.905 378.928 29.161 A 10.982 10.982 0 0 0 378.2 28.05 A 7.974 7.974 0 0 0 372.387 24.754 A 10.678 10.678 0 0 0 371.3 24.7 A 12.02 12.02 0 0 0 364.981 26.528 A 16.244 16.244 0 0 0 363 27.95 Q 359.1 31.2 356.2 35.6 L 356.2 70 Z" id="7" vector-effect="non-scaling-stroke"/>
        <path d="M 481.7 70 L 439.7 70 L 439.7 0 L 481.7 0 L 481.7 8.2 L 449.2 8.2 L 449.2 29.5 L 477.2 29.5 L 477.2 37.5 L 449.2 37.5 L 449.2 61.8 L 481.7 61.8 L 481.7 70 Z" id="8" vector-effect="non-scaling-stroke"/>
        <path d="M 529.9 70 L 489.7 70 L 489.7 62.9 L 518.4 25.8 L 490.3 25.8 L 490.3 18 L 529.4 18 L 529.4 24.9 L 500.8 62 L 529.9 62 L 529.9 70 Z" id="9" vector-effect="non-scaling-stroke"/>
    </g>
</svg>