<svg width="432.4" height="75.201" viewBox="0 0 432.4 75.201" xmlns="http://www.w3.org/2000/svg"><g id="svgGroup" stroke-linecap="round" fill-rule="evenodd" font-size="9pt" stroke="#ffffff" stroke-width="0.25mm" fill="none" style="stroke:#ffffff;stroke-width:0.25mm;fill:none"><path d="M 0 57.7 L 0 0 L 9 0 L 9 56.8 A 20.644 20.644 0 0 0 9.188 59.688 Q 9.65 62.952 11.25 64.8 A 7.363 7.363 0 0 0 15.834 67.276 A 10.724 10.724 0 0 0 17.5 67.4 Q 19.4 67.4 21.25 66.95 A 22.192 22.192 0 0 0 22.713 66.544 Q 23.648 66.247 24.4 65.9 L 26.6 73.2 Q 25.201 73.822 23.288 74.323 A 34.978 34.978 0 0 1 22.15 74.6 A 23.816 23.816 0 0 1 18.995 75.085 A 30.514 30.514 0 0 1 16.3 75.2 A 20.862 20.862 0 0 1 11.41 74.646 A 17.544 17.544 0 0 1 8 73.45 A 12.683 12.683 0 0 1 2.675 68.685 A 15.856 15.856 0 0 1 2.15 67.8 Q 0.416 64.654 0.08 60.012 A 32.105 32.105 0 0 1 0 57.7 Z" id="0" vector-effect="non-scaling-stroke"/><path d="M 42.2 71.75 A 24.559 24.559 0 0 0 46.798 73.84 Q 50.853 75.2 55.5 75.2 Q 62.9 75.2 68.75 71.8 Q 74.6 68.4 78 62.25 A 26.255 26.255 0 0 0 80.653 55.109 A 34.184 34.184 0 0 0 81.4 47.8 A 34.542 34.542 0 0 0 80.915 41.891 A 25.795 25.795 0 0 0 77.95 33.45 Q 74.5 27.4 68.65 24.1 A 24.848 24.848 0 0 0 64.009 22.073 A 27.738 27.738 0 0 0 55.5 20.8 A 31.325 31.325 0 0 0 53.92 20.839 A 26.169 26.169 0 0 0 42.3 24.1 Q 36.4 27.4 33 33.5 A 26.023 26.023 0 0 0 30.251 41.09 A 35.006 35.006 0 0 0 29.6 48 A 34.82 34.82 0 0 0 29.865 52.354 A 27.451 27.451 0 0 0 32.95 62.15 Q 36.3 68.3 42.2 71.75 Z M 55.5 67.2 Q 63.4 67.2 67.8 61.85 A 18.802 18.802 0 0 0 71.619 53.76 A 27.105 27.105 0 0 0 72.2 48 Q 72.2 42.8 70 38.45 A 19.198 19.198 0 0 0 65.828 32.881 A 18.17 18.17 0 0 0 64.05 31.45 Q 60.3 28.8 55.5 28.8 A 19.249 19.249 0 0 0 50.274 29.472 A 14.037 14.037 0 0 0 43.2 34 A 17.878 17.878 0 0 0 39.526 41.374 Q 38.8 44.306 38.8 47.8 Q 38.8 53 41 57.45 A 19.437 19.437 0 0 0 44.53 62.49 A 17.627 17.627 0 0 0 46.95 64.55 Q 50.7 67.2 55.5 67.2 Z" id="1" vector-effect="non-scaling-stroke"/><path d="M 129.3 23.9 L 126.6 31.5 A 30.422 30.422 0 0 0 123.696 30.224 A 23.42 23.42 0 0 0 121.25 29.45 A 20.543 20.543 0 0 0 118.207 28.924 A 26.355 26.355 0 0 0 115.6 28.8 A 15.889 15.889 0 0 0 108.347 30.443 A 16.132 16.132 0 0 0 103.85 33.85 Q 99.1 38.9 99.1 47.8 A 25.192 25.192 0 0 0 99.805 53.86 A 21.45 21.45 0 0 0 101.1 57.6 A 18.564 18.564 0 0 0 104.01 62.177 A 16.275 16.275 0 0 0 106.65 64.6 Q 110.2 67.2 115 67.2 Q 118.165 67.2 120.568 66.61 A 15.08 15.08 0 0 0 121.5 66.35 Q 124.189 65.503 127.276 63.912 A 49.095 49.095 0 0 0 127.3 63.9 L 130.1 71.5 Q 127 73.2 123.15 74.2 Q 119.3 75.2 114.4 75.2 A 26.803 26.803 0 0 1 107.361 74.31 A 22.074 22.074 0 0 1 101.45 71.75 Q 95.9 68.3 92.9 62.15 Q 89.9 56 89.9 48 Q 89.9 40.5 92.95 34.3 Q 96 28.1 101.7 24.45 A 23.067 23.067 0 0 1 111.368 21.029 A 29.608 29.608 0 0 1 115.1 20.8 Q 119.5 20.8 122.85 21.6 Q 126.2 22.4 129.3 23.9 Z" id="2" vector-effect="non-scaling-stroke"/><path d="M 175.2 26.2 L 175.2 22 L 183.4 22 L 183.4 61.4 A 12.15 12.15 0 0 0 183.502 63.036 Q 183.834 65.47 185.25 66.35 Q 187.1 67.5 189.3 67.5 L 187.4 74.5 A 17.722 17.722 0 0 1 183.135 74.028 Q 177.498 72.628 175.903 67.08 A 13.59 13.59 0 0 1 175.8 66.7 A 21.307 21.307 0 0 1 172.69 70.126 A 28.498 28.498 0 0 1 169.55 72.55 Q 165.6 75.2 159.5 75.2 Q 153 75.2 147.7 71.9 A 22.947 22.947 0 0 1 140.287 64.373 A 27.923 27.923 0 0 1 139.25 62.55 A 27.228 27.228 0 0 1 136.62 54.608 A 36.644 36.644 0 0 1 136.1 48.3 A 33.142 33.142 0 0 1 137.097 40.031 A 27.968 27.968 0 0 1 139.25 34.3 Q 142.4 28.1 147.95 24.45 A 22.297 22.297 0 0 1 159.145 20.844 A 27.388 27.388 0 0 1 160.7 20.8 A 22.584 22.584 0 0 1 165.494 21.29 A 18.703 18.703 0 0 1 168.85 22.35 A 26.002 26.002 0 0 1 173.137 24.644 A 22.103 22.103 0 0 1 175.2 26.2 Z M 174.4 60.7 L 174.4 32.8 Q 171.7 30.9 168.45 29.75 Q 165.2 28.6 161.6 28.6 A 15.924 15.924 0 0 0 156.629 29.354 A 14.024 14.024 0 0 0 153.15 31.05 A 16.301 16.301 0 0 0 148.131 36.474 A 19.962 19.962 0 0 0 147.4 37.85 A 20.663 20.663 0 0 0 145.647 43.527 A 27.678 27.678 0 0 0 145.3 48 Q 145.3 53.6 147.4 57.95 A 17.602 17.602 0 0 0 150.506 62.496 A 15.697 15.697 0 0 0 153.2 64.75 Q 156.9 67.2 161.5 67.2 Q 165.3 67.2 168.7 65.35 Q 172.1 63.5 174.4 60.7 Z" id="3" vector-effect="non-scaling-stroke"/><path d="M 200.8 57.7 L 200.8 0 L 209.8 0 L 209.8 56.8 A 20.644 20.644 0 0 0 209.988 59.688 Q 210.45 62.952 212.05 64.8 A 7.363 7.363 0 0 0 216.634 67.276 A 10.724 10.724 0 0 0 218.3 67.4 Q 220.2 67.4 222.05 66.95 A 22.192 22.192 0 0 0 223.513 66.544 Q 224.448 66.247 225.2 65.9 L 227.4 73.2 Q 226.001 73.822 224.088 74.323 A 34.978 34.978 0 0 1 222.95 74.6 A 23.816 23.816 0 0 1 219.795 75.085 A 30.514 30.514 0 0 1 217.1 75.2 A 20.862 20.862 0 0 1 212.21 74.646 A 17.544 17.544 0 0 1 208.8 73.45 A 12.683 12.683 0 0 1 203.475 68.685 A 15.856 15.856 0 0 1 202.95 67.8 Q 201.216 64.654 200.88 60.012 A 32.105 32.105 0 0 1 200.8 57.7 Z" id="4" vector-effect="non-scaling-stroke"/><path d="M 244.9 74 L 235.9 74 L 235.9 0 L 244.9 0 L 244.9 30.3 Q 247.7 26.2 252 23.5 A 17.572 17.572 0 0 1 259.125 20.991 A 22.595 22.595 0 0 1 262.1 20.8 A 23.225 23.225 0 0 1 267.165 21.318 Q 272.259 22.456 275.25 26.1 Q 279.375 31.126 279.588 39.209 A 33.764 33.764 0 0 1 279.6 40.1 L 279.6 74 L 270.6 74 L 270.6 41.1 Q 270.6 35.5 268 32.1 A 8.42 8.42 0 0 0 261.842 28.753 A 11.979 11.979 0 0 0 260.7 28.7 A 13.23 13.23 0 0 0 253.987 30.566 A 17.586 17.586 0 0 0 251.95 31.95 Q 247.8 35.2 244.9 39.6 L 244.9 74 Z" id="5" vector-effect="non-scaling-stroke"/><path d="M 303.7 71.75 A 24.559 24.559 0 0 0 308.298 73.84 Q 312.353 75.2 317 75.2 Q 324.4 75.2 330.25 71.8 Q 336.1 68.4 339.5 62.25 A 26.255 26.255 0 0 0 342.153 55.109 A 34.184 34.184 0 0 0 342.9 47.8 A 34.542 34.542 0 0 0 342.415 41.891 A 25.795 25.795 0 0 0 339.45 33.45 Q 336 27.4 330.15 24.1 A 24.848 24.848 0 0 0 325.509 22.073 A 27.738 27.738 0 0 0 317 20.8 A 31.325 31.325 0 0 0 315.42 20.839 A 26.169 26.169 0 0 0 303.8 24.1 Q 297.9 27.4 294.5 33.5 A 26.023 26.023 0 0 0 291.751 41.09 A 35.006 35.006 0 0 0 291.1 48 A 34.82 34.82 0 0 0 291.365 52.354 A 27.451 27.451 0 0 0 294.45 62.15 Q 297.8 68.3 303.7 71.75 Z M 317 67.2 Q 324.9 67.2 329.3 61.85 A 18.802 18.802 0 0 0 333.119 53.76 A 27.105 27.105 0 0 0 333.7 48 Q 333.7 42.8 331.5 38.45 A 19.198 19.198 0 0 0 327.328 32.881 A 18.17 18.17 0 0 0 325.55 31.45 Q 321.8 28.8 317 28.8 A 19.249 19.249 0 0 0 311.774 29.472 A 14.037 14.037 0 0 0 304.7 34 A 17.878 17.878 0 0 0 301.026 41.374 Q 300.3 44.306 300.3 47.8 Q 300.3 53 302.5 57.45 A 19.437 19.437 0 0 0 306.03 62.49 A 17.627 17.627 0 0 0 308.45 64.55 Q 312.2 67.2 317 67.2 Z" id="6" vector-effect="non-scaling-stroke"/><path d="M 350.4 69.8 L 354.2 62.3 A 18.557 18.557 0 0 0 357.344 64.426 Q 358.898 65.27 360.75 65.95 A 24.073 24.073 0 0 0 368.361 67.387 A 27.464 27.464 0 0 0 369.2 67.4 Q 374.592 67.4 377.435 65.685 A 7.738 7.738 0 0 0 377.65 65.55 Q 380.5 63.7 380.5 60.8 A 7.123 7.123 0 0 0 380.186 58.653 A 6.212 6.212 0 0 0 379.45 57.1 A 6.384 6.384 0 0 0 378.521 56.006 Q 377.507 55.034 375.834 54.081 A 22.3 22.3 0 0 0 375.6 53.95 A 28.462 28.462 0 0 0 373.606 52.957 Q 371.49 51.995 368.501 50.946 A 103.602 103.602 0 0 0 367.5 50.6 A 46.616 46.616 0 0 1 363.102 48.857 Q 360.988 47.883 359.312 46.795 A 19.335 19.335 0 0 1 356.55 44.65 A 11.324 11.324 0 0 1 353.256 38.654 A 16.794 16.794 0 0 1 352.9 35.1 Q 352.9 29.1 358.15 24.95 Q 362.554 21.469 369.808 20.908 A 37.527 37.527 0 0 1 372.7 20.8 A 40.794 40.794 0 0 1 377.146 21.031 Q 379.454 21.284 381.47 21.815 A 25.234 25.234 0 0 1 381.6 21.85 Q 385.5 22.9 388.6 24.5 L 386.1 31.9 Q 383.4 30.3 379.95 29.3 A 25.024 25.024 0 0 0 375.467 28.453 A 31.837 31.837 0 0 0 372.3 28.3 A 20.632 20.632 0 0 0 369.363 28.495 Q 366.277 28.94 364.4 30.4 A 9.322 9.322 0 0 0 363.042 31.673 Q 362.34 32.492 362.005 33.365 A 4.529 4.529 0 0 0 361.7 35 A 4.921 4.921 0 0 0 363.195 38.552 A 7.082 7.082 0 0 0 363.8 39.1 Q 365.865 40.772 371.798 42.734 A 84.459 84.459 0 0 0 372 42.8 A 67.753 67.753 0 0 1 377.062 44.698 Q 382.989 47.217 385.8 50.1 Q 389.7 54.1 389.7 60.1 Q 389.7 66.848 384.449 70.855 A 16.618 16.618 0 0 1 384.05 71.15 Q 379.31 74.547 371.862 75.095 A 40.423 40.423 0 0 1 368.9 75.2 Q 363 75.2 358.25 73.7 A 30.883 30.883 0 0 1 354.41 72.215 Q 352.429 71.284 350.848 70.136 A 18.229 18.229 0 0 1 350.4 69.8 Z" id="7" vector-effect="non-scaling-stroke"/><path d="M 403.7 56.1 L 403.7 31.7 L 394.7 31.7 L 394.7 23.9 L 403.9 23.9 L 405.8 7.5 L 412.7 7.5 L 412.7 23.9 L 427.1 23.9 L 427.1 31.7 L 412.7 31.7 L 412.7 56.8 A 21.559 21.559 0 0 0 412.868 59.596 Q 413.341 63.202 415.15 64.9 Q 417.6 67.2 421 67.2 Q 423.5 67.2 425.75 66.4 Q 428 65.6 429.9 64.5 L 432.4 71.7 A 18.546 18.546 0 0 1 430.782 72.556 Q 429.98 72.935 429.035 73.308 A 43.365 43.365 0 0 1 427 74.05 Q 423.6 75.2 419.9 75.2 Q 412.4 75.2 408.05 70.25 A 16.116 16.116 0 0 1 404.822 64.348 Q 404.059 61.917 403.815 58.98 A 34.777 34.777 0 0 1 403.7 56.1 Z" id="8" vector-effect="non-scaling-stroke"/></g></svg>