<svg id="Layer_1" data-name="Layer 1" xmlns="http://www.w3.org/2000/svg" width="472" height="568" viewBox="0 0 472 568">
  <defs>
    <style>
      .cls-1 {
        fill: none;
      }

      .cls-1, .cls-2 {
        stroke: #fff;
      }

      .cls-2 {
        fill: #222;
      }

      .cls-3 {
        fill: #fff;
      }
    </style>
  </defs>
  <path class="cls-1" d="M385.042,0c0,135.016,29.656,164.503,42.223,179.505C439.831,194.506,472,255.031,472,344.007c0,71.181-63.333,114.152-95,126.74V568" transform="translate(-0.5)"/>
  <path class="cls-1" d="M338.042,0c0,135.016,29.656,164.503,42.223,179.505C392.831,194.506,425,255.031,425,344.007c0,71.181-63.333,114.152-95,126.74V568" transform="translate(-0.5)"/>
  <path class="cls-1" d="M291.042,0c0,135.016,29.656,164.503,42.223,179.505C345.831,194.506,378,255.031,378,344.007c0,71.181-63.333,114.152-95,126.74V568" transform="translate(-0.5)"/>
  <path class="cls-1" d="M244.042,0c0,135.016,29.656,164.503,42.223,179.505C298.831,194.506,331,255.031,331,344.007c0,71.181-63.333,114.152-95,126.74V568" transform="translate(-0.5)"/>
  <path class="cls-1" d="M197.042,0c0,135.016,29.656,164.503,42.223,179.505C251.831,194.506,284,255.031,284,344.007c0,71.181-63.333,114.152-95,126.74V568" transform="translate(-0.5)"/>
  <path class="cls-1" d="M150.042,0c0,135.016,29.656,164.503,42.223,179.505C204.831,194.506,237,255.031,237,344.007c0,71.181-63.333,114.152-95,126.74V568" transform="translate(-0.5)"/>
  <path class="cls-1" d="M103.042,0c0,135.016,29.656,164.503,42.223,179.505C157.831,194.506,190,255.031,190,344.007c0,71.181-63.333,114.152-95,126.74V568" transform="translate(-0.5)"/>
  <path class="cls-1" d="M55.9577,0c0,135.016,29.3439,164.503,41.7778,179.505C110.169,194.506,142,255.031,142,344.007c0,71.181-62.6667,114.152-94,126.74V568" transform="translate(-0.5)"/>
  <path class="cls-1" d="M8.95767,0c0,135.016,29.34393,164.503,41.77783,179.505C63.1693,194.506,95,255.031,95,344.007c0,71.181-62.6667,114.152-94,126.74V568" transform="translate(-0.5)"/>
  <path class="cls-2" d="M95.6543,441.093q-.15675-.081-.2821-.15c.1688-.137.3736-.306.612-.504.7549-.629,1.8462-1.564,3.1955-2.787a143.51667,143.51667,0,0,0,10.5683-10.694c8.275-9.278,18.189-22.703,24.717-39.275,11.506-29.207,8.578-56.863,6.697-74.621-.253-2.388-.487-4.597-.664-6.606-1.503-17.03-4.008-32.056-9.513-54.077-2.759-11.036-7.52-23.688-11.585-33.569-2.034-4.943-3.895-9.198-5.248-12.218-.677-1.509-1.227-2.71-1.607-3.534-.162-.351-.294-.633-.391-.842.19-.098.452-.228.791-.386.836-.39,2.141-.951,3.999-1.626a132.83031,132.83031,0,0,1,18.469-4.964C153.06,191.623,182.275,188,228.5,188s75.941,3.623,94.09,7.24a147.44777,147.44777,0,0,1,19.161,4.967c1.953.675,3.337,1.237,4.229,1.628.446.195.77.348.98.451.06.03.111.055.153.076l.031.071c.066.151.164.375.289.662.251.574.613,1.402,1.054,2.417.882,2.03,2.085,4.811,3.366,7.809,2.564,6.004,5.432,12.864,6.676,16.347.432,1.208.892,2.459,1.374,3.769a189.65488,189.65488,0,0,1,7.61,24.675c1.497,6.489,2.996,14.231,4.12,20.353.562,3.061,1.031,5.716,1.359,7.605.164.945.292,1.698.38,2.215.044.258.078.458.101.593l.025.153.006.032.001.006.003.039.017.173.065.67c.057.582.139,1.425.24,2.472.204,2.094.485,5,.797,8.25.625,6.5,1.375,14.374,1.875,19.872l.066.727c.978,10.746,1.907,20.954.934,30.678-.155,1.552-.273,2.918-.384,4.185-.247,2.841-.451,5.184-.924,8.001a139.231,139.231,0,0,1-4.672,17.966c-4.878,15.744-16.489,31.301-20.734,36.991-.515.689-.922,1.234-1.195,1.616a56.94912,56.94912,0,0,1-4.056,4.547c-1.942,2.035-4.298,4.423-6.578,6.703s-4.482,4.45-6.114,6.051c-.816.801-1.489,1.458-1.959,1.916l-.185.181c-.148.144-.268.261-.358.348l-.143.139-.003.003-.002.001c-.018.01-.039.022-.066.036-.032.017-.071.038-.118.062-.169.087-.434.217-.81.384-.751.335-1.943.817-3.687,1.399a129.05009,129.05009,0,0,1-17.976,4.279C289.95,449.876,259.981,453,210.5,453c-49.482,0-78.449-3.124-95.033-6.241a102.76208,102.76208,0,0,1-16.5891-4.274A29.1713,29.1713,0,0,1,95.6543,441.093Z" transform="translate(-0.5)"/>
  <path class="cls-3" d="M130.28649,210.07455c6.50328,13.84146,12.54585,27.652,17.809,42.0155l.13567-.04348c-3.52709-14.9744-7.91986-29.441-12.86513-44.00421.37216-.12916.56571-.195.96836-.329a415.01755,415.01755,0,0,1,14.40446,53.67334c-.31369.06736-.61021.15607-1.12468.31711a352.38908,352.38908,0,0,0-20.3493-51.11465C129.6016,210.4075,129.93483,210.24044,130.28649,210.07455Zm24.26034,50.5697a312.41762,312.41762,0,0,0-12.02347-40.46631c.39939-.11032.60564-.16622,1.03179-.27938a314.1658,314.1658,0,0,1,12.03932,40.56265C155.16132,260.53534,154.95192,260.572,154.54683,260.64425Zm-14.15112-47.4935c-.20042.05829-.52118-.27969-.94453-.95211a14.82356,14.82356,0,0,1-1.15012-2.32212,21.95184,21.95184,0,0,1-.96953-2.94375c-.1487-.751-.08208-1.05347.11754-1.11667s.4752.13092.91162.7948a18.8827,18.8827,0,0,1,1.39963,2.81942,12.687,12.687,0,0,1,.72265,2.46357C140.61893,212.65423,140.59612,213.09243,140.39571,213.15075Zm21.09907,47.37943c-.89286.12463-1.814-.71982-2.84074-2.64328a64.15282,64.15282,0,0,1-3.152-7.85532c-1.05954-3.03412-2.21-6.66723-3.48221-10.81137-1.27028-4.138-2.34357-7.79266-3.08624-10.85345a35.14521,35.14521,0,0,1-1.18521-7.17154c-.02866-1.73636.2125-3.02942,1.0231-3.20932.46771-.10382,1.08806.18274,1.87025.88772a14.46363,14.46363,0,0,1,2.4679,2.93085,38.72639,38.72639,0,0,1,2.98286,5.674,86.041,86.041,0,0,1,3.39108,9.39487c.32253,1.05963.48183,1.59177.79421,2.65744-2.85257.5838-4.38435.82226-6.8559,1.3107-.64413-2.15515-.98071-3.23294-1.66351-5.35916,1.9675-.40418,3.24155-.58,5.44344-1.05124a50.27756,50.27756,0,0,0-2.30147-5.99356,18.69672,18.69672,0,0,0-2.29112-3.85654c-.73134-.897-1.35286-1.2868-1.85436-1.1828-.55251.11459-.808.7774-.782,2.01315a24.282,24.282,0,0,0,.69977,4.67856c.43315,1.90143,1.03883,4.04028,1.74282,6.25736.45249,1.42495.67583,2.14282,1.111,3.58065.92663,3.06141,1.75737,5.64951,2.52835,7.73218a25.5108,25.5108,0,0,0,2.10925,4.61179c.6501,1.00015,1.32834,1.788,1.90077,1.70147.37221-.05627.65534-.383.84082-.98611a7.75188,7.75188,0,0,0,.29787-2.37866,24.57825,24.57825,0,0,0-.40869-3.632c.68919.57193,1.0366.85767,1.73665,1.42871a47.78083,47.78083,0,0,1,.64488,5.96625,14.79067,14.79067,0,0,1-.23529,4.48645C162.61641,259.91311,162.12162,260.44265,161.49478,260.53018Zm6.22062-2.00491a321.827,321.827,0,0,0-13.1865-41.13935c.28383-.05316.42717-.07974.71677-.1329,4.0392,10.01562,7.32123,20.17062,10.46237,30.49335l.04819-.00721c-2.48857-10.41363-5.13533-20.66961-8.48387-30.84784.31042-.05383.46715-.08075.78369-.13449,4.033,10.01,7.31706,20.1608,10.46449,30.47391l.051-.007c-2.44969-10.40112-5.05146-20.65173-8.35031-30.82382.3278-.05249.49321-.07868.82708-.13095a351.631,351.631,0,0,1,10.24958,41.8009c-.29958.03626-.448.05441-.74231.09073-2.796-11.10529-5.95336-21.51556-9.73864-32.3143l-.07441.01157c3.05237,10.90225,5.53964,21.44772,7.66356,32.57611C168.12725,258.47046,167.98911,258.48871,167.7154,258.52527Zm12.49565,15.36749a.5322.5322,0,0,1-.43366-.23813,1.70867,1.70867,0,0,1-.3143-.46906c-.27824-2.26971-.42975-3.43011-.75827-5.79684.28064.39206.49239.52643.63373.39813.1422-.12851.18932-.69827.135-1.71762-.04933-1.0061-.22331-2.636-.55609-4.95041-.20434-1.42068-.31073-2.1383-.532-3.58655a373.48857,373.48857,0,0,0-13.90478-41.77679c.36995-.05283.55658-.07919.93323-.13168,4.16664,10.64358,7.89285,21.11529,11.30266,32.02661l.06022-.00666c-2.33807-11.004-5.021-21.63549-8.08845-32.45712.39961-.05108.60115-.07651,1.00767-.1271a353.60838,353.60838,0,0,1,10.49948,48.79986c.31232,2.31259.49758,4.17832.5835,5.65039a18.0286,18.0286,0,0,1-.02652,3.28693C180.65456,273.50711,180.47205,273.86941,180.21105,273.89276Zm5.01852-16.26227c-.58211.04941-1.26747-.86472-2.13157-2.95007-.85962-2.07773-1.81388-5.08689-2.81188-8.29764-.99509-3.21069-2.10443-6.98334-3.33169-11.20221-1.23627-4.24988-2.29407-7.99051-3.03592-11.024a52.50592,52.50592,0,0,1-1.3792-7.17688c-.14442-1.71219-.04611-2.89227.53711-2.95849s1.50595.99466,2.53015,2.62069a47.236,47.236,0,0,1,3.43489,6.99109,109.1957,109.1957,0,0,1,3.75247,10.95392,92.42145,92.42145,0,0,1,2.59674,11.30829,56.912,56.912,0,0,1,.768,8.51889C186.14756,256.58294,185.81168,257.58111,185.22957,257.63049ZM183.84874,250.9c.44222-.03982.5956-1.0878.55973-2.59265a36.47691,36.47691,0,0,0-.744-5.8884c-.47177-2.41192-1.10643-5.00125-1.89821-7.734-.78993-2.72635-1.63448-5.24362-2.51926-7.61053a40.44269,40.44269,0,0,0-2.40155-5.40442c-.75328-1.36646-1.36065-2.02719-1.80429-1.98056s-.5668.78278-.38539,2.2059a45.96348,45.96348,0,0,0,1.137,5.53464c.61157,2.38861,1.32133,4.92056,2.11392,7.64755.79445,2.7334,1.56749,5.30509,2.31221,7.68344.74472,2.37848,1.40154,4.3006,2.00755,5.74744C182.83152,249.95535,183.40651,250.93988,183.84874,250.9Zm6.01546-13.30231c-2.6918-9.80514-3.5649-12.77676-7.49365-23.876.4497-.03971.67613-.05939,1.13218-.09839a401.02435,401.02435,0,0,1,11.742,42.28567c-.45639.02985-.683.04489-1.13287.0752-.61431-3.12879-1.09768-5.41309-1.73308-8.29666l-.076.00555a51.32052,51.32052,0,0,1,.54762,6.40662c-.00313,1.77493-.3026,2.59948-.84076,2.63788-.44465.03173-.94955-.53821-1.5647-1.87015a58.227,58.227,0,0,1-2.10693-6.16452c-.70383-2.3591-1.50392-5.34113-2.44809-8.88245a254.16486,254.16486,0,0,0-8.0016-25.67712c.424-.04239.63757-.06345,1.06779-.10523a256.3104,256.3104,0,0,1,7.88154,25.24878A74.61045,74.61045,0,0,0,189.1,246.593c.71055,1.81406,1.29967,2.83759,1.755,2.80329.273-.02057.43539-.58472.539-1.43784a16.8517,16.8517,0,0,0-.15324-3.8674A47.47669,47.47669,0,0,0,189.8642,237.59771Zm7.49907,18.17649a402.48877,402.48877,0,0,0-11.744-42.3266c.45242-.03641.68014-.05445,1.13861-.09012,1.00306,2.83945,1.31329,3.78394,2.10913,6.18271l.08035-.00571a24.22974,24.22974,0,0,1-.85539-4.85605c-.05-1.253.04773-2.183.52115-2.2178a2.42828,2.42828,0,0,1,.34779.0112,1.07248,1.07248,0,0,1,.335.06351c1.034,2.9208,1.39972,4.01413,2.22824,6.50647a2.49631,2.49631,0,0,0-.36164-.21274.89845.89845,0,0,0-.52124-.15213c-.38419.02588-.58724.4591-.62,1.28525a15.65011,15.65011,0,0,0,.35684,3.30975,46.49009,46.49009,0,0,0,1.2511,4.86359,227.14673,227.14673,0,0,1,6.91421,27.5668C198.0681,255.7308,197.83207,255.74521,197.36327,255.7742Zm1.71106-43.21335c.86566,2.4574,1.15343,3.32583,1.85226,5.421-1.89424.09036-2.82016.13858-4.63083.24026-.69682-2.08837-.97987-2.944-1.8451-5.39868C196.25858,212.71255,197.18306,212.65988,199.07433,212.56085Zm8.50449,42.66171a401.54374,401.54374,0,0,0-13.98369-48.69208,35.55766,35.55766,0,0,1-1.63039-5.49072,14.044,14.044,0,0,1-.40152-3.53772c.14348-.64062.35347-1.13309.76721-1.15994a1.32492,1.32492,0,0,1,.9238.26645,7.73523,7.73523,0,0,1,.72643.65313c.45381,1.68525.94766,3.17679,1.49426,5.13114-.1026-.09119-.23969-.20236-.41248-.33753a.78171.78171,0,0,0-.5392-.17868c-.44227.02744-.60061.486-.44168,1.47709a30.28674,30.28674,0,0,0,1.39572,4.6759A342.3365,342.3365,0,0,1,208.898,255.16226C208.36684,255.18606,208.103,255.19812,207.57882,255.22256Zm7.80139.75919c-.58094.02154-1.1864-.41059-1.89255-1.60013a29.1119,29.1119,0,0,1-2.199-5.24429c-.76659-2.30356-1.42287-4.6457-2.11522-7.41816-.60948-2.44061-1.0361-4.38418-1.24234-5.86584a14.45187,14.45187,0,0,1-.17328-3.50122,4.12579,4.12579,0,0,1,.59175-1.88046,4.18754,4.18754,0,0,1,.9729-1.03733,11.61955,11.61955,0,0,1,1.15558-.74756,1.04093,1.04093,0,0,0,.51791-.88873,7.02124,7.02124,0,0,0-.43-2.22406l-.06706-.21814a29.00173,29.00173,0,0,0-2.333-5.82724c-.78667-1.40311-1.52278-2.11066-2.17406-2.08517-.67516.02639-.9785.70257-.93823,1.99524a25.28,25.28,0,0,0,.47644,4.01254c-.76622-.75549-1.15328-1.14291-1.93141-1.92847a39.21472,39.21472,0,0,1-.9433-5.71054,8.02949,8.02949,0,0,1,.25969-3.06412q.36174-1.02072,1.05548-1.04974a2.27643,2.27643,0,0,1,1.21634.51083,8.56369,8.56369,0,0,1,1.84677,2.00177,25.58,25.58,0,0,1,2.37738,4.27393,58.12352,58.12352,0,0,1,2.73915,7.48181c3.02339,9.49646,5.2104,19.057,7.30063,28.79291-.58469.01861-.8752.02811-1.45268.04745-.48624-2.48977-.81672-4.07421-1.40958-6.79953l-.07309.0026a34.91556,34.91556,0,0,1,.25859,3.53052,11.911,11.911,0,0,1-.26373,3.19729C216.29283,255.55224,215.91352,255.962,215.38021,255.98175Zm-1.17548-6.83112c.55777-.02164.90407-.63992,1.02821-1.85348a17.33989,17.33989,0,0,0-.03787-4.05771,35.78834,35.78834,0,0,0-.98288-5.07761c-.629-2.36072-.95617-3.52243-1.61453-5.79941a1.66614,1.66614,0,0,1-.14964.88987,2.62845,2.62845,0,0,1-.51358.68844c-.21065.19174-.42051.35861-.62746.51315-.20952.13544-.37567.25074-.50221.34488a2.31524,2.31524,0,0,0-.72983,1.09049,5.46923,5.46923,0,0,0-.17188,2.17724,33.43408,33.43408,0,0,0,2.4841,9.12842C213.00425,248.35339,213.64415,249.17236,214.20473,249.15063Zm3.91277-37.27548c3.40144,14.1879,6.07357,28.24347,8.10447,42.69421-.62806.01535-.94017.02326-1.5606.03946a404.79788,404.79788,0,0,0-15.43848-42.48742c.63923-.02213.961-.03287,1.6086-.05365,4.517,10.83358,8.62672,21.53048,12.44816,32.62954l.10352-.00293c-1.9901-11.08706-4.28128-21.84326-6.96706-32.7814C217.09238,211.89706,217.43264,211.88949,218.1175,211.87515Zm18.117,43.45135c-.97493.01487-1.996-.90942-3.16936-3.09219a68.59519,68.59519,0,0,1-3.57142-8.60086c-1.19808-3.35315-2.40987-7.18069-3.61631-11.34418-1.2153-4.19412-2.17042-7.93655-2.72111-10.90841a33.9184,33.9184,0,0,1-.76016-7.30909c.1076-1.78479.55-2.90448,1.51782-2.91656s2.22079,1.08295,3.574,2.85687a40.05649,40.05649,0,0,1,4.18387,7.27939,79.33128,79.33128,0,0,1,3.94673,10.84891,69.7321,69.7321,0,0,1,2.4102,11.34936,37.24043,37.24043,0,0,1,.15944,8.66626C237.898,254.36419,237.2094,255.31164,236.2345,255.3265Zm-1.41528-6.85818c.73979-.0116,1.14178-1.00946,1.27275-2.57022a25.64389,25.64389,0,0,0-.39235-6.03412,65.6214,65.6214,0,0,0-1.77937-7.70541,77.87415,77.87415,0,0,0-2.63759-7.57059,28.22692,28.22692,0,0,0-2.77985-5.386c-.94748-1.41012-1.80871-2.13983-2.54536-2.13232s-1.08835.74844-1.09212,2.16833a24.41243,24.41243,0,0,0,.66791,5.42188c.52263,2.42282,1.16853,4.90808,1.94851,7.59723.78183,2.69552,1.606,5.2749,2.45954,7.70709a44.43609,44.43609,0,0,0,2.50148,5.99185C233.26329,247.49878,234.07939,248.48,234.81922,248.46832Zm8.84669,5.8215a417.62086,417.62086,0,0,0-11.973-42.57187c.66865-.00177,1.00476-.00232,1.68054-.00268,1.01387,2.8522,1.3797,3.93158,2.19609,6.36838l.12034.00015a17.4146,17.4146,0,0,1-.57052-4.9646c.099-1.28623.40745-2.14289,1.08731-2.14057a4.92892,4.92892,0,0,1,.49257.03766,1.98816,1.98816,0,0,1,.46422.08786c1.04873,2.93744,1.46359,4.1446,2.317,6.67874a3.70263,3.70263,0,0,0-.4841-.23794,1.61569,1.61569,0,0,0-.72052-.18985c-.55277-.00256-.90989.41647-1.07712,1.22928a10.40692,10.40692,0,0,0,.024,3.23575,28.863,28.863,0,0,0,1.12068,4.80514,233.37156,233.37156,0,0,1,7.07644,27.65158C244.71436,254.28155,244.36356,254.28415,243.66591,254.28982Zm7.77374-.03876a417.81583,417.81583,0,0,0-12.0104-42.51641c.68486.00479,1.02548.00756,1.70314.01382A417.81427,417.81427,0,0,1,253.148,254.249C252.46831,254.24933,252.12665,254.24975,251.43965,254.25106ZM237.58,204.22366c-.33177-.00247-.78041-.44678-1.32417-1.27539a13.757,13.757,0,0,1-1.37052-2.78439,13.39918,13.39918,0,0,1-.76928-3.01133c-.06145-.80767.12663-1.08059.458-1.07843s.71306.2786,1.25006,1.08991a15.468,15.468,0,0,1,1.48263,3.01413,10.76445,10.76445,0,0,1,.65823,2.7821C238.03348,203.7861,237.91172,204.22616,237.58,204.22366Zm11.26291,7.63586c.876,2.45173,1.209,3.42008,1.93234,5.54612-2.178-.045-3.287-.06394-5.54581-.094-.7214-2.12567-1.04995-3.08475-1.92552-5.54C245.55992,211.79892,246.6675,211.81662,248.84287,211.85952Zm-7.69753-10.51223c.66095.00854.98964.01321,1.6435.02325,4.71476,12.99542,9.18522,25.97806,12.75306,39.3436.48066,1.85541.89293,3.288,1.255,4.249a7.71829,7.71829,0,0,0,.97576,1.94791,1.1916,1.1916,0,0,0,.80035.53027.59989.59989,0,0,0,.41107-.12723c.0886-.11355.16132-.19668.21494-.26477.75467,2.75611,1.19559,4.499,1.82419,6.98777a1.98521,1.98521,0,0,1-.35245.52752.84206.84206,0,0,1-.69306.28583c-.45953-.0022-.97567-.34137-1.617-1.30521a22.57406,22.57406,0,0,1-2.02033-4.35174,65.01743,65.01743,0,0,1-1.989-6.68811C250.50768,228.54086,246.07781,214.96521,241.14534,201.34729Zm26.4934,53.91528c-.96772-.011-1.98319-.92807-3.15195-3.11044a71.93582,71.93582,0,0,1-3.59808-8.645c-1.21534-3.38626-2.44114-7.17569-3.63831-11.23069-1.19539-4.04895-2.14545-7.73361-2.69344-10.62948a39.16265,39.16265,0,0,1-.874-7.33792c.04026-1.84308.43672-2.93625,1.34265-2.90967a3.36025,3.36025,0,0,1,1.97915,1.27377,20.15567,20.15567,0,0,1,2.63321,3.64646,51.05417,51.05417,0,0,1,2.99274,6.06454,96.29818,96.29818,0,0,1,3.21539,9.24362c.30313,1.01279.455,1.52573.75745,2.56546-2.9957-.06671-4.5365-.09417-7.70731-.13556-.61773-2.13427-.93087-3.17419-1.54846-5.20266,2.52939.04507,3.76581.07214,6.18387.1344a54.91063,54.91063,0,0,0-2.20935-6.045,23.17167,23.17167,0,0,0-2.23758-3.99453c-.748-1.03064-1.412-1.57871-1.97061-1.59531-.61385-.01825-.93271.59689-.98189,1.79187A22.73757,22.73757,0,0,0,256.5044,223.5a55.09017,55.09017,0,0,0,1.57059,6.25958c.41314,1.36557.621,2.05987,1.03417,3.47272.8797,3.00821,1.74631,5.68957,2.59491,7.94571a32.3853,32.3853,0,0,0,2.39673,5.23849c.75321,1.21179,1.47486,1.99616,2.09882,2.00421.40469.00522.70486-.27356.903-.83215a7.65766,7.65766,0,0,0,.28669-2.40488,24.50293,24.50293,0,0,0-.39948-3.798c.76926.72491,1.15146,1.0903,1.9108,1.82779a42.838,42.838,0,0,1,.6705,6.165,15.41393,15.41393,0,0,1-.38925,4.50164C268.86338,254.94857,268.31812,255.27029,267.63874,255.26257ZM276.09632,221.99c-.291.55093-.44132.81958-.75373,1.33947-.32965-.8023-.71359-1.638-1.14032-2.4776a13.82569,13.82569,0,0,0-1.32806-2.18881,1.95747,1.95747,0,0,0-1.2796-.92355c-.54813-.02915-.80393.534-.79276,1.63867a14.20706,14.20706,0,0,0,.75522,3.94626,19.17007,19.17007,0,0,0,1.50034,3.6,8.12687,8.12687,0,0,0,1.86053,2.25686c.69922.56455,1.04755.84863,1.74124,1.42035a11.96017,11.96017,0,0,1,2.90766,3.91373,35.6564,35.6564,0,0,1,2.52871,7.03189,43.36251,43.36251,0,0,1,1.252,6.8703,20.40071,20.40071,0,0,1-.02539,5.36533c-.24015,1.32724-.75928,1.75964-1.454,1.74163-.91352-.02365-1.85828-.98553-2.94474-3.25854a67.87087,67.87087,0,0,1-3.283-9.24491c.377-.62027.56305-.92773.9311-1.53677a36.21038,36.21038,0,0,0,2.02728,5.33408c.63531,1.22143,1.268,2.00662,1.83,2.02261.64135.01828.95709-.81491,1.00955-2.17038a17.05066,17.05066,0,0,0-.6402-4.83813,19.211,19.211,0,0,0-1.30731-3.666,6.6532,6.6532,0,0,0-1.603-2.2c-.77267-.649-1.16119-.971-1.94241-1.61026a12.91055,12.91055,0,0,1-2.99951-3.97046,46.23236,46.23236,0,0,1-2.70993-6.85324,48.83711,48.83711,0,0,1-1.44632-5.67688,15.11949,15.11949,0,0,1-.30448-4.21707c.13135-1.02463.45-1.67514,1.07819-1.64145.88489.04748,1.96258,1.164,3.10626,3.02609A48.357,48.357,0,0,1,276.09632,221.99Zm14.60424,33.8085c-.74365-.027-1.57171-.94156-2.61047-3.16382-1.0332-2.21393-2.14938-5.27154-3.31995-8.65658-1.16665-3.38459-2.372-7.14444-3.566-11.11933-1.20273-4.00412-2.175-7.62228-2.773-10.42608a49.03307,49.03307,0,0,1-1.13617-7.15183c-.0716-1.77863.19842-2.79883.94287-2.74625s1.77682,1.161,2.971,3.01883a52.86244,52.86244,0,0,1,3.76,7.30927,99.72915,99.72915,0,0,1,3.69465,10.38086,86.87739,86.87739,0,0,1,2.62741,11.00531,45.34286,45.34286,0,0,1,.708,8.53509C291.91928,254.96161,291.44419,255.82556,290.70056,255.79852Zm-1.44525-6.78482c.56491.02252.81589-.89948.80033-2.45749a33.33553,33.33553,0,0,0-.73569-5.96384c-.4776-2.38421-1.11072-4.86645-1.88116-7.41836-.76862-2.5459-1.5954-4.89429-2.515-7.27973a32.3869,32.3869,0,0,0-2.45651-5.189c-.828-1.40686-1.54972-2.18314-2.11588-2.22244s-.77539.67157-.67856,2.03186a29.0687,29.0687,0,0,0,.84058,5.11163c.57047,2.3717,1.22409,4.72845,1.99524,7.29315.773,2.57071,1.58258,5.07514,2.409,7.48194a63.41776,63.41776,0,0,0,2.35061,6.03994C288.0123,248.02945,288.69037,248.99118,289.25531,249.0137Zm10.05051,7.1467c-.70258-.03372-1.49109-.98227-2.48947-3.25626-1-2.28177-2.08-5.35126-3.221-8.74121-1.13809-3.38318-2.30777-7.038-3.45587-10.83194-1.16562-3.85178-2.139-7.40625-2.7532-10.15472a59.35761,59.35761,0,0,1-1.281-7.15448c-.1499-1.83191.05383-2.86014.73294-2.79911.52976.04758,1.25223.77335,2.06976,1.92a32.94182,32.94182,0,0,1,2.63858,4.65719,48.35615,48.35615,0,0,1,2.47254,6.02481c-.44577-.03781-.67017-.05655-1.122-.09372a27.18,27.18,0,0,0-1.98163-4.35083c-.7623-1.39633-1.4252-2.175-1.93576-2.21994-.45081-.03967-.6196.57547-.54956,1.76377a25.29306,25.29306,0,0,0,.73215,4.64181c.5263,2.26242,1.24136,4.78931,2.10724,7.64188.887,2.92212,1.75933,5.63354,2.59286,8.04022.837,2.40683,1.58829,4.38345,2.26913,5.82773.68155,1.43756,1.27369,2.31018,1.72876,2.334.30027.01575.49338-.30975.57767-.97305a12.23524,12.23524,0,0,0-.04254-2.69293,35.34058,35.34058,0,0,0-.68777-4.008c.45068.02686.6745.04041,1.119.06778a60.071,60.071,0,0,1,1.296,7.00641,28.25566,28.25566,0,0,1,.24738,5.55759C300.25434,255.756,299.85941,256.187,299.30582,256.1604Zm4.32965-.66465A403.7708,403.7708,0,0,0,291.60065,214.259c.43781.04407.65518.06625,1.087.111a403.10688,403.10688,0,0,1,12.03164,41.18768C304.28876,255.53268,304.072,255.52029,303.63547,255.49575Zm-14.23636-48.62252c-.21164-.02249-.56155-.48688-1.02823-1.337a22.14466,22.14466,0,0,1-1.2767-2.82831,20.64848,20.64848,0,0,1-.877-2.88635c-.15528-.795-.0694-1.03876.14224-1.01526s.48852.30731.94842,1.13571a22.74077,22.74077,0,0,1,1.33155,2.93122,18.13254,18.13254,0,0,1,.822,2.77905C289.62375,206.46991,289.61078,206.89572,289.39911,206.87323Zm19.44776,49.92547c-.41974-.0264-.86634-.37527-1.46985-1.62985a45.5382,45.5382,0,0,1-1.98548-5.31772c-.72427-2.25915-1.4277-4.71689-2.16177-7.43973-.64618-2.39685-1.10324-4.22247-1.35654-5.58725a15.68655,15.68655,0,0,1-.35095-3.148,3.50607,3.50607,0,0,1,.32819-1.58526,2.60229,2.60229,0,0,1,.64737-.79813,6.54835,6.54835,0,0,1,.77636-.52518.69083.69083,0,0,0,.29636-.72348,10.12387,10.12387,0,0,0-.51859-2.14187l-.06738-.21124a34.453,34.453,0,0,0-2.09268-5.39243c-.69266-1.384-1.30157-2.1662-1.7691-2.21954-.48478-.0553-.6323.57-.48627,1.7753.145,1.205.36645,2.43682.623,3.59542-.607-.71014-.92227-1.088-1.57058-1.87539-.54459-2.15476-1.009-4.11054-1.22092-5.49713a9.65106,9.65106,0,0,1-.14609-2.97156c.11689-.59595.33924-.87726.6724-.83838a2.03928,2.03928,0,0,1,.92416.62216,10.59161,10.59161,0,0,1,1.537,2.13861,40.6272,40.6272,0,0,1,2.18643,4.4386,70.214,70.214,0,0,1,2.53284,6.97015,222.34376,222.34376,0,0,1,7.44714,27.56168c-.39017-.02731-.5867-.04092-.98273-.06793-.46765-2.299-.8573-4.07861-1.46975-6.68521l-.05124-.00376c.17837,1.03965.32675,2.16788.44143,3.39667a14.46369,14.46369,0,0,1,.03778,3.11334Q309.426,256.83521,308.84687,256.7987Zm-1.2815-6.67721c.4017.02765.60535-.53549.60553-1.65522a22.761,22.761,0,0,0-.3981-4.02136,47.83434,47.83434,0,0,0-1.13873-4.89584c-.6424-2.23874-.96714-3.30988-1.604-5.377a1.56529,1.56529,0,0,1-.34033,1.33265,4.31138,4.31138,0,0,1-.40692.39685c-.13886.10074-.25128.18768-.336.25973a1.67269,1.67269,0,0,0-.45416.91141,5.95621,5.95621,0,0,0,.03079,1.97552,31.96972,31.96972,0,0,0,.839,3.763,37.87927,37.87927,0,0,0,1.7366,5.30011C306.65647,249.34283,307.15964,250.09353,307.56537,250.12149Zm-10.4519-48.49369a447.70233,447.70233,0,0,1,17.209,54.56678c-.37427-.02814-.5628-.04218-.94281-.07007A448.27179,448.27179,0,0,0,296.16635,201.494C296.548,201.54727,296.73746,201.574,297.11347,201.6278Zm21.8703,54.94a339.13358,339.13358,0,0,0-11.97043-40.41214c.3349.04962.50107.07452.83084.12442,1.04041,2.81231,1.50833,4.10009,2.3548,6.5137l.07217.01059a47.96553,47.96553,0,0,1-1.27814-5.01981c-.21389-1.23968-.17883-1.91272.17231-1.85717.35608.0563.91659.82046,1.61886,2.136.69992,1.303,1.5326,3.11035,2.38452,5.18277l.05448.00861a49.46932,49.46932,0,0,1-1.21777-4.93881c-.21995-1.27372-.17933-1.95359.18371-1.89161.45285.0773,1.308,1.44406,2.44287,3.8313a72.79284,72.79284,0,0,1,3.68372,9.5914c3.06814,9.03046,5.35956,18.07788,7.53512,27.36087-.29849-.03042-.449-.04559-.7528-.076-2.17652-9.29571-4.469-18.35665-7.53852-27.40005a36.44913,36.44913,0,0,0-2.11834-5.53247c-.61872-1.22366-1.09372-1.914-1.37272-1.96-.35842-.05915-.31784.78448.0196,2.30706a54.70687,54.70687,0,0,0,1.55026,5.608,209.78974,209.78974,0,0,1,7.3089,26.7687c-.32392-.03058-.48728-.04583-.81677-.07629-2.23642-9.55945-4.6008-18.86759-7.75077-28.16922a32.0251,32.0251,0,0,0-1.85324-4.75867c-.65292-1.3428-1.17145-2.11255-1.48743-2.16086-.21646-.03311-.26644.3667-.16757,1.16318.0994.79105.33444,1.88617.62714,3.11377.28934,1.21268.70584,2.72592,1.36481,4.76376a200.03267,200.03267,0,0,1,6.97509,25.84256C319.49933,256.61184,319.3284,256.59713,318.98377,256.56781Zm10.30856,1.83654c-.43127-.0469-.96258-.8934-1.748-3.05972-.78754-2.18893-1.70871-5.14316-2.74595-8.43753-1.04193-3.32025-2.16723-6.87448-3.30349-10.49411-1.13456-3.61426-2.13434-7.00015-2.81464-9.52847-.68491-2.54822-1.39291-5.1164-1.76215-6.91138-.37417-1.81381-.3963-2.76645.012-2.68756.23559.0455.6051.47632,1.40143,1.35193a23.05028,23.05028,0,0,1,2.671,3.85992,60.54557,60.54557,0,0,1,2.92007,5.80075c.89017,2.02646,1.99448,5.12882,2.99576,8.324.27926.891.42077,1.346.70572,2.27811-3.01972-.47318-3.67963-.6337-5.12073-.83027-.5947-1.92776-.8895-2.84588-1.45795-4.61608,1.15222.17581,1.35157.17575,3.64136.63146a53.55433,53.55433,0,0,0-2.0795-5.56384,24.27954,24.27954,0,0,0-2.13394-3.74655c-.7442-1.04306-1.14294-1.60583-1.39465-1.65314-.27655-.052-.29364.52414-.10111,1.621.1893,1.08008.51731,2.45743.83469,3.79773.31811,1.3404,1.09537,3.8657,1.69168,5.72907.38324,1.19763.579,1.8121.97391,3.08017.84085,2.7,1.63363,5.20438,2.34857,7.37213.71112,2.14911,1.32327,3.91544,1.83929,5.16626.511,1.23035.91342,1.93225,1.19184,1.96518.1806.02136.21624-.24246.39-.71951a6.41166,6.41166,0,0,0,.20438-2.21186,25.28,25.28,0,0,0-.46854-3.60058c.72122.77908,1.11057,1.16659,1.88107,1.9501a36.04779,36.04779,0,0,1,.66941,5.85123,16.95527,16.95527,0,0,1-.26154,4.18686C330.00879,258.29419,329.59516,258.43728,329.29233,258.40435Zm8.86066,1.20258c-.66919-.09372-1.43479-.94656-2.44123-3.11969-1.0111-2.18848-2.12069-5.13995-3.306-8.45752-1.189-3.33658-2.39862-6.929-3.54395-10.57684-1.13373-3.61093-2.02032-6.89759-2.54187-9.34662a52.16662,52.16662,0,0,1-1.11038-6.54587c-.10456-1.64822.15271-2.45532.82147-2.29251.51706.12588,1.08966.70047,1.72635,1.71a31.51476,31.51476,0,0,1,1.77991,3.20258c.55069,1.12448.97274,2.0028,1.284,2.66259l.09284.023c-2.62516-7.29382-4.29264-11.53463-7.57645-19.86441.43555.12668.64694.18937,1.05734.31321,6.66815,17.15875,12.56778,34.07785,16.973,51.97207-.40011-.06375-.60614-.09607-1.03064-.16134-.50076-2.42151-.97915-4.54508-1.65856-7.27244l-.13138-.02212c.12127.8.26376,1.84067.41681,3.14352a20.51917,20.51917,0,0,1,.13156,3.52454C339.02845,259.53427,338.66986,259.67929,338.153,259.60693ZM336.9032,253.174c.49027.07522.70935-.6369.67349-1.99585a31.61546,31.61546,0,0,0-.79235-5.48056c-.48929-2.23993-1.16242-4.67612-1.98038-7.21878-.80628-2.50647-1.64633-4.79129-2.49274-6.95005a25.217,25.217,0,0,0-2.13833-4.38278c-.72947-1.22906-1.36326-1.965-1.85776-2.08069-.51627-.12078-.71387.45633-.64859,1.59275a20.15317,20.15317,0,0,0,.64337,4.22574c.51382,2.13464,1.1459,4.31729,1.905,6.71987.769,2.43415,1.58966,4.84382,2.4306,7.17182.837,2.31,1.63086,4.31943,2.37241,5.889C335.75528,252.20749,336.391,253.09543,336.9032,253.174Zm6.38226,6.42938A310.57508,310.57508,0,0,0,331.49,221.23111c.36283.10571.53812.15777.8769.26013a309.0603,309.0603,0,0,1,11.79779,38.26523C343.82529,259.69632,343.64951,259.66568,343.28546,259.60339Zm-14.098-45.35065c-.17065-.05346-.49045-.53286-.93606-1.38348a29.07532,29.07532,0,0,1-1.25626-2.7785,22.50754,22.50754,0,0,1-.8735-2.63065c-.1839-.74322-.12714-.93091.04327-.874s.40653.34188.83514,1.16449a28.764,28.764,0,0,1,1.23978,2.74035,23.418,23.418,0,0,1,.89063,2.65586C329.3317,213.91888,329.3581,214.30621,329.18747,214.25274Zm18.7472,47.14395c-.50361-.10043-1.06791-.42172-1.76157-1.742a33.42824,33.42824,0,0,1-1.81671-5.17551c-.65857-2.13424-1.35993-4.547-2.09528-7.10092-.64731-2.2482-1.11365-3.90133-1.39862-5.1167a19.14591,19.14591,0,0,1-.49722-2.74539,1.15573,1.15573,0,0,1,.53512-1.14288,3.07554,3.07554,0,0,1,.87186-.44437c.368-.1048.61188-.187.79239-.23031.176-.06128.26569-.15992.21634-.52753a12.55647,12.55647,0,0,0-.55173-1.95795l-.06564-.1947a35.47011,35.47011,0,0,0-1.89643-4.79239c-.637-1.30762-1.19406-2.12894-1.67892-2.301-.50259-.17834-.73694.30347-.68665,1.327a22.2304,22.2304,0,0,0,.3577,2.97662,10.24835,10.24835,0,0,1-1.34988-1.78747c-.55448-1.89389-1.10276-3.74915-1.42139-5.0578a3.5884,3.5884,0,0,1,.10571-2.54184c.21936-.43771.49588-.59592.84323-.46674a2.712,2.712,0,0,1,.89136.76465c.362.4043.66831,1.06925,1.39166,2.193a32.56192,32.56192,0,0,1,2.2898,4.44352c.77881,1.77874,1.36935,3.23138,2.388,6.2283,3.37882,9.94061,5.17572,15.2478,7.29129,25.18039-.34164-.05933-.74161-.20267-1.02789-.27091-.43567-2.0523-.85211-3.89035-1.45642-6.29532l-.03662-.00949c.1922.95093.367,1.99057.50973,3.13459a11.41449,11.41449,0,0,1,.10242,2.87518C348.66581,261.22442,348.39807,261.4891,347.93467,261.39669ZM346.708,255.141c.46689.10348.66773-.36957.65082-1.3552a20.29068,20.29068,0,0,0-.518-3.74481c-.31967-1.493-.72049-2.99362-1.18536-4.49249-.62961-2.03-.9422-2.97836-1.54447-4.78186a1.45785,1.45785,0,0,1,.02256.63055.8229.8229,0,0,1-.23892.40683,1.77038,1.77038,0,0,1-.39362.24152c-.14523.05206-.27335.09692-.37308.13568a1.28612,1.28612,0,0,0-.62729.63226,2.9951,2.9951,0,0,0-.15481,1.6286,20.72735,20.72735,0,0,0,.76611,3.41693,33.7774,33.7774,0,0,0,1.86588,5.189C345.60352,254.32461,346.23752,255.03671,346.708,255.141Zm-156.4767,95.66613c-.57744-.02571-.99269-.99415-1.28293-2.93641-.28982-1.94892-.46405-4.56188-.63551-7.80167-.17066-3.23332-.325-6.858-.48616-10.78152-.16367-3.98329-.28391-7.3564-.26914-10.19919a36.02046,36.02046,0,0,1,.45481-6.35146c.28816-1.506.69977-2.34542,1.25679-2.35995.43449-.01132.87315.50592,1.29887,1.37955a17.34959,17.34959,0,0,1,1.17177,3.73034,48.8577,48.8577,0,0,1,.86166,5.952l-.98014-.00345a28.084,28.084,0,0,0-.81272-4.46271c-.34161-1.22-.72577-1.82388-1.14448-1.81872-.36969.00456-.64782.54181-.84165,1.61606a30.36381,30.36381,0,0,0-.29,4.77432c-.00823,2.09364.07295,4.59356.19716,7.55856.12723,3.037.25508,5.76054.40716,8.11722.15487,2.35676.32318,4.22676.55417,5.5749.23307,1.34171.523,2.03185.89733,2.04667.24708.00979.48582-.27379.71145-.85465a12.42873,12.42873,0,0,0,.59424-2.50415,35.34361,35.34361,0,0,0,.34564-3.89181c.38922.01228.58541.01843.9809.03068a53.15481,53.15481,0,0,1-.54035,6.66411,25.75211,25.75211,0,0,1-1.11792,4.80434C191.13588,350.26239,190.68628,350.82736,190.23128,350.80709Zm6.666.27587c-.61906-.02382-1.08305-.95743-1.42267-2.86385a74.92606,74.92606,0,0,1-.74719-7.73427c-.19827-3.24382-.36331-6.96636-.53125-11.06793-.16917-4.13171-.28448-7.60316-.24384-10.48771a31.99584,31.99584,0,0,1,.57209-6.37928c.33963-1.48733.808-2.31955,1.42653-2.33313.61746-.01355,1.23446.79554,1.82608,2.28092a30.92352,30.92352,0,0,1,1.60785,6.42,87.457,87.457,0,0,1,1.03244,10.61345,79.97137,79.97137,0,0,1-.2501,11.12349,38.55107,38.55107,0,0,1-1.4376,7.685C198.137,350.21687,197.51522,351.10673,196.89725,351.083Zm.36336-5.99487c.46962.01619.90129-.72269,1.25552-2.20079a34.27276,34.27276,0,0,0,.76126-5.79171c.13906-2.36989.15593-4.9051.046-7.58375-.10961-2.67215-.32785-5.114-.62209-7.33142a31.85346,31.85346,0,0,0-1.05914-5.25864c-.40021-1.23268-.84047-1.847-1.30957-1.8423-.47015.00471-.80483.62541-1.01111,1.85818a34.2474,34.2474,0,0,0-.29123,5.22359c.0018,2.19884.07195,4.61954.18068,7.275.109,2.662.23866,5.18753.39145,7.55661s.33543,4.322.58989,5.81774C196.44573,344.3063,196.78992,345.07187,197.26061,345.08809Zm5.7866-19.76a167.22485,167.22485,0,0,1-.072,25.07294c-.45735-.01547-.68434-.02324-1.135-.03885a317.08149,317.08149,0,0,0-.97275-39.70651c.4346-.00809.65344-.01212,1.09419-.02008.1713,2.18283.26,3.29579.42376,5.483l.09658-.00063a20.4425,20.4425,0,0,1,.46733-4.31285c.27347-1.10162.68694-1.7413,1.26494-1.75149.51731-.00913,1.02133.55,1.49254,1.52868a18.41048,18.41048,0,0,1,1.26636,4.41811,67.719,67.719,0,0,1,.89159,8.0444,171.21185,171.21185,0,0,1,.00833,26.51437c-.48577-.015-.72689-.02247-1.20574-.03756a169.99094,169.99094,0,0,0,.01724-26.078,37.56341,37.56341,0,0,0-.9569-7.09016c-.43668-1.64029-.92263-2.3476-1.46486-2.3435-.37354.00283-.67636.37774-.91109,1.12941a14.24941,14.24941,0,0,0-.42645,3.44152C202.87,321.13491,202.91777,323.04162,203.04721,325.32806Zm9.66948-14.86053c.14673,1.86831.22164,2.81366.363,4.67218-1.74464.00851-2.59686.01318-4.2624.02317-.14029-1.84741-.21449-2.78476-.35957-4.63493C210.122,310.50283,210.97351,310.49072,212.71669,310.46753Zm-3.84408-10.30988c.49985-.01181.75146-.01767,1.25821-.02924,1.00561,12.71853,2.193,25.449,2.27765,38.217-.00084,1.82315.02269,3.20711.10423,4.13338a6.27873,6.27873,0,0,0,.3524,1.843q.239.45768.52123.46532a.55622.55622,0,0,0,.35487-.1026c.09523-.09578.17146-.16586.22914-.22334.01382,2.36905-.01961,3.63533-.07707,6.04671a2.6539,2.6539,0,0,1-.40256.50152.78346.78346,0,0,1-.616.26138c-.36319-.01019-.68736-.42141-.97843-1.24659a17.21236,17.21236,0,0,1-.61905-3.78171c-.13736-1.64886-.16976-3.71811-.14318-6.16978C211.17778,326.73248,209.90682,313.44355,208.87261,300.15765Zm10.34564,51.619c-.86122-.02148-1.52559-.94076-2.01851-2.84445a51.67109,51.67109,0,0,1-1.0692-7.80325c-.26722-3.29-.47215-7.06246-.64686-11.2482-.17447-4.17973-.26044-7.75786-.15923-10.79161a27.91333,27.91333,0,0,1,.85388-6.73473c.46356-1.60759,1.08461-2.49308,1.88619-2.50245.46246-.00541.95469.37747,1.46107,1.0072a10.53871,10.53871,0,0,1,1.49744,3.07194,34.26843,34.26843,0,0,1,1.34148,5.7278,83.731,83.731,0,0,1,.91961,9.483c.04918,1.06722.07131,1.6035.10895,2.68093-2.85135-.04442-4.23015-.06659-6.89848-.111-.07457-2.18564-.12615-3.26768-.24378-5.4059,2.12557.02367,3.21668.03568,5.45792.06012a46.99112,46.99112,0,0,0-.69522-6.04332,16.82574,16.82574,0,0,0-1.15409-4.02211c-.43539-.90948-.90248-1.37239-1.39663-1.37051-.54305.002-.96741.55148-1.27806,1.63212a20.46179,20.46179,0,0,0-.567,4.51332c-.07687,1.89194-.04834,3.94748.06738,6.17815.07436,1.43362.10777,2.15587.16286,3.6105.11732,3.09722.26779,5.77927.48993,8.00171a27.39047,27.39047,0,0,0,.87227,5.08846c.37336,1.16116.82455,1.75253,1.38006,1.76543.36034.00837.699-.22756,1.01261-.70672a7.64718,7.64718,0,0,0,.84846-2.21521,24.57966,24.57966,0,0,0,.55719-3.69918c.54.71688.80991,1.0764,1.34929,1.79748a33.82883,33.82883,0,0,1-.91113,5.67276,15.45924,15.45924,0,0,1-1.48847,3.894C220.40555,351.35989,219.82288,351.79178,219.21825,351.77668Zm7.512-26.20626a168.98059,168.98059,0,0,1-.03932,25.47848c-.58743-.01285-.87927-.01932-1.45918-.03232a322.71014,322.71014,0,0,0-1.06314-40.67628c.55713-.005.8374-.00751,1.4014-.01233.18281,2.29819.27626,3.461.447,5.70618l.12364-.00013a17.78433,17.78433,0,0,1,.67255-4.4707c.36787-1.15155.90788-1.80716,1.64476-1.813.65951-.00528,1.28886.57279,1.87435,1.60062a16.71693,16.71693,0,0,1,1.53856,4.5869,59.07661,59.07661,0,0,1,1.02278,8.32014,172.7269,172.7269,0,0,1,.06376,26.92056c-.61918-.01211-.92682-.0182-1.53829-.0305a171.54238,171.54238,0,0,0-.032-26.48186,32.70143,32.70143,0,0,0-1.1231-7.34625c-.5309-1.70288-1.13623-2.417-1.82824-2.41592q-.715.00108-1.18307,1.15658a12.04407,12.04407,0,0,0-.60086,3.56334A52.30544,52.30544,0,0,0,226.7303,325.57042Zm12.49181-15.32973c.15942,1.957.24,2.94092.39087,4.85-2.1992-.002-3.27652-.00238-5.38788-.00209-.14859-1.901-.22783-2.87848-.38438-4.82034C235.9496,310.25579,237.02562,310.25024,239.22211,310.24069Zm-4.67963-10.50443c.63181-.00634.94959-.00943,1.589-.01541,1.06065,13.02045,2.32367,26.055,2.45424,39.12807a40.32352,40.32352,0,0,0,.1533,4.171,5.19364,5.19364,0,0,0,.46288,1.853.85961.85961,0,0,0,.66432.46546.83329.83329,0,0,0,.44751-.10457c.11931-.09662.21489-.16735.28717-.22533.04274,2.38027.01707,3.671-.00658,6.08319a2.79779,2.79779,0,0,1-.49839.50351,1.11518,1.11518,0,0,1-.77355.26448c-.45975-.008-.8798-.41493-1.26459-1.2407a14.01641,14.01641,0,0,1-.84469-3.80968,51.21333,51.21333,0,0,1-.2358-6.21153C236.67923,326.91644,235.63591,313.37371,234.54248,299.73626Zm18.6619,52.67092c-1.05364-.01395-1.90761-.91745-2.5703-2.8606a40.44612,40.44612,0,0,1-1.49331-7.86723c-.38317-3.31416-.657-7.15376-.86219-11.46526a109.91076,109.91076,0,0,1-.0942-11.20425,22.28448,22.28448,0,0,1,1.24678-6.85037c.64012-1.62291,1.471-2.51168,2.515-2.5129s2.04044.88581,2.96069,2.51844a23.89689,23.89689,0,0,1,2.386,6.89573,69.85765,69.85765,0,0,1,1.40793,11.28014,60.16831,60.16831,0,0,1-.41113,11.46809,27.66751,27.66751,0,0,1-2.14118,7.81369C255.24576,351.54435,254.258,352.42112,253.20438,352.40718Zm.35988-6.0754c.79817.011,1.5052-.73846,2.06277-2.24061a23.4883,23.4883,0,0,0,1.18973-5.914,56.55661,56.55661,0,0,0,.12434-7.85813,62.49462,62.49462,0,0,0-.852-7.75709,23.8884,23.8884,0,0,0-1.57724-5.67894c-.616-1.28652-1.33313-1.9558-2.12572-1.95822-.79435-.00243-1.38791.66177-1.79135,1.94316a23.04352,23.04352,0,0,0-.69,5.64373c-.0717,2.361-.02434,4.93477.1094,7.72364q.20111,4.1935.598,7.8556a33.27025,33.27025,0,0,0,1.07438,5.94524C252.15145,345.553,252.76432,346.3208,253.56426,346.33178ZM262.8,325.9365a167.57277,167.57277,0,0,1,.07651,25.70028c-.68094-.0087-1.02329-.0131-1.71176-.022a321.38736,321.38736,0,0,0-1.30814-41.40718c.6626.00073.99213.00119,1.6478.00223.20459,2.409.30774,3.61779.49475,5.905l.14352.00082a17.10392,17.10392,0,0,1,.79-4.60249c.42246-1.19586,1.03681-1.86127,1.85428-1.85931.7316.00177,1.41864.5982,2.05142,1.67372a17.133,17.133,0,0,1,1.65778,4.73447,59.84359,59.84359,0,0,1,1.11087,8.55252,170.866,170.866,0,0,1,.18124,27.10887c-.6499-.008-.97671-.01206-1.634-.02024a169.767,169.767,0,0,0-.14914-26.67656,32.48537,32.48537,0,0,0-1.23367-7.56962c-.57987-1.75859-1.24091-2.47232-2.01355-2.477-.5322-.0032-.97769.3906-1.3371,1.17118a11.22169,11.22169,0,0,0-.69928,3.66581A47.35256,47.35256,0,0,0,262.8,325.9365Zm18.82279,26.81273c-.80747-.00882-1.471-.86911-1.984-2.76045a51.52273,51.52273,0,0,1-1.16352-7.804c-.31787-3.32335-.57186-7.22516-.80361-11.68818-.22944-4.41787-.35184-8.21145-.25126-11.39419a26.37694,26.37694,0,0,1,.91141-6.87c.492-1.62848,1.13934-2.50955,1.95221-2.50354.62851.00467,1.1629.48447,1.59635,1.338a13.95483,13.95483,0,0,1,1.07257,2.83821c.28015,1.0291.49978,1.85628.65936,2.49077l.12268.00145c-.602-7.22154-.99628-11.96407-1.78861-20.824.57941.00473.86734.00717,1.43985.0123,1.62079,18.84833,3.32163,37.39186,2.651,56.32939-.55465-.00624-.83355-.00938-1.39477-.01575.1662-2.63048.28-4.08191.37006-6.70445l-.172-.00243c-.13385.78069-.32578,1.75686-.59265,2.94269a17.58622,17.58622,0,0,1-1.05408,3.27417C282.76679,352.323,282.24393,352.756,281.62281,352.74923Zm.56332-6.033c.59671.008,1.132-.67161,1.58084-2.03472a25.55516,25.55516,0,0,0,.97934-5.72284,66.2356,66.2356,0,0,0,.03647-8.45643,75.187,75.187,0,0,0-.85419-8.213,24.93544,24.93544,0,0,0-1.3504-5.40386c-.50043-1.15835-1.05441-1.765-1.65732-1.77145-.62793-.00672-1.10171.62367-1.42566,1.832a25.44815,25.44815,0,0,0-.50915,5.516c-.03052,2.34172.05267,4.99083.208,7.94925q.23607,4.49553.59342,8.21509a41.85975,41.85975,0,0,0,.90954,5.9006C281.07947,345.97523,281.56574,346.708,282.18613,346.71624Zm6.64319,5.22985a315.44468,315.44468,0,0,0-1.38422-41.59056c.55951.00564.8375.00851,1.39014.0144a314.99425,314.99425,0,0,1,1.38617,41.59146C289.668,351.95533,289.38965,351.95227,288.82932,351.94609Zm-1.31766-49.02025c-.27075-.00311-.54239-.45676-.81488-1.34985a15.74376,15.74376,0,0,1-.56113-3.15983,16.66376,16.66376,0,0,1-.00213-3.30368c.11569-.90438.3099-1.33667.58047-1.33386s.54019.43979.814,1.34863a17.0703,17.0703,0,0,1,.58514,3.31193,14.50822,14.50822,0,0,1-.02127,3.15289C287.97486,302.48071,287.78241,302.929,287.51166,302.92584Zm10.61179,16.24594c-.40369.646-.60709.969-1.01728,1.61525-.15051-.9601-.338-1.92587-.55221-2.80493a8.29629,8.29629,0,0,0-.74463-2.06636c-.2865-.53215-.62091-.81034-1.00317-.81627-.52189-.00812-.91526.52476-1.18143,1.55319a13.80929,13.80929,0,0,0-.17255,4.28829,16.85445,16.85445,0,0,0,.65406,3.79916,6.83771,6.83771,0,0,0,1.28509,2.34323c.55038.621.82336.93193,1.36456,1.55388a9.88021,9.88021,0,0,1,1.90494,4.23088,32.20521,32.20521,0,0,1,.73059,7.24481,34.31406,34.31406,0,0,1-.54315,6.49632,18.44886,18.44886,0,0,1-1.42419,4.65155c-.56437,1.11528-1.17576,1.63927-1.83982,1.6328-.87317-.00851-1.54855-.90072-2.00912-2.87834a48.055,48.055,0,0,1-.78809-8.357c.52054-.61152.77756-.91695,1.28543-1.52741a29.40226,29.40226,0,0,0,.60572,5.14957c.29943,1.146.70837,1.72247,1.24737,1.72967.61362.00818,1.13178-.62681,1.52963-1.90966a15.80644,15.80644,0,0,0,.611-4.6812,16.85859,16.85859,0,0,0-.35593-3.69474,5.10076,5.10076,0,0,0-1.0173-2.27082c-.59137-.67153-.89045-1.00736-1.49491-1.67852a10.30081,10.30081,0,0,1-1.98279-4.28267,44.72022,44.72022,0,0,1-1.08053-7.24832,36.69748,36.69748,0,0,1-.0737-5.94461,14.232,14.232,0,0,1,.801-3.93408c.39749-.9713.89264-1.50255,1.49256-1.4948.84515.0109,1.57852.938,2.199,2.64617A33.0254,33.0254,0,0,1,298.12345,319.17178Zm5.88516,33.8008c-.735-.00663-1.31979-.88576-1.73633-2.85482a66.18626,66.18626,0,0,1-.92718-7.8529c-.25876-3.28414-.48911-7.03819-.71314-11.24895-.22742-4.27487-.379-8.03813-.344-11.28839a33.3233,33.3233,0,0,1,.66852-7.08548c.39221-1.73088.93676-2.66164,1.64456-2.64983.551.00916,1.093.58579,1.61764,1.62763a20.60647,20.60647,0,0,1,1.42832,4.257,52.3069,52.3069,0,0,1,1.05484,6.63022c-.46537-.01023-.69959-.01532-1.1713-.02547a29.19785,29.19785,0,0,0-1.016-5.05608c-.41519-1.28457-.89127-1.97752-1.4219-1.98761-.46952-.00891-.83362.58266-1.09809,1.70937a28.1494,28.1494,0,0,0-.39508,5.3871c-.01385,2.34915.09314,5.10879.26541,8.28862.17646,3.25709.3602,6.09689.57666,8.51906a45.01447,45.01447,0,0,0,.76984,5.65034c.31482,1.33991.6954,2.01528,1.17221,2.02176.31271.00426.61063-.28163.88834-.86368a10.31068,10.31068,0,0,0,.72079-2.51252,29.17381,29.17381,0,0,0,.39993-3.94474c.472.009.7063.01348,1.17188.02243a43.62957,43.62957,0,0,1-.60959,6.70359,23.072,23.072,0,0,1-1.32849,4.84547C305.12369,352.43513,304.58676,352.9778,304.00861,352.97258Zm7.668.06657c-.64511-.00539-1.16577-.84242-1.53815-2.74953a71.62082,71.62082,0,0,1-.82419-7.69458c-.23632-3.25354-.4526-7.05769-.68567-11.40541-.23477-4.3797-.40835-8.20743-.39685-11.46292a34.862,34.862,0,0,1,.57236-7.01312c.3512-1.68472.84549-2.59155,1.49146-2.57822s1.28412.94358,1.90518,2.65268a37.69091,37.69091,0,0,1,1.70181,7.0689,107.37415,107.37415,0,0,1,1.21671,11.489,76.77239,76.77239,0,0,1-.13327,11.35144,36.75438,36.75438,0,0,1-1.45484,7.63083C312.93146,352.2196,312.32175,353.04455,311.67664,353.03915Zm.3822-5.91957c.49063.00684.93436-.722,1.29453-2.18713a31.73292,31.73292,0,0,0,.74664-5.79752,75.18457,75.18457,0,0,0-.04355-7.8156c-.151-2.80687-.415-5.433-.75278-7.86822a38.65053,38.65053,0,0,0-1.16708-5.86626c-.41888-1.28058-.87695-1.97612-1.3678-1.98726s-.83969.66532-1.05481,1.93367a37.79654,37.79654,0,0,0-.24145,5.82727c.03308,2.42578.14432,5.04782.295,7.85745q.22668,4.22475.50034,7.83982a58.29468,58.29468,0,0,0,.663,5.83771C311.20536,346.37219,311.56821,347.11276,312.05884,347.11958Zm4.433,5.10628a302.76118,302.76118,0,0,0-1.38049-41.423c.39816.00925.59586.01392.9884.02326.21354,2.448.319,3.659.50687,5.87715l.06967.00178a26.38071,26.38071,0,0,1,.2507-4.62913c.20551-1.22893.49607-1.89378.88208-1.884a1.65154,1.65154,0,0,1,.27518.04086.69476.69476,0,0,1,.25385.08762c.24481,2.77576.33566,3.84312.532,6.15588a1.78534,1.78534,0,0,0-.24829-.22157.59833.59833,0,0,0-.38718-.18089c-.31357-.00842-.5625.37257-.75,1.10272a15.7926,15.7926,0,0,0-.30746,3.36733c-.02094,1.47828.04291,3.1638.183,5.06787a159.77414,159.77414,0,0,1,.15229,26.62359Zm6.49909.90292c-.50354-.0038-.903-.80249-1.17123-2.64612-.26636-1.85679-.39258-4.36451-.56711-7.58287-.17325-3.23744-.35953-7.06721-.60175-11.51634-.23981-4.40413-.4454-8.24643-.49-11.49931a41.28228,41.28228,0,0,1,.34943-6.93413c.25274-1.66539.63012-2.5557,1.14071-2.54154.39478.011.74481.49112,1.04642,1.375a21.66629,21.66629,0,0,1,.76895,2.90977c.21054,1.04363.37326,1.86966.49274,2.49822l.07641.00229c-.60315-7.14476-1.00888-11.84484-1.80987-20.78606.36182.01315.54129.01975.89743.033,1.6347,18.692,3.427,37.0891,2.63312,55.86937l-.86328-.00774c.17181-2.51571.309-3.96191.41491-6.49763l-.10684-.00183c-.09805.7552-.23889,1.69821-.44092,2.8401a25.88083,25.88083,0,0,1-.75479,3.19724C323.715,352.72059,323.379,353.1317,322.99091,353.12878Zm.522-5.84514c.373.00554.72714-.651,1.02912-1.97191a33.21426,33.21426,0,0,0,.65216-5.57011,82.78508,82.78508,0,0,0-.08231-8.33829c-.17172-3.1232-.44455-5.87831-.75986-8.24212a38.87645,38.87645,0,0,0-1.02182-5.49427c-.34933-1.143-.71634-1.76089-1.0946-1.772-.39411-.01161-.67081.62285-.83759,1.80933a40.97515,40.97515,0,0,0-.13766,5.60836c.05554,2.37369.18744,5.04074.34939,7.9889q.24606,4.47992.47953,8.11871c.1611,2.40965.32144,4.3221.53549,5.75044C322.84159,346.57368,323.12506,347.27787,323.51288,347.28364ZM170.45017,441.27736a202.96681,202.96681,0,0,0,30.56807-46.42342c.53236.02046.80055.03058,1.34088.05055a140.72041,140.72041,0,0,1-12.049,22.73822c2.39.10262,3.62374.15067,6.17267.239A143.17784,143.17784,0,0,0,208.50115,395.112c.576.0177.8661.02641,1.45041.04356a205.88994,205.88994,0,0,1-30.49532,46.61074c-.58952-.02723-.88214-.04112-1.46318-.06943,5.1019-5.71942,11.23384-12.62527,15.695-19.42824-2.55888-.0863-3.7975-.13359-6.197-.23518-4.51211,6.82194-10.57167,13.64842-15.69005,19.327C171.25661,441.32767,170.98644,441.31105,170.45017,441.27736ZM184.402,442.7009c-.61-.023-.80391-.42125-.72075-1.08085a13.64958,13.64958,0,0,1,1.74437-3.30772,56.88591,56.88591,0,0,1,4.02254-5.31439c1.62308-1.9769,3.11963-3.7314,4.38359-5.08831a22.878,22.878,0,0,1,2.9092-2.721,11.72478,11.72478,0,0,1,2.25343-1.45044,13.32363,13.32363,0,0,1,1.85014-.72313q1.11476-.32625,1.77533-.47752a2.93881,2.93881,0,0,0,1.218-.61019,8.05315,8.05315,0,0,0,1.3554-1.70193l.09161-.14651a20.94012,20.94012,0,0,0,2.28961-4.60938c.35947-1.1842.20812-1.82451-.47249-1.84317-.70559-.01933-1.57876.53087-2.60913,1.58534a35.95809,35.95809,0,0,0-2.80963,3.23412c-.16311-.64276-.23854-.97334-.37945-1.65145a60.98538,60.98538,0,0,1,3.80594-4.76763,16.02928,16.02928,0,0,1,2.82278-2.58506,3.67088,3.67088,0,0,1,1.90034-.75187,1.0902,1.0902,0,0,1,.82435.47651,2.39974,2.39974,0,0,1,.22883,1.7572,14.87372,14.87372,0,0,1-1.17813,3.76,44.9636,44.9636,0,0,1-3.17357,5.86656c-4.57147,7.30175-11.38806,15.21615-16.9886,21.60034-.61513-.01869-.92064-.02832-1.52776-.04814,1.15174-1.31021,2.28678-2.53683,3.61222-4.10553l-.07682-.00232c-.6334.62536-1.35261,1.268-2.30981,2.063a18.25637,18.25637,0,0,1-2.70856,1.92936A4.85559,4.85559,0,0,1,184.402,442.7009Zm3.99019-4.20453a4.27389,4.27389,0,0,0,2.35849-.97793,25.12381,25.12381,0,0,0,3.41838-2.93713,48.50529,48.50529,0,0,0,3.73238-4.19092c1.6483-2.076,2.31646-2.96776,3.74032-4.89206a4.57412,4.57412,0,0,1-.97989.73575,7.38779,7.38779,0,0,1-1.15292.529c-.37106.124-.72372.23-1.06154.327q-.48477.12513-.79451.21344a6.24789,6.24789,0,0,0-1.70454.80145,15.75265,15.75265,0,0,0-2.31006,1.91468,39.98855,39.98855,0,0,0-2.96744,3.29434,18.06622,18.06622,0,0,0-2.74484,3.96948C187.62421,438.10092,187.80266,438.47584,188.39223,438.49637Zm30.53583-21.24968c-.89.48259-1.33162.71907-2.20777,1.18206a19.75516,19.75516,0,0,0,.84816-2.096,5.18236,5.18236,0,0,0,.3485-1.82084.68452.68452,0,0,0-.73268-.75175,4.01135,4.01135,0,0,0-2.42859,1.4082,16.57364,16.57364,0,0,0-2.642,3.35007,10.29084,10.29084,0,0,0-1.255,2.71661,1.79679,1.79679,0,0,0,.26283,1.73963,12.00761,12.00761,0,0,1,.81438,1.12936c.4674.70246.21554,2.01276-.30455,3.35791a28.98227,28.98227,0,0,1-4.09911,6.12593,44.39409,44.39409,0,0,1-4.66894,4.96906,28.62965,28.62965,0,0,1-4.39493,3.32123,6.61718,6.61718,0,0,1-3.16851,1.06886c-1.07557-.02372-1.541-.50507-.87974-2.029a29.15134,29.15134,0,0,1,3.88966-6.124c1.00933-.48589,1.5136-.72843,2.52664-1.21879a18.7478,18.7478,0,0,0-2.49781,4.00144c-.27857.82187-.05149,1.19545.61052,1.20894a5.09336,5.09336,0,0,0,2.92717-1.30222,21.94707,21.94707,0,0,0,3.72155-3.64947,17.02321,17.02321,0,0,0,2.10645-3.107,2.58871,2.58871,0,0,0,.365-2.00578,5.425,5.425,0,0,0-.753-1.34581c-.475-.66661-.19413-1.94161.37113-3.39008a34.50937,34.50937,0,0,1,2.7075-5.26141,47.57359,47.57359,0,0,1,3.36106-4.805,26.76478,26.76478,0,0,1,3.41748-3.63652,4.59192,4.59192,0,0,1,2.72149-1.36306c1.03376.01879,1.40538.8805,1.12052,2.47223A23.95739,23.95739,0,0,1,218.92806,417.24669Zm10.74106.08139c-.93137.48388-1.39356.72088-2.31031,1.18463a17.65862,17.65862,0,0,0,.79345-2.07543,4.64417,4.64417,0,0,0,.27825-1.80455.74537.74537,0,0,0-.82768-.739,4.21632,4.21632,0,0,0-2.54875,1.4153,15.44226,15.44226,0,0,0-2.66208,3.33226,9.20566,9.20566,0,0,0-1.19021,2.6933,1.70048,1.70048,0,0,0,.38075,1.72688,11.92336,11.92336,0,0,1,.94481,1.11492c.54233.69656.3257,2.02518-.15848,3.37239a26.88571,26.88571,0,0,1-4.01784,6.10384,43.16114,43.16114,0,0,1-4.71461,5.006,28.522,28.522,0,0,1-4.4968,3.34836,7.18933,7.18933,0,0,1-3.33853,1.10172c-1.16251-.0105-1.70567-.48288-1.10046-2.0096a25.90052,25.90052,0,0,1,3.77792-6.14559c1.05811-.49579,1.58623-.74255,2.64644-1.24051a17.15151,17.15151,0,0,0-2.4363,4.01882c-.2458.82455.02376,1.19549.73922,1.20123a5.44411,5.44411,0,0,0,3.075-1.33508,21.38992,21.38992,0,0,0,3.7801-3.67987,15.72022,15.72022,0,0,0,2.06411-3.10079,2.31925,2.31925,0,0,0,.25775-1.98378,6.03584,6.03584,0,0,0-.89838-1.327c-.54864-.66061-.30386-1.95579.22684-3.40739a31.21678,31.21678,0,0,1,2.61517-5.24042,42.904,42.904,0,0,1,3.3618-4.77959,25.81824,25.81824,0,0,1,3.50814-3.639,4.93335,4.93335,0,0,1,2.87593-1.377c1.11625.01079,1.553.866,1.322,2.44922A21.893,21.893,0,0,1,229.66912,417.32808ZM245.548,395.70457a212.23147,212.23147,0,0,1-30.09,46.80179c-.72108.00084-1.09147.00092-1.82661.00037a212.06576,212.06576,0,0,0,30.11-46.80977C244.46662,395.70036,244.83188,395.70187,245.548,395.70457ZM222.90041,443.102c-1.07266.01054-1.61961-.43606-1.13652-1.88055a23.97858,23.97858,0,0,1,2.94241-5.6637c1.73538-2.62341,4.00417-5.74025,6.77082-9.44441,2.76266-3.69884,4.223-6.00832,6.06111-8.38275a59.48608,59.48608,0,0,1,5.318-6.1333c1.65417-1.60434,2.9971-2.469,3.9973-2.47077a1.18507,1.18507,0,0,1,1.1671.98,6.36559,6.36559,0,0,1-.183,3.04447,28.09409,28.09409,0,0,1-1.79875,4.94268,35.25914,35.25914,0,0,1-4.1876,7.17612c-.67059.91473-1.09208,1.45729-1.67773,2.24707-3.32506.04541-5.03529.06192-8.55531.08084,1.18951-1.60785,2.16662-2.859,3.18413-4.41423,2.81373-.02228,4.189-.0376,6.8787-.07582a27.03882,27.03882,0,0,0,2.39795-4.49881,10.291,10.291,0,0,0,.86688-3.23125c.03609-.83175-.24145-1.27317-.85833-1.2707a4.654,4.654,0,0,0-2.64786,1.52171,31.97807,31.97807,0,0,0-3.27519,3.59c-1.096,1.37579-2.14167,2.9359-3.33249,4.671-.76532,1.11513-1.46745,2.013-2.24736,3.0784-1.66051,2.26834-3.62207,4.906-4.7943,6.7153a14.50551,14.50551,0,0,0-2.0302,3.97083c-.16421.82844.139,1.19514.82935,1.18824a3.65121,3.65121,0,0,0,1.62364-.509,13.57875,13.57875,0,0,0,2.28383-1.63481,38.41,38.41,0,0,0,3.04306-2.97315c.1844.56366.2674.85112.43639,1.4152a45.82161,45.82161,0,0,1-4.29485,4.17283,28.61941,28.61941,0,0,1-3.95769,2.85831A6.80756,6.80756,0,0,1,222.90041,443.102Zm13.19359-.86218a213.62177,213.62177,0,0,0,29.95468-46.57172c3.23819-.02522,4.807-.0417,7.84894-.08136-1.10291,2.58107-1.684,3.8391-2.85337,6.25629-2.42608.03555-3.66977.051-6.22076.07638a176.97819,176.97819,0,0,1-8.853,16.28132c2.3216-.04863,3.45612-.07583,5.67438-.13535-.97305,1.63834-1.60718,2.67537-2.566,4.21529-2.22557.07086-3.36383.10353-5.693.16269-4.029,6.46333-10.71749,13.90083-15.65927,19.75275C237.07769,442.21418,236.75118,442.22292,236.094,442.23979Zm10.20819-.33533c8.86069-10.16635,16.8016-20.59215,23.14551-32.52278.55294-.01117.82769-.01691,1.37405-.02866-1.22327,2.247-1.82724,3.30756-2.95789,5.26221l.0972-.00258a35.41887,35.41887,0,0,1,3.24753-4.15927c1.05487-1.12942,1.85977-1.73184,2.399-1.74448a3.22813,3.22813,0,0,1,.36487.01975.9211.9211,0,0,1,.30755.06058c-1.27057,2.34515-1.89914,3.45109-3.07324,5.48359a.824.824,0,0,0-.2128-.17988.598.598,0,0,0-.43472-.13553,3.26265,3.26265,0,0,0-1.754,1.02335,21.2295,21.2295,0,0,0-2.31232,2.5601,36.5528,36.5528,0,0,0-2.40387,3.48727c-5.63031,8.97326-11.13244,14.62278-16.35572,20.81694C247.16449,441.86932,246.87827,441.8812,246.30219,441.90446Zm9.03915.17747c-.82612.04671-1.16757-.36148-.501-1.79064a35.0562,35.0562,0,0,1,3.36675-5.61324c1.86267-2.63,3.99594-5.4935,6.918-9.33171,2.91791-3.8327,4.15244-5.95581,5.82312-8.23207a71.2031,71.2031,0,0,1,4.80646-5.97621c1.46848-1.58536,2.60837-2.45581,3.37924-2.47832.44349-.01294.70243.30289.78055.92583a7.97742,7.97742,0,0,1-.50918,2.93785,35.99082,35.99082,0,0,1-1.95,4.72323,34.8116,34.8116,0,0,1-4.18048,6.96827c-.70037.93467-1.15719,1.50882-1.75549,2.2975-2.548.13612-3.86429.20013-6.58548.31836,1.21393-1.61135,2.29312-2.96466,3.28342-4.47652,2.17737-.09666,3.23791-.14789,5.30508-.25536a30.81847,30.81847,0,0,0,2.37638-4.32434,13.09781,13.09781,0,0,0,1.02429-3.06062c.12387-.79095-.03846-1.20775-.51252-1.19145-.52368.018-1.27313.544-2.21636,1.51153a36.11925,36.11925,0,0,0-2.91245,3.45481c-.98248,1.30476-1.94931,2.82156-3.14606,4.54667-.76913,1.10869-1.55163,2.08985-2.3432,3.15181-1.68536,2.261-3.6098,4.78608-4.84469,6.56812a22.07152,22.07152,0,0,0-2.35312,3.95148c-.29486.821-.1373,1.17251.39361,1.14355a3.03992,3.03992,0,0,0,1.3498-.55283,15.81661,15.81661,0,0,0,2.08834-1.67948c.83927-.77683,1.854-1.81252,2.92688-2.99656.03507.53769.04059.81563.05365,1.36234-1.57257,1.74458-2.95721,3.14673-4.15158,4.23082a31.61114,31.61114,0,0,1-3.56851,2.87049A5.76576,5.76576,0,0,1,255.34134,442.08193Zm8.73227-.56645c-.75107.05531-1.03164-.34115-.31058-1.76351a40.28159,40.28159,0,0,1,3.49942-5.58512c1.90137-2.62587,3.9917-5.3995,6.96647-9.27142,2.97045-3.86637,4.13528-5.92027,5.75787-8.15674,1.63541-2.25407,3.25455-4.34721,4.65524-5.90517,1.412-1.57379,2.49173-2.44264,3.19416-2.47017.40524-.01586.62536.29456.66473.909a8.6889,8.6889,0,0,1-.606,2.89875,39.44447,39.44447,0,0,1-1.99579,4.64138,34.71921,34.71921,0,0,1-4.18249,6.88223c-.71057.939-1.17908,1.52223-1.782,2.30838-2.31671.15756-3.51556.233-5.99838.37546,1.22305-1.60756,2.33585-2.99144,3.31857-4.48435,1.98813-.11485,2.9552-.17476,4.83753-.29876a31.91694,31.91694,0,0,0,2.3688-4.25567,14.19145,14.19145,0,0,0,1.07142-2.99845c.15017-.77642.024-1.18515-.40909-1.16546-.47715.0217-1.18323.5448-2.08795,1.50086a37.9223,37.9223,0,0,0-2.80433,3.39818c-.94848,1.27684-1.89,2.77452-3.0899,4.4913-.77118,1.10335-1.58008,2.1098-2.37625,3.16739-1.6951,2.25174-3.61,4.73483-4.86463,6.504a25.67406,25.67406,0,0,0-2.45123,3.93739c-.33649.81764-.22272,1.16464.26071,1.13037a2.9009,2.9009,0,0,0,1.2688-.5623,16.86924,16.86924,0,0,0,2.0318-1.687c.82614-.77881,1.83215-1.81754,2.89652-2.99517-.01035.52953-.02851.80454-.063,1.34594-1.56812,1.74339-2.94116,3.1492-4.11164,4.236a33.27344,33.27344,0,0,1-3.45346,2.86272A5.53718,5.53718,0,0,1,264.07361,441.51548Z" transform="translate(-0.5)"/>
</svg>
