<svg width="15" height="15" viewBox="0 0 15 15" fill="none" xmlns="http://www.w3.org/2000/svg">
<path fill-rule="evenodd" clip-rule="evenodd" d="M10.5 6C10.5 6.59094 10.3836 7.17611 10.1574 7.72207C9.93127 8.26804 9.59977 8.76411 9.18197 9.182C8.76407 9.5998 8.268 9.9313 7.72203 10.1575C7.17607 10.3836 6.59091 10.5 5.99996 10.5C5.40901 10.5 4.82385 10.3836 4.27788 10.1575C3.73192 9.9313 3.23584 9.5998 2.81798 9.182C2.40011 8.76411 2.06865 8.26804 1.8425 7.72207C1.61635 7.17611 1.49996 6.59094 1.49996 6C1.49996 4.80652 1.97406 3.66193 2.81798 2.81802C3.66189 1.9741 4.80648 1.5 5.99996 1.5C7.19343 1.5 8.33802 1.9741 9.18197 2.81802C10.0259 3.66193 10.5 4.80652 10.5 6ZM9.67997 10.74C8.47434 11.676 6.95733 12.1173 5.43776 11.9741C3.91819 11.831 2.5103 11.1141 1.50071 9.9694C0.491113 8.82471 -0.0442872 7.33829 0.00349282 5.81275C0.0512828 4.2872 0.678663 2.8372 1.75791 1.75795C2.83717 0.678699 4.28716 0.0513194 5.81271 0.0035294C7.33826 -0.0442536 8.82467 0.491149 9.96937 1.50075C11.1141 2.51034 11.831 3.91823 11.9741 5.4378C12.1173 6.95736 11.676 8.47437 10.74 9.68L13.78 12.72C13.8537 12.7887 13.9128 12.8715 13.9538 12.9635C13.9948 13.0555 14.0168 13.1548 14.0186 13.2555C14.0204 13.3562 14.0018 13.4562 13.9641 13.5496C13.9264 13.643 13.8702 13.7278 13.799 13.799C13.7278 13.8703 13.643 13.9264 13.5496 13.9641C13.4562 14.0018 13.3562 14.0204 13.2555 14.0186C13.1548 14.0168 13.0554 13.9948 12.9635 13.9538C12.8715 13.9128 12.7887 13.8537 12.72 13.78L9.67997 10.74Z" fill="white"/>
</svg>
