<svg width="41" height="48" viewBox="0 0 41 48" fill="none" xmlns="http://www.w3.org/2000/svg">
<path d="M40.5 19.0318C36.8533 18.8644 33.4088 17.598 30.5785 15.5269L29.7833 14.945V15.9304V32.6956C29.7833 40.8428 23.2256 47.5 15.1417 47.5C7.05622 47.5 0.5 40.9109 0.5 32.6956C0.5 24.7216 6.65056 18.3056 14.3651 17.9086V25.1339C10.5851 25.5216 7.58938 28.7677 7.58938 32.6956C7.58938 36.8581 10.9153 40.2913 15.0725 40.2913C19.2298 40.2913 22.5556 36.8581 22.5556 32.6956V0.5H29.6553C29.9006 6.4963 34.5388 11.3658 40.5 11.8125V19.0318Z" stroke="white"/>
</svg>