<svg width="48" height="40" viewBox="0 0 48 40" fill="none" xmlns="http://www.w3.org/2000/svg">
<path d="M15.1003 39H15.1001C10.5427 39.0024 6.06795 37.8698 2.07476 35.719C2.16727 35.7204 2.25979 35.7211 2.35233 35.7213C6.89984 35.7285 11.3174 34.2048 14.8936 31.3957C15.0597 31.2652 15.1259 31.0443 15.0589 30.8439C14.9918 30.6435 14.806 30.5069 14.5947 30.5026C12.6444 30.4634 10.7549 29.8163 9.19007 28.6516C7.84636 27.6515 6.79954 26.3126 6.15231 24.7784C7.42844 24.9152 8.72158 24.8124 9.96445 24.4723C10.1879 24.4112 10.3401 24.2045 10.3322 23.9729C10.3243 23.7414 10.1583 23.5456 9.93117 23.4999C7.81458 23.0738 5.91084 21.9279 4.54358 20.257C3.32459 18.7672 2.59911 16.9421 2.45704 15.0337C3.68938 15.5879 5.0209 15.8967 6.37695 15.9398C6.59996 15.9469 6.80068 15.8053 6.86888 15.5929C6.93709 15.3804 6.85627 15.1485 6.6708 15.0244C4.69374 13.702 3.29439 11.6764 2.75714 9.35931C2.27467 7.27843 2.51999 5.10269 3.43937 3.19047C5.87148 6.02358 8.83888 8.35254 12.174 10.0423C15.7324 11.8452 19.63 12.8801 23.614 13.08C23.7706 13.0879 23.9219 13.0218 24.0225 12.9016C24.1231 12.7813 24.1615 12.6208 24.1262 12.468C23.6628 10.4637 23.8725 8.36255 24.723 6.48939C25.5734 4.61624 27.0173 3.07541 28.8313 2.10515C30.6453 1.13488 32.7284 0.789217 34.7586 1.12159C36.7887 1.45397 38.6529 2.44588 40.0628 3.94396C40.1808 4.06934 40.355 4.12519 40.5239 4.09178C42.32 3.73652 44.0576 3.14028 45.6901 2.32089C44.8952 3.93389 43.6494 5.29437 42.0907 6.22868C41.8887 6.34979 41.7986 6.5955 41.8744 6.81852C41.9503 7.04155 42.1715 7.18138 42.4055 7.15419C43.8276 6.98898 45.2261 6.67112 46.5769 6.20715C45.4849 7.56799 44.2135 8.77814 42.7954 9.80363C42.6591 9.90225 42.5815 10.0629 42.5889 10.231C42.6073 10.6453 42.6166 11.0692 42.6166 11.4838C42.6166 24.2785 32.8755 39 15.1003 39Z" stroke="white" stroke-linejoin="round"/>
</svg>