<svg width="425.2" height="74.702" viewBox="0 0 425.2 74.702" xmlns="http://www.w3.org/2000/svg"><g id="svgGroup" stroke-linecap="round" fill-rule="evenodd" font-size="9pt" stroke="#ffffff" stroke-width="0.25mm" fill="none" style="stroke:#ffffff;stroke-width:0.25mm;fill:none"><path d="M 77.3 73.501 L 67.4 73.501 L 51 23.901 L 59.3 21.001 L 72.7 63.301 L 84.9 25.201 L 94.6 25.201 L 106.5 63.301 L 119.8 21.001 L 127.8 23.901 L 111.3 73.501 L 101.4 73.501 L 89.4 34.801 L 77.3 73.501 Z M 378 73.501 L 336 73.501 L 336 3.501 L 378 3.501 L 378 11.701 L 345.5 11.701 L 345.5 33.001 L 373.5 33.001 L 373.5 41.001 L 345.5 41.001 L 345.5 65.301 L 378 65.301 L 378 73.501 Z M 425.2 73.501 L 385 73.501 L 385 66.401 L 413.7 29.301 L 385.6 29.301 L 385.6 21.501 L 424.7 21.501 L 424.7 28.401 L 396.1 65.501 L 425.2 65.501 L 425.2 73.501 Z M 31 73.501 L 21.5 73.501 L 21.5 11.901 L 0 11.901 L 0 3.501 L 52.5 3.501 L 52.5 11.901 L 31 11.901 L 31 73.501 Z M 282.8 51.201 L 246.4 51.201 A 24.088 24.088 0 0 0 247.539 56.226 Q 248.875 60.038 251.5 62.601 Q 255.7 66.701 262.6 66.701 Q 267.1 66.701 270.7 65.751 Q 274.3 64.801 277.6 63.301 L 279.7 71.001 A 40.77 40.77 0 0 1 275.365 72.627 A 51.863 51.863 0 0 1 271.6 73.651 A 38.914 38.914 0 0 1 266.508 74.47 A 52.025 52.025 0 0 1 261.5 74.701 A 28.318 28.318 0 0 1 253.754 73.695 A 21.108 21.108 0 0 1 243.75 67.551 A 23.521 23.521 0 0 1 238.545 58.011 Q 237.2 53.346 237.2 47.501 A 35.359 35.359 0 0 1 238.033 39.679 A 28.84 28.84 0 0 1 240.15 33.551 A 24.642 24.642 0 0 1 245.166 26.469 A 22.887 22.887 0 0 1 248.4 23.851 A 21.048 21.048 0 0 1 258.659 20.379 A 26.205 26.205 0 0 1 260.7 20.301 Q 268.2 20.301 273.15 23.551 Q 278.1 26.801 280.6 32.301 A 28.185 28.185 0 0 1 283.026 42.164 A 33.434 33.434 0 0 1 283.1 44.401 A 75.204 75.204 0 0 1 282.809 51.097 A 69.426 69.426 0 0 1 282.8 51.201 Z M 165.3 55.601 L 165.3 31.201 L 156.3 31.201 L 156.3 23.401 L 165.5 23.401 L 167.4 7.001 L 174.3 7.001 L 174.3 23.401 L 188.7 23.401 L 188.7 31.201 L 174.3 31.201 L 174.3 56.301 A 21.559 21.559 0 0 0 174.468 59.097 Q 174.941 62.703 176.75 64.401 Q 179.2 66.701 182.6 66.701 Q 185.1 66.701 187.35 65.901 Q 189.6 65.101 191.5 64.001 L 194 71.201 A 18.546 18.546 0 0 1 192.382 72.057 Q 191.58 72.435 190.634 72.809 A 43.365 43.365 0 0 1 188.6 73.551 Q 185.2 74.701 181.5 74.701 Q 174 74.701 169.65 69.751 A 16.116 16.116 0 0 1 166.422 63.848 Q 165.659 61.418 165.415 58.481 A 34.777 34.777 0 0 1 165.3 55.601 Z M 205 55.601 L 205 31.201 L 196 31.201 L 196 23.401 L 205.2 23.401 L 207.1 7.001 L 214 7.001 L 214 23.401 L 228.4 23.401 L 228.4 31.201 L 214 31.201 L 214 56.301 A 21.559 21.559 0 0 0 214.168 59.097 Q 214.641 62.703 216.45 64.401 Q 218.9 66.701 222.3 66.701 Q 224.8 66.701 227.05 65.901 Q 229.3 65.101 231.2 64.001 L 233.7 71.201 A 18.546 18.546 0 0 1 232.082 72.057 Q 231.28 72.435 230.334 72.809 A 43.365 43.365 0 0 1 228.3 73.551 Q 224.9 74.701 221.2 74.701 Q 213.7 74.701 209.35 69.751 A 16.116 16.116 0 0 1 206.122 63.848 Q 205.359 61.418 205.115 58.481 A 34.777 34.777 0 0 1 205 55.601 Z M 304.1 73.501 L 295.1 73.501 L 295.1 21.501 L 303.8 21.501 L 303.8 32.801 Q 305.1 29.501 307.3 26.651 Q 309.5 23.801 312.8 22.051 A 14.817 14.817 0 0 1 317.48 20.527 A 19.459 19.459 0 0 1 320.5 20.301 Q 322 20.301 323.5 20.451 A 18.972 18.972 0 0 1 324.555 20.584 Q 325.055 20.663 325.482 20.763 A 8.817 8.817 0 0 1 326 20.901 L 323.3 30.201 A 9.763 9.763 0 0 0 321.155 29.588 Q 320.059 29.401 318.8 29.401 A 12.958 12.958 0 0 0 312.17 31.246 A 15.609 15.609 0 0 0 311.75 31.501 Q 308.422 33.587 306.278 37.943 A 22.927 22.927 0 0 0 306.25 38.001 Q 304.487 41.608 304.17 46.828 A 39.09 39.09 0 0 0 304.1 49.201 L 304.1 73.501 Z M 147.3 73.501 L 138.3 73.501 L 138.3 21.501 L 147.3 21.501 L 147.3 73.501 Z M 246.3 43.901 L 274.8 43.901 A 24.355 24.355 0 0 0 274.396 39.315 Q 273.9 36.731 272.796 34.708 A 12.422 12.422 0 0 0 271 32.201 A 12.488 12.488 0 0 0 264.039 28.425 A 18.395 18.395 0 0 0 260.5 28.101 A 13.58 13.58 0 0 0 255.388 29.036 A 12.524 12.524 0 0 0 250.9 32.151 Q 247.1 36.201 246.3 43.901 Z M 138.437 10.789 A 5.973 5.973 0 0 0 142.8 12.601 A 8.175 8.175 0 0 0 144.296 12.47 A 5.647 5.647 0 0 0 147.4 10.851 Q 149.1 9.101 149.1 6.301 A 7.26 7.26 0 0 0 149.1 6.22 A 6.06 6.06 0 0 0 147.25 1.851 A 7.395 7.395 0 0 0 147.192 1.793 A 6.059 6.059 0 0 0 142.8 0.001 A 8.264 8.264 0 0 0 141.144 0.158 A 5.661 5.661 0 0 0 138.2 1.701 A 5.588 5.588 0 0 0 136.729 4.333 A 7.987 7.987 0 0 0 136.5 6.301 A 5.992 5.992 0 0 0 136.992 8.719 A 6.643 6.643 0 0 0 138.35 10.701 A 7.466 7.466 0 0 0 138.437 10.789 Z" vector-effect="non-scaling-stroke"/></g></svg>