<svg width="1071" height="1002" viewBox="0 0 1071 1002" fill="none" xmlns="http://www.w3.org/2000/svg">
    <path d="M564.358 687L486.365 687M332 451.5C332 425.667 332 359.7 332 302.5C332 231 335.642 184.5 450 184.5" stroke="white"/>
    <path d="M487 687L564.872 687M719 451.266C719 425.407 719 359.374 719 302.117C719 230.546 715.182 184 601 184" stroke="white"/>
    <path d="M214.043 1002V895.576C213.379 871.927 220.214 824.627 252.862 824.627C293.672 824.627 252.862 758.962 252.862 663.105C252.862 567.248 252.862 571.022 252.862 528" stroke="white"/>
    <path d="M293.043 1002V926.336C292.379 909.522 299.214 875.893 331.862 875.893C372.672 875.893 331.862 829.207 331.862 761.056C331.862 692.904 331.862 695.588 331.862 665" stroke="white"/>
    <path d="M370.043 1002V929.704C369.379 913.638 376.214 881.506 408.862 881.506C449.672 881.506 408.862 836.898 408.862 771.78C408.862 706.662 408.862 709.226 408.862 680" stroke="white"/>
    <path d="M448.043 1002V931.275C447.379 915.559 454.214 884.126 486.862 884.126C527.672 884.126 486.862 840.487 486.862 776.785C486.862 713.083 486.862 715.591 486.862 687" stroke="white"/>
    <path d="M525.043 1002V931.275C524.379 915.559 531.214 884.126 563.862 884.126C604.672 884.126 563.862 840.487 563.862 776.785C563.862 713.083 563.862 715.591 563.862 687" stroke="white"/>
    <path d="M603.043 1002V929.704C602.379 913.638 609.214 881.506 641.862 881.506C682.672 881.506 641.862 836.898 641.862 771.78C641.862 706.662 641.862 709.226 641.862 680" stroke="white"/>
    <path d="M681.042 1002V926.336C680.39 909.522 687.105 875.893 719.18 875.893C759.275 875.893 719.18 829.207 719.18 761.056C719.18 692.904 719.18 695.588 719.18 665" stroke="white"/>
    <path d="M759.043 1002V895.801C758.379 872.201 765.214 825.002 797.862 825.002C838.672 825.002 797.862 759.475 797.862 663.82C797.862 568.166 797.862 571.932 797.862 529" stroke="white"/>
    <path d="M332 665C265.5 642 248.5 547.5 248.5 451.5M409 680C332 665 332 623 332 451.5" stroke="white"/>
    <path d="M719 664.967C785.5 641.917 802.5 547.21 802.5 451M642 680C719 664.967 719 622.875 719 451" stroke="white"/>
    <path d="M332 665L350.5 646.5M719.5 665L700.5 646" stroke="white"/>
    <path d="M248.5 451.5C248.5 427.167 248.5 369.7 248.5 334.5C248.5 290.5 294 247 336 247" stroke="white"/>
    <path d="M802.5 451C802.5 426.607 802.5 369 802.5 333.714C802.5 289.606 757 246 715 246" stroke="white"/>
    <path d="M686.5 348.5C686.5 356.517 682.091 364.218 673.98 371.283C665.87 378.347 654.106 384.732 639.525 390.104C610.368 400.846 570.054 407.5 525.5 407.5C480.946 407.5 440.632 400.846 411.475 390.104C396.894 384.732 385.13 378.347 377.02 371.283C368.909 364.218 364.5 356.517 364.5 348.5C364.5 340.483 368.909 332.782 377.02 325.717C385.13 318.653 396.894 312.268 411.475 306.896C440.632 296.154 480.946 289.5 525.5 289.5C570.054 289.5 610.368 296.154 639.525 306.896C654.106 312.268 665.87 318.653 673.98 325.717C682.091 332.782 686.5 340.483 686.5 348.5Z" stroke="white"/>
    <path d="M450 185V2L525.5 70.8798L601 2V184.483" stroke="#FFFA87" stroke-opacity="0.74"/>
</svg>
