<svg width="2170" height="835" viewBox="0 0 2170 835" fill="none" xmlns="http://www.w3.org/2000/svg">
<path d="M545.5 0.5C545.5 424.5 709.5 535.5 984 535.5C1258.5 535.5 1579 535.5 1946.5 535.5C2240.5 535.5 2246 193 1947.5 193H1768.5" stroke="white"/>
<path d="M467.5 0.5C467.5 424.5 631.5 535.5 906 535.5C1180.5 535.5 1501 535.5 1868.5 535.5C2162.5 535.5 2168 193 1869.5 193H1690.5" stroke="white"/>
<path d="M389.5 0.5C389.5 424.5 553.5 535.5 828 535.5C1102.5 535.5 1423 535.5 1790.5 535.5C2084.5 535.5 2090 193 1791.5 193H1612.5" stroke="white"/>
<path d="M311.5 0.5C311.5 424.5 475.5 535.5 750 535.5C1024.5 535.5 1345 535.5 1712.5 535.5C2006.5 535.5 2012 193 1713.5 193H1534.5" stroke="white"/>
<path d="M234.5 0.5C234.5 424.5 398.5 535.5 673 535.5C947.5 535.5 1268 535.5 1635.5 535.5C1929.5 535.5 1935 193 1636.5 193H1457.5" stroke="white"/>
<path d="M156.5 0.5C156.5 424.5 320.5 535.5 595 535.5C869.5 535.5 1190 535.5 1557.5 535.5C1851.5 535.5 1857 193 1558.5 193H1379.5" stroke="white"/>
<path d="M79.5 0.5C79.5 424.5 243.5 535.5 518 535.5C792.5 535.5 1113 535.5 1480.5 535.5C1774.5 535.5 1780 193 1481.5 193H1302.5" stroke="white"/>
<path d="M0.5 0.5C0.5 424.5 164.5 535.5 439 535.5C713.5 535.5 1034 535.5 1401.5 535.5C1695.5 535.5 1701 193 1402.5 193H1223.5" stroke="white"/>
</svg>
