<svg width="1071" height="831" viewBox="0 0 1071 831" fill="none" xmlns="http://www.w3.org/2000/svg">
<path d="M759 830.5V648C759 642.333 759 622.2 759 587C759 543 652.5 556.5 652.5 462C652.5 367.5 759 401 759 292C759 183 760 188 871.5 188" stroke="white"/>
<path d="M681 830.5V648C681 642.333 681 622.2 681 587C681 543 574.5 556.5 574.5 462C574.5 367.5 681 401 681 292C681 183 682 188 793.5 188" stroke="white"/>
<path d="M603 830.5V648C603 642.333 603 622.2 603 587C603 543 496.5 556.5 496.5 462C496.5 367.5 603 401 603 292C603 183 604 188 715.5 188" stroke="white"/>
<path d="M525 830.5V648C525 642.333 525 622.2 525 587C525 543 418.5 556.5 418.5 462C418.5 367.5 525 401 525 292C525 183 526 188 637.5 188" stroke="white"/>
<path d="M448 830.5V648C448 642.333 448 622.2 448 587C448 543 341.5 556.5 341.5 462C341.5 367.5 448 401 448 292C448 183 449 188 560.5 188" stroke="white"/>
<path d="M370 830.5V648C370 642.333 370 622.2 370 587C370 543 263.5 556.5 263.5 462C263.5 367.5 370 401 370 292C370 183 371 188 482.5 188" stroke="white"/>
<path d="M293 830.5V648C293 642.333 293 622.2 293 587C293 543 186.5 556.5 186.5 462C186.5 367.5 293 401 293 292C293 183 294 188 405.5 188" stroke="white"/>
<path d="M214 830.5V648C214 642.333 214 622.2 214 587C214 543 107.5 556.5 107.5 462C107.5 367.5 214 401 214 292C214 183 215 188 326.5 188" stroke="white"/>
<path d="M214 830.5V648C214 642.333 214 622.2 214 587C214 543 107.5 556.5 107.5 462C107.5 367.5 214 401 214 292C214 183 215 188 326.5 188" stroke="white"/>
</svg>
