<svg width="1809" height="3167" viewBox="0 0 1809 3167" fill="none" xmlns="http://www.w3.org/2000/svg">
<path d="M1450 0C1450 853.5 1808 361.5 1808 980.5C1808 1599.5 1450 1221.5 1450 1921.5C1450 2621.5 1807.58 2262.5 1807.58 3166.5" stroke="white"/>
<path d="M1354 0C1354 853.5 1712 361.5 1712 980.5C1712 1599.5 1354 1221.5 1354 1921.5C1354 2621.5 1711.58 2262.5 1711.58 3166.5" stroke="white"/>
<path d="M1271 0C1271 853.5 1629 361.5 1629 980.5C1629 1599.5 1271 1221.5 1271 1921.5C1271 2621.5 1628.58 2262.5 1628.58 3166.5" stroke="white"/>
<path d="M1175 0C1175 853.5 1533 361.5 1533 980.5C1533 1599.5 1175 1221.5 1175 1921.5C1175 2621.5 1532.58 2262.5 1532.58 3166.5" stroke="white"/>
<path d="M1092 0C1092 853.5 1450 361.5 1450 980.5C1450 1599.5 1092 1221.5 1092 1921.5C1092 2621.5 1449.58 2262.5 1449.58 3166.5" stroke="white"/>
<path d="M993 0C993 853.5 1351 361.5 1351 980.5C1351 1599.5 993 1221.5 993 1921.5C993 2621.5 1350.58 2262.5 1350.58 3166.5" stroke="white"/>
<path d="M897 0C897 853.5 1255 361.5 1255 980.5C1255 1599.5 897 1221.5 897 1921.5C897 2621.5 1254.58 2262.5 1254.58 3166.5" stroke="white"/>
<path d="M814 0C814 853.5 1172 361.5 1172 980.5C1172 1599.5 814 1221.5 814 1921.5C814 2621.5 1171.58 2262.5 1171.58 3166.5" stroke="white"/>
<path d="M718 0C718 853.5 1076 361.5 1076 980.5C1076 1599.5 718 1221.5 718 1921.5C718 2621.5 1075.58 2262.5 1075.58 3166.5" stroke="white"/>
<path d="M635 0C635 853.5 993 361.5 993 980.5C993 1599.5 635 1221.5 635 1921.5C635 2621.5 992.575 2262.5 992.575 3166.5" stroke="white"/>
<path d="M538.5 0C538.5 853.5 896.5 361.5 896.5 980.5C896.5 1599.5 538.5 1221.5 538.5 1921.5C538.5 2621.5 896.075 2262.5 896.075 3166.5" stroke="white"/>
<path d="M455.5 0C455.5 853.5 813.5 361.5 813.5 980.5C813.5 1599.5 455.5 1221.5 455.5 1921.5C455.5 2621.5 813.075 2262.5 813.075 3166.5" stroke="white"/>
<path d="M359.5 0C359.5 853.5 717.5 361.5 717.5 980.5C717.5 1599.5 359.5 1221.5 359.5 1921.5C359.5 2621.5 717.075 2262.5 717.075 3166.5" stroke="white"/>
<path d="M276.5 0C276.5 853.5 634.5 361.5 634.5 980.5C634.5 1599.5 276.5 1221.5 276.5 1921.5C276.5 2621.5 634.075 2262.5 634.075 3166.5" stroke="white"/>
<path d="M180.5 0C180.5 853.5 538.5 361.5 538.5 980.5C538.5 1599.5 180.5 1221.5 180.5 1921.5C180.5 2621.5 538.075 2262.5 538.075 3166.5" stroke="white"/>
<path d="M97.5 0C97.5 853.5 455.5 361.5 455.5 980.5C455.5 1599.5 97.5 1221.5 97.5 1921.5C97.5 2621.5 455.075 2262.5 455.075 3166.5" stroke="white"/>
<path d="M1 0C1 853.5 359 361.5 359 980.5C359 1599.5 1 1221.5 1 1921.5C1 2621.5 358.575 2262.5 358.575 3166.5" stroke="white"/>
</svg>
