<svg xmlns="http://www.w3.org/2000/svg" width="1071" height="830" viewBox="0 0 1071 830" fill="none">
    <path d="M759 0C759 562.051 1053.07 31.0177 1069.3 532.745C1070.11 557.556 1049.97 578.178 1025.2 579.837C941.105 585.471 768 608.377 768 701.5C768 824.5 1070 829.5 1070 829.5" stroke="white"/>
    <path d="M681 0C681 562.051 975.074 31.0177 991.303 532.745C992.105 557.556 971.969 578.178 947.2 579.837C863.105 585.471 690 608.377 690 701.5C690 824.5 992 829.5 992 829.5" stroke="white"/>
    <path d="M603 0C603 562.051 897.074 31.0177 913.303 532.745C914.105 557.556 893.969 578.178 869.2 579.837C785.105 585.471 612 608.377 612 701.5C612 824.5 914 829.5 914 829.5" stroke="white"/>
    <path d="M525 0C525 562.051 819.074 31.0177 835.303 532.745C836.105 557.556 815.969 578.178 791.2 579.837C707.105 585.471 534 608.377 534 701.5C534 824.5 836 829.5 836 829.5" stroke="white"/>
    <path d="M448 0C448 562.051 742.074 31.0177 758.303 532.745C759.105 557.556 738.969 578.178 714.2 579.837C630.105 585.471 457 608.377 457 701.5C457 824.5 759 829.5 759 829.5" stroke="white"/>
    <path d="M370 0C370 562.051 664.074 31.0177 680.303 532.745C681.105 557.556 660.969 578.178 636.2 579.837C552.105 585.471 379 608.377 379 701.5C379 824.5 681 829.5 681 829.5" stroke="white"/>
    <path d="M293 0C293 562.051 587.074 31.0177 603.303 532.745C604.105 557.556 583.969 578.178 559.2 579.837C475.105 585.471 302 608.377 302 701.5C302 824.5 604 829.5 604 829.5" stroke="white"/>
    <path d="M214 0C214 562.051 508.074 31.0177 524.303 532.745C525.105 557.556 504.969 578.178 480.2 579.837C396.105 585.471 223 608.377 223 701.5C223 824.5 525 829.5 525 829.5H1070" stroke="white"/>
    <g filter="url(#filter0_b_11_26)">
        <path d="M0 424.5C0 349.665 60.6654 289 135.5 289H892.5C967.335 289 1028 349.665 1028 424.5V498C1028 543.287 991.287 580 946 580H135.5C60.6654 580 0 519.335 0 444.5V424.5Z" fill="#1E1E1E"/>
        <path d="M135.5 289.5H892.5C967.058 289.5 1027.5 349.942 1027.5 424.5V498C1027.5 543.011 991.011 579.5 946 579.5H135.5C60.9416 579.5 0.5 519.058 0.5 444.5V424.5C0.5 349.942 60.9416 289.5 135.5 289.5Z" stroke="white"/>
    </g>
    <path d="M40.3487 405.909L48.9851 430.398H49.326L57.9624 405.909H61.6555L50.9737 435H47.3374L36.6555 405.909H40.3487ZM65.7322 435V413.182H69.0845V435H65.7322ZM67.4368 409.545C66.7834 409.545 66.2199 409.323 65.7464 408.878C65.2824 408.433 65.0504 407.898 65.0504 407.273C65.0504 406.648 65.2824 406.113 65.7464 405.668C66.2199 405.223 66.7834 405 67.4368 405C68.0902 405 68.6489 405.223 69.1129 405.668C69.5864 406.113 69.8232 406.648 69.8232 407.273C69.8232 407.898 69.5864 408.433 69.1129 408.878C68.6489 409.323 68.0902 409.545 67.4368 409.545ZM84.3722 435.455C82.2699 435.455 80.4564 434.991 78.9318 434.062C77.4167 433.125 76.2472 431.818 75.4233 430.142C74.6089 428.456 74.2017 426.496 74.2017 424.261C74.2017 422.027 74.6089 420.057 75.4233 418.352C76.2472 416.638 77.393 415.303 78.8608 414.347C80.3381 413.381 82.0616 412.898 84.0312 412.898C85.1676 412.898 86.2898 413.087 87.3977 413.466C88.5057 413.845 89.5142 414.46 90.4233 415.312C91.3324 416.155 92.0568 417.273 92.5966 418.665C93.1364 420.057 93.4062 421.771 93.4062 423.807V425.227H76.5881V422.33H89.9972C89.9972 421.098 89.7509 420 89.2585 419.034C88.7756 418.068 88.0843 417.306 87.1847 416.747C86.2945 416.188 85.2434 415.909 84.0312 415.909C82.696 415.909 81.5407 416.241 80.5653 416.903C79.5994 417.557 78.8561 418.409 78.3352 419.46C77.8144 420.511 77.554 421.638 77.554 422.841V424.773C77.554 426.42 77.8381 427.817 78.4062 428.963C78.9839 430.099 79.7841 430.966 80.8068 431.562C81.8295 432.15 83.018 432.443 84.3722 432.443C85.2528 432.443 86.0483 432.32 86.7585 432.074C87.4782 431.818 88.0985 431.439 88.6193 430.938C89.1402 430.426 89.5426 429.792 89.8267 429.034L93.0653 429.943C92.7244 431.042 92.1515 432.008 91.3466 432.841C90.5417 433.665 89.5473 434.309 88.3636 434.773C87.1799 435.227 85.8494 435.455 84.3722 435.455ZM103.449 435L96.8011 413.182H100.324L105.04 429.886H105.267L109.926 413.182H113.506L118.108 429.83H118.335L123.051 413.182H126.574L119.926 435H116.631L111.858 418.239H111.517L106.744 435H103.449ZM144.415 443.182C143.847 443.182 143.34 443.134 142.895 443.04C142.45 442.955 142.142 442.869 141.972 442.784L142.824 439.83C143.638 440.038 144.358 440.114 144.983 440.057C145.608 440 146.162 439.721 146.645 439.219C147.137 438.726 147.587 437.926 147.994 436.818L148.619 435.114L140.551 413.182H144.188L150.21 430.568H150.438L156.46 413.182H160.097L150.835 438.182C150.419 439.309 149.902 440.241 149.287 440.98C148.671 441.728 147.956 442.282 147.142 442.642C146.337 443.002 145.428 443.182 144.415 443.182ZM172.604 435.455C170.634 435.455 168.906 434.986 167.419 434.048C165.942 433.111 164.786 431.799 163.953 430.114C163.129 428.428 162.717 426.458 162.717 424.205C162.717 421.932 163.129 419.948 163.953 418.253C164.786 416.558 165.942 415.241 167.419 414.304C168.906 413.366 170.634 412.898 172.604 412.898C174.573 412.898 176.297 413.366 177.774 414.304C179.261 415.241 180.416 416.558 181.24 418.253C182.073 419.948 182.49 421.932 182.49 424.205C182.49 426.458 182.073 428.428 181.24 430.114C180.416 431.799 179.261 433.111 177.774 434.048C176.297 434.986 174.573 435.455 172.604 435.455ZM172.604 432.443C174.1 432.443 175.331 432.06 176.297 431.293C177.263 430.526 177.978 429.517 178.442 428.267C178.906 427.017 179.138 425.663 179.138 424.205C179.138 422.746 178.906 421.387 178.442 420.128C177.978 418.868 177.263 417.85 176.297 417.074C175.331 416.297 174.1 415.909 172.604 415.909C171.107 415.909 169.876 416.297 168.911 417.074C167.945 417.85 167.23 418.868 166.766 420.128C166.302 421.387 166.07 422.746 166.07 424.205C166.07 425.663 166.302 427.017 166.766 428.267C167.23 429.517 167.945 430.526 168.911 431.293C169.876 432.06 171.107 432.443 172.604 432.443ZM201.357 426.08V413.182H204.71V435H201.357V431.307H201.13C200.619 432.415 199.823 433.357 198.744 434.134C197.664 434.901 196.3 435.284 194.653 435.284C193.289 435.284 192.077 434.986 191.016 434.389C189.956 433.783 189.122 432.874 188.516 431.662C187.91 430.44 187.607 428.902 187.607 427.045V413.182H190.96V426.818C190.96 428.409 191.405 429.678 192.295 430.625C193.194 431.572 194.34 432.045 195.732 432.045C196.566 432.045 197.413 431.832 198.275 431.406C199.146 430.98 199.875 430.327 200.462 429.446C201.059 428.565 201.357 427.443 201.357 426.08ZM210.849 435V413.182H214.088V416.477H214.315C214.713 415.398 215.433 414.522 216.474 413.849C217.516 413.177 218.69 412.841 219.997 412.841C220.243 412.841 220.551 412.846 220.92 412.855C221.29 412.865 221.569 412.879 221.759 412.898V416.307C221.645 416.278 221.384 416.236 220.977 416.179C220.58 416.113 220.158 416.08 219.713 416.08C218.652 416.08 217.705 416.302 216.872 416.747C216.048 417.183 215.395 417.789 214.912 418.565C214.438 419.332 214.202 420.208 214.202 421.193V435H210.849ZM246.698 413.182V416.023H234.937V413.182H246.698ZM238.46 435V410.17C238.46 408.92 238.753 407.879 239.34 407.045C239.927 406.212 240.69 405.587 241.627 405.17C242.565 404.754 243.554 404.545 244.596 404.545C245.42 404.545 246.092 404.612 246.613 404.744C247.134 404.877 247.522 405 247.778 405.114L246.812 408.011C246.641 407.955 246.405 407.884 246.102 407.798C245.808 407.713 245.42 407.67 244.937 407.67C243.829 407.67 243.029 407.95 242.536 408.509C242.053 409.067 241.812 409.886 241.812 410.966V435H238.46ZM257.192 435.511C255.809 435.511 254.554 435.251 253.428 434.73C252.301 434.2 251.406 433.438 250.743 432.443C250.08 431.439 249.749 430.227 249.749 428.807C249.749 427.557 249.995 426.544 250.487 425.767C250.98 424.981 251.638 424.366 252.462 423.92C253.286 423.475 254.195 423.144 255.189 422.926C256.193 422.699 257.201 422.519 258.214 422.386C259.54 422.216 260.615 422.088 261.439 422.003C262.272 421.908 262.878 421.752 263.257 421.534C263.645 421.316 263.839 420.937 263.839 420.398V420.284C263.839 418.883 263.456 417.794 262.689 417.017C261.931 416.241 260.781 415.852 259.237 415.852C257.637 415.852 256.382 416.203 255.473 416.903C254.564 417.604 253.925 418.352 253.555 419.148L250.374 418.011C250.942 416.686 251.699 415.653 252.646 414.915C253.603 414.167 254.644 413.646 255.771 413.352C256.908 413.049 258.025 412.898 259.124 412.898C259.824 412.898 260.629 412.983 261.538 413.153C262.457 413.314 263.342 413.651 264.195 414.162C265.056 414.673 265.771 415.445 266.339 416.477C266.908 417.509 267.192 418.892 267.192 420.625V435H263.839V432.045H263.669C263.442 432.519 263.063 433.026 262.533 433.565C262.002 434.105 261.297 434.564 260.416 434.943C259.536 435.322 258.461 435.511 257.192 435.511ZM257.703 432.5C259.029 432.5 260.146 432.24 261.055 431.719C261.974 431.198 262.665 430.526 263.129 429.702C263.603 428.878 263.839 428.011 263.839 427.102V424.034C263.697 424.205 263.385 424.361 262.902 424.503C262.429 424.635 261.879 424.754 261.254 424.858C260.639 424.953 260.037 425.038 259.45 425.114C258.873 425.18 258.404 425.237 258.044 425.284C257.173 425.398 256.358 425.582 255.601 425.838C254.853 426.084 254.247 426.458 253.783 426.96C253.328 427.453 253.101 428.125 253.101 428.977C253.101 430.142 253.532 431.023 254.393 431.619C255.265 432.206 256.368 432.5 257.703 432.5ZM290.37 413.182L282.302 435H278.893L270.825 413.182H274.461L280.484 430.568H280.711L286.734 413.182H290.37ZM302.877 435.455C300.907 435.455 299.179 434.986 297.692 434.048C296.215 433.111 295.06 431.799 294.227 430.114C293.403 428.428 292.991 426.458 292.991 424.205C292.991 421.932 293.403 419.948 294.227 418.253C295.06 416.558 296.215 415.241 297.692 414.304C299.179 413.366 300.907 412.898 302.877 412.898C304.847 412.898 306.57 413.366 308.048 414.304C309.534 415.241 310.69 416.558 311.513 418.253C312.347 419.948 312.763 421.932 312.763 424.205C312.763 426.458 312.347 428.428 311.513 430.114C310.69 431.799 309.534 433.111 308.048 434.048C306.57 434.986 304.847 435.455 302.877 435.455ZM302.877 432.443C304.373 432.443 305.604 432.06 306.57 431.293C307.536 430.526 308.251 429.517 308.715 428.267C309.179 427.017 309.411 425.663 309.411 424.205C309.411 422.746 309.179 421.387 308.715 420.128C308.251 418.868 307.536 417.85 306.57 417.074C305.604 416.297 304.373 415.909 302.877 415.909C301.381 415.909 300.15 416.297 299.184 417.074C298.218 417.85 297.503 418.868 297.039 420.128C296.575 421.387 296.343 422.746 296.343 424.205C296.343 425.663 296.575 427.017 297.039 428.267C297.503 429.517 298.218 430.526 299.184 431.293C300.15 432.06 301.381 432.443 302.877 432.443ZM317.881 435V413.182H321.119V416.477H321.347C321.744 415.398 322.464 414.522 323.506 413.849C324.547 413.177 325.722 412.841 327.028 412.841C327.275 412.841 327.582 412.846 327.952 412.855C328.321 412.865 328.6 412.879 328.79 412.898V416.307C328.676 416.278 328.416 416.236 328.009 416.179C327.611 416.113 327.189 416.08 326.744 416.08C325.684 416.08 324.737 416.302 323.903 416.747C323.08 417.183 322.426 417.789 321.943 418.565C321.47 419.332 321.233 420.208 321.233 421.193V435H317.881ZM332.763 435V413.182H336.116V435H332.763ZM334.468 409.545C333.815 409.545 333.251 409.323 332.778 408.878C332.314 408.433 332.082 407.898 332.082 407.273C332.082 406.648 332.314 406.113 332.778 405.668C333.251 405.223 333.815 405 334.468 405C335.121 405 335.68 405.223 336.144 405.668C336.618 406.113 336.854 406.648 336.854 407.273C336.854 407.898 336.618 408.433 336.144 408.878C335.68 409.323 335.121 409.545 334.468 409.545ZM351.744 413.182V416.023H340.438V413.182H351.744ZM343.733 407.955H347.085V428.75C347.085 429.697 347.223 430.407 347.497 430.881C347.781 431.345 348.141 431.657 348.577 431.818C349.022 431.97 349.491 432.045 349.983 432.045C350.352 432.045 350.655 432.027 350.892 431.989C351.129 431.941 351.318 431.903 351.46 431.875L352.142 434.886C351.915 434.972 351.598 435.057 351.19 435.142C350.783 435.237 350.267 435.284 349.642 435.284C348.695 435.284 347.767 435.08 346.858 434.673C345.958 434.266 345.21 433.646 344.614 432.812C344.027 431.979 343.733 430.928 343.733 429.659V407.955ZM365.7 435.455C363.598 435.455 361.785 434.991 360.26 434.062C358.745 433.125 357.575 431.818 356.751 430.142C355.937 428.456 355.53 426.496 355.53 424.261C355.53 422.027 355.937 420.057 356.751 418.352C357.575 416.638 358.721 415.303 360.189 414.347C361.666 413.381 363.39 412.898 365.359 412.898C366.496 412.898 367.618 413.087 368.726 413.466C369.834 413.845 370.842 414.46 371.751 415.312C372.661 416.155 373.385 417.273 373.925 418.665C374.464 420.057 374.734 421.771 374.734 423.807V425.227H357.916V422.33H371.325C371.325 421.098 371.079 420 370.587 419.034C370.104 418.068 369.412 417.306 368.513 416.747C367.623 416.188 366.571 415.909 365.359 415.909C364.024 415.909 362.869 416.241 361.893 416.903C360.928 417.557 360.184 418.409 359.663 419.46C359.143 420.511 358.882 421.638 358.882 422.841V424.773C358.882 426.42 359.166 427.817 359.734 428.963C360.312 430.099 361.112 430.966 362.135 431.562C363.158 432.15 364.346 432.443 365.7 432.443C366.581 432.443 367.376 432.32 368.087 432.074C368.806 431.818 369.427 431.439 369.947 430.938C370.468 430.426 370.871 429.792 371.155 429.034L374.393 429.943C374.053 431.042 373.48 432.008 372.675 432.841C371.87 433.665 370.875 434.309 369.692 434.773C368.508 435.227 367.178 435.455 365.7 435.455ZM406.538 418.068L403.527 418.92C403.338 418.419 403.058 417.931 402.689 417.457C402.329 416.974 401.837 416.577 401.212 416.264C400.587 415.952 399.786 415.795 398.811 415.795C397.476 415.795 396.363 416.103 395.473 416.719C394.592 417.325 394.152 418.097 394.152 419.034C394.152 419.867 394.455 420.526 395.061 421.009C395.667 421.491 396.614 421.894 397.902 422.216L401.141 423.011C403.091 423.485 404.545 424.209 405.501 425.185C406.458 426.151 406.936 427.396 406.936 428.92C406.936 430.17 406.576 431.288 405.857 432.273C405.146 433.258 404.152 434.034 402.874 434.602C401.595 435.17 400.108 435.455 398.413 435.455C396.188 435.455 394.346 434.972 392.888 434.006C391.429 433.04 390.506 431.629 390.118 429.773L393.3 428.977C393.603 430.152 394.176 431.032 395.018 431.619C395.871 432.206 396.983 432.5 398.357 432.5C399.919 432.5 401.16 432.169 402.078 431.506C403.006 430.833 403.47 430.028 403.47 429.091C403.47 428.333 403.205 427.699 402.675 427.188C402.144 426.667 401.33 426.278 400.232 426.023L396.595 425.17C394.597 424.697 393.129 423.963 392.192 422.969C391.264 421.965 390.8 420.71 390.8 419.205C390.8 417.973 391.145 416.884 391.837 415.938C392.537 414.991 393.489 414.247 394.692 413.707C395.904 413.168 397.277 412.898 398.811 412.898C400.97 412.898 402.665 413.371 403.896 414.318C405.137 415.265 406.018 416.515 406.538 418.068ZM420.846 435.455C418.876 435.455 417.148 434.986 415.661 434.048C414.184 433.111 413.029 431.799 412.195 430.114C411.371 428.428 410.96 426.458 410.96 424.205C410.96 421.932 411.371 419.948 412.195 418.253C413.029 416.558 414.184 415.241 415.661 414.304C417.148 413.366 418.876 412.898 420.846 412.898C422.816 412.898 424.539 413.366 426.016 414.304C427.503 415.241 428.658 416.558 429.482 418.253C430.316 419.948 430.732 421.932 430.732 424.205C430.732 426.458 430.316 428.428 429.482 430.114C428.658 431.799 427.503 433.111 426.016 434.048C424.539 434.986 422.816 435.455 420.846 435.455ZM420.846 432.443C422.342 432.443 423.573 432.06 424.539 431.293C425.505 430.526 426.22 429.517 426.684 428.267C427.148 427.017 427.38 425.663 427.38 424.205C427.38 422.746 427.148 421.387 426.684 420.128C426.22 418.868 425.505 417.85 424.539 417.074C423.573 416.297 422.342 415.909 420.846 415.909C419.35 415.909 418.119 416.297 417.153 417.074C416.187 417.85 415.472 418.868 415.008 420.128C414.544 421.387 414.312 422.746 414.312 424.205C414.312 425.663 414.544 427.017 415.008 428.267C415.472 429.517 416.187 430.526 417.153 431.293C418.119 432.06 419.35 432.443 420.846 432.443ZM444.713 435.455C442.668 435.455 440.906 434.972 439.429 434.006C437.952 433.04 436.815 431.709 436.02 430.014C435.224 428.319 434.827 426.383 434.827 424.205C434.827 421.989 435.234 420.033 436.048 418.338C436.872 416.634 438.018 415.303 439.486 414.347C440.963 413.381 442.687 412.898 444.656 412.898C446.19 412.898 447.573 413.182 448.804 413.75C450.035 414.318 451.044 415.114 451.83 416.136C452.616 417.159 453.103 418.352 453.293 419.716H449.94C449.685 418.722 449.116 417.841 448.236 417.074C447.365 416.297 446.19 415.909 444.713 415.909C443.406 415.909 442.26 416.25 441.276 416.932C440.3 417.604 439.538 418.556 438.989 419.787C438.449 421.009 438.179 422.443 438.179 424.091C438.179 425.777 438.444 427.244 438.974 428.494C439.514 429.744 440.272 430.715 441.247 431.406C442.232 432.098 443.387 432.443 444.713 432.443C445.584 432.443 446.375 432.292 447.085 431.989C447.795 431.686 448.397 431.25 448.889 430.682C449.382 430.114 449.732 429.432 449.94 428.636H453.293C453.103 429.924 452.634 431.084 451.886 432.116C451.148 433.139 450.168 433.954 448.946 434.56C447.734 435.156 446.323 435.455 444.713 435.455ZM458.193 435V413.182H461.545V435H458.193ZM459.898 409.545C459.244 409.545 458.681 409.323 458.207 408.878C457.743 408.433 457.511 407.898 457.511 407.273C457.511 406.648 457.743 406.113 458.207 405.668C458.681 405.223 459.244 405 459.898 405C460.551 405 461.11 405.223 461.574 405.668C462.047 406.113 462.284 406.648 462.284 407.273C462.284 407.898 462.047 408.433 461.574 408.878C461.11 409.323 460.551 409.545 459.898 409.545ZM474.106 435.511C472.723 435.511 471.469 435.251 470.342 434.73C469.215 434.2 468.32 433.438 467.657 432.443C466.994 431.439 466.663 430.227 466.663 428.807C466.663 427.557 466.909 426.544 467.401 425.767C467.894 424.981 468.552 424.366 469.376 423.92C470.2 423.475 471.109 423.144 472.103 422.926C473.107 422.699 474.115 422.519 475.129 422.386C476.454 422.216 477.529 422.088 478.353 422.003C479.186 421.908 479.792 421.752 480.171 421.534C480.559 421.316 480.754 420.937 480.754 420.398V420.284C480.754 418.883 480.37 417.794 479.603 417.017C478.845 416.241 477.695 415.852 476.151 415.852C474.551 415.852 473.296 416.203 472.387 416.903C471.478 417.604 470.839 418.352 470.469 419.148L467.288 418.011C467.856 416.686 468.613 415.653 469.56 414.915C470.517 414.167 471.558 413.646 472.685 413.352C473.822 413.049 474.939 412.898 476.038 412.898C476.738 412.898 477.543 412.983 478.452 413.153C479.371 413.314 480.256 413.651 481.109 414.162C481.97 414.673 482.685 415.445 483.254 416.477C483.822 417.509 484.106 418.892 484.106 420.625V435H480.754V432.045H480.583C480.356 432.519 479.977 433.026 479.447 433.565C478.916 434.105 478.211 434.564 477.33 434.943C476.45 435.322 475.375 435.511 474.106 435.511ZM474.617 432.5C475.943 432.5 477.06 432.24 477.969 431.719C478.888 431.198 479.579 430.526 480.043 429.702C480.517 428.878 480.754 428.011 480.754 427.102V424.034C480.612 424.205 480.299 424.361 479.816 424.503C479.343 424.635 478.793 424.754 478.168 424.858C477.553 424.953 476.951 425.038 476.364 425.114C475.787 425.18 475.318 425.237 474.958 425.284C474.087 425.398 473.272 425.582 472.515 425.838C471.767 426.084 471.161 426.458 470.697 426.96C470.242 427.453 470.015 428.125 470.015 428.977C470.015 430.142 470.446 431.023 471.308 431.619C472.179 432.206 473.282 432.5 474.617 432.5ZM493.577 405.909V435H490.224V405.909H493.577ZM510.967 435V413.182H514.205V416.591H514.489C514.944 415.426 515.678 414.522 516.691 413.878C517.704 413.224 518.921 412.898 520.342 412.898C521.781 412.898 522.979 413.224 523.935 413.878C524.901 414.522 525.654 415.426 526.194 416.591H526.421C526.98 415.464 527.818 414.569 528.935 413.906C530.053 413.234 531.393 412.898 532.955 412.898C534.906 412.898 536.502 413.509 537.742 414.73C538.983 415.942 539.603 417.831 539.603 420.398V435H536.251V420.398C536.251 418.788 535.81 417.637 534.93 416.946C534.049 416.255 533.012 415.909 531.819 415.909C530.285 415.909 529.096 416.373 528.254 417.301C527.411 418.22 526.989 419.384 526.989 420.795V435H523.58V420.057C523.58 418.816 523.178 417.817 522.373 417.06C521.568 416.293 520.531 415.909 519.262 415.909C518.391 415.909 517.576 416.141 516.819 416.605C516.071 417.069 515.465 417.713 515.001 418.537C514.546 419.351 514.319 420.294 514.319 421.364V435H510.967ZM554.88 435.455C552.778 435.455 550.964 434.991 549.44 434.062C547.924 433.125 546.755 431.818 545.931 430.142C545.117 428.456 544.71 426.496 544.71 424.261C544.71 422.027 545.117 420.057 545.931 418.352C546.755 416.638 547.901 415.303 549.369 414.347C550.846 413.381 552.569 412.898 554.539 412.898C555.675 412.898 556.798 413.087 557.906 413.466C559.013 413.845 560.022 414.46 560.931 415.312C561.84 416.155 562.565 417.273 563.104 418.665C563.644 420.057 563.914 421.771 563.914 423.807V425.227H547.096V422.33H560.505C560.505 421.098 560.259 420 559.766 419.034C559.283 418.068 558.592 417.306 557.692 416.747C556.802 416.188 555.751 415.909 554.539 415.909C553.204 415.909 552.049 416.241 551.073 416.903C550.107 417.557 549.364 418.409 548.843 419.46C548.322 420.511 548.062 421.638 548.062 422.841V424.773C548.062 426.42 548.346 427.817 548.914 428.963C549.492 430.099 550.292 430.966 551.315 431.562C552.337 432.15 553.526 432.443 554.88 432.443C555.761 432.443 556.556 432.32 557.266 432.074C557.986 431.818 558.606 431.439 559.127 430.938C559.648 430.426 560.05 429.792 560.335 429.034L563.573 429.943C563.232 431.042 562.659 432.008 561.854 432.841C561.049 433.665 560.055 434.309 558.871 434.773C557.688 435.227 556.357 435.455 554.88 435.455ZM577.252 435.455C575.434 435.455 573.829 434.995 572.437 434.077C571.045 433.149 569.956 431.842 569.17 430.156C568.384 428.461 567.991 426.458 567.991 424.148C567.991 421.856 568.384 419.867 569.17 418.182C569.956 416.496 571.049 415.194 572.451 414.276C573.853 413.357 575.472 412.898 577.309 412.898C578.729 412.898 579.852 413.134 580.675 413.608C581.509 414.072 582.143 414.602 582.579 415.199C583.024 415.786 583.37 416.269 583.616 416.648H583.9V405.909H587.252V435H584.013V431.648H583.616C583.37 432.045 583.019 432.547 582.565 433.153C582.11 433.75 581.461 434.285 580.619 434.759C579.776 435.223 578.654 435.455 577.252 435.455ZM577.707 432.443C579.051 432.443 580.188 432.093 581.116 431.392C582.044 430.682 582.749 429.702 583.232 428.452C583.715 427.192 583.957 425.739 583.957 424.091C583.957 422.462 583.72 421.037 583.246 419.815C582.773 418.584 582.072 417.628 581.144 416.946C580.216 416.255 579.07 415.909 577.707 415.909C576.286 415.909 575.103 416.274 574.156 417.003C573.218 417.723 572.513 418.703 572.039 419.943C571.575 421.174 571.343 422.557 571.343 424.091C571.343 425.644 571.58 427.055 572.053 428.324C572.536 429.583 573.246 430.587 574.184 431.335C575.131 432.074 576.305 432.443 577.707 432.443ZM593.857 435V413.182H597.21V435H593.857ZM595.562 409.545C594.908 409.545 594.345 409.323 593.871 408.878C593.407 408.433 593.175 407.898 593.175 407.273C593.175 406.648 593.407 406.113 593.871 405.668C594.345 405.223 594.908 405 595.562 405C596.215 405 596.774 405.223 597.238 405.668C597.711 406.113 597.948 406.648 597.948 407.273C597.948 407.898 597.711 408.433 597.238 408.878C596.774 409.323 596.215 409.545 595.562 409.545ZM609.77 435.511C608.387 435.511 607.133 435.251 606.006 434.73C604.879 434.2 603.984 433.438 603.321 432.443C602.658 431.439 602.327 430.227 602.327 428.807C602.327 427.557 602.573 426.544 603.065 425.767C603.558 424.981 604.216 424.366 605.04 423.92C605.864 423.475 606.773 423.144 607.767 422.926C608.771 422.699 609.779 422.519 610.793 422.386C612.118 422.216 613.193 422.088 614.017 422.003C614.85 421.908 615.456 421.752 615.835 421.534C616.223 421.316 616.418 420.937 616.418 420.398V420.284C616.418 418.883 616.034 417.794 615.267 417.017C614.509 416.241 613.359 415.852 611.815 415.852C610.215 415.852 608.96 416.203 608.051 416.903C607.142 417.604 606.503 418.352 606.134 419.148L602.952 418.011C603.52 416.686 604.277 415.653 605.224 414.915C606.181 414.167 607.223 413.646 608.349 413.352C609.486 413.049 610.603 412.898 611.702 412.898C612.402 412.898 613.207 412.983 614.116 413.153C615.035 413.314 615.92 413.651 616.773 414.162C617.634 414.673 618.349 415.445 618.918 416.477C619.486 417.509 619.77 418.892 619.77 420.625V435H616.418V432.045H616.247C616.02 432.519 615.641 433.026 615.111 433.565C614.58 434.105 613.875 434.564 612.994 434.943C612.114 435.322 611.039 435.511 609.77 435.511ZM610.281 432.5C611.607 432.5 612.724 432.24 613.634 431.719C614.552 431.198 615.243 430.526 615.707 429.702C616.181 428.878 616.418 428.011 616.418 427.102V424.034C616.276 424.205 615.963 424.361 615.48 424.503C615.007 424.635 614.457 424.754 613.832 424.858C613.217 424.953 612.616 425.038 612.028 425.114C611.451 425.18 610.982 425.237 610.622 425.284C609.751 425.398 608.937 425.582 608.179 425.838C607.431 426.084 606.825 426.458 606.361 426.96C605.906 427.453 605.679 428.125 605.679 428.977C605.679 430.142 606.11 431.023 606.972 431.619C607.843 432.206 608.946 432.5 610.281 432.5ZM646.002 435.455C643.957 435.455 642.195 434.972 640.718 434.006C639.241 433.04 638.104 431.709 637.309 430.014C636.513 428.319 636.116 426.383 636.116 424.205C636.116 421.989 636.523 420.033 637.337 418.338C638.161 416.634 639.307 415.303 640.775 414.347C642.252 413.381 643.976 412.898 645.945 412.898C647.479 412.898 648.862 413.182 650.093 413.75C651.324 414.318 652.333 415.114 653.119 416.136C653.905 417.159 654.392 418.352 654.582 419.716H651.229C650.974 418.722 650.406 417.841 649.525 417.074C648.654 416.297 647.479 415.909 646.002 415.909C644.695 415.909 643.549 416.25 642.565 416.932C641.589 417.604 640.827 418.556 640.278 419.787C639.738 421.009 639.468 422.443 639.468 424.091C639.468 425.777 639.733 427.244 640.263 428.494C640.803 429.744 641.561 430.715 642.536 431.406C643.521 432.098 644.676 432.443 646.002 432.443C646.873 432.443 647.664 432.292 648.374 431.989C649.085 431.686 649.686 431.25 650.178 430.682C650.671 430.114 651.021 429.432 651.229 428.636H654.582C654.392 429.924 653.924 431.084 653.175 432.116C652.437 433.139 651.457 433.954 650.235 434.56C649.023 435.156 647.612 435.455 646.002 435.455ZM668.346 435.455C666.376 435.455 664.648 434.986 663.161 434.048C661.684 433.111 660.529 431.799 659.695 430.114C658.871 428.428 658.46 426.458 658.46 424.205C658.46 421.932 658.871 419.948 659.695 418.253C660.529 416.558 661.684 415.241 663.161 414.304C664.648 413.366 666.376 412.898 668.346 412.898C670.316 412.898 672.039 413.366 673.516 414.304C675.003 415.241 676.158 416.558 676.982 418.253C677.816 419.948 678.232 421.932 678.232 424.205C678.232 426.458 677.816 428.428 676.982 430.114C676.158 431.799 675.003 433.111 673.516 434.048C672.039 434.986 670.316 435.455 668.346 435.455ZM668.346 432.443C669.842 432.443 671.073 432.06 672.039 431.293C673.005 430.526 673.72 429.517 674.184 428.267C674.648 427.017 674.88 425.663 674.88 424.205C674.88 422.746 674.648 421.387 674.184 420.128C673.72 418.868 673.005 417.85 672.039 417.074C671.073 416.297 669.842 415.909 668.346 415.909C666.85 415.909 665.619 416.297 664.653 417.074C663.687 417.85 662.972 418.868 662.508 420.128C662.044 421.387 661.812 422.746 661.812 424.205C661.812 425.663 662.044 427.017 662.508 428.267C662.972 429.517 663.687 430.526 664.653 431.293C665.619 432.06 666.85 432.443 668.346 432.443ZM686.702 421.875V435H683.349V413.182H686.588V416.591H686.872C687.384 415.483 688.16 414.593 689.202 413.92C690.243 413.239 691.588 412.898 693.236 412.898C694.713 412.898 696.006 413.201 697.114 413.807C698.222 414.403 699.083 415.312 699.699 416.534C700.314 417.746 700.622 419.28 700.622 421.136V435H697.27V421.364C697.27 419.65 696.825 418.314 695.935 417.358C695.045 416.392 693.823 415.909 692.27 415.909C691.2 415.909 690.243 416.141 689.401 416.605C688.567 417.069 687.909 417.746 687.426 418.636C686.943 419.527 686.702 420.606 686.702 421.875ZM716.237 413.182V416.023H704.93V413.182H716.237ZM708.225 407.955H711.577V428.75C711.577 429.697 711.715 430.407 711.989 430.881C712.273 431.345 712.633 431.657 713.069 431.818C713.514 431.97 713.983 432.045 714.475 432.045C714.844 432.045 715.147 432.027 715.384 431.989C715.621 431.941 715.81 431.903 715.952 431.875L716.634 434.886C716.407 434.972 716.09 435.057 715.683 435.142C715.275 435.237 714.759 435.284 714.134 435.284C713.187 435.284 712.259 435.08 711.35 434.673C710.451 434.266 709.702 433.646 709.106 432.812C708.519 431.979 708.225 430.928 708.225 429.659V407.955ZM730.192 435.455C728.09 435.455 726.277 434.991 724.752 434.062C723.237 433.125 722.067 431.818 721.244 430.142C720.429 428.456 720.022 426.496 720.022 424.261C720.022 422.027 720.429 420.057 721.244 418.352C722.067 416.638 723.213 415.303 724.681 414.347C726.158 413.381 727.882 412.898 729.852 412.898C730.988 412.898 732.11 413.087 733.218 413.466C734.326 413.845 735.335 414.46 736.244 415.312C737.153 416.155 737.877 417.273 738.417 418.665C738.957 420.057 739.227 421.771 739.227 423.807V425.227H722.408V422.33H735.817C735.817 421.098 735.571 420 735.079 419.034C734.596 418.068 733.905 417.306 733.005 416.747C732.115 416.188 731.064 415.909 729.852 415.909C728.516 415.909 727.361 416.241 726.386 416.903C725.42 417.557 724.676 418.409 724.156 419.46C723.635 420.511 723.374 421.638 723.374 422.841V424.773C723.374 426.42 723.658 427.817 724.227 428.963C724.804 430.099 725.604 430.966 726.627 431.562C727.65 432.15 728.838 432.443 730.192 432.443C731.073 432.443 731.869 432.32 732.579 432.074C733.299 431.818 733.919 431.439 734.44 430.938C734.96 430.426 735.363 429.792 735.647 429.034L738.886 429.943C738.545 431.042 737.972 432.008 737.167 432.841C736.362 433.665 735.368 434.309 734.184 434.773C733 435.227 731.67 435.455 730.192 435.455ZM747.678 421.875V435H744.326V413.182H747.565V416.591H747.849C748.36 415.483 749.137 414.593 750.178 413.92C751.22 413.239 752.565 412.898 754.212 412.898C755.69 412.898 756.982 413.201 758.09 413.807C759.198 414.403 760.06 415.312 760.675 416.534C761.291 417.746 761.599 419.28 761.599 421.136V435H758.246V421.364C758.246 419.65 757.801 418.314 756.911 417.358C756.021 416.392 754.799 415.909 753.246 415.909C752.176 415.909 751.22 416.141 750.377 416.605C749.544 417.069 748.886 417.746 748.403 418.636C747.92 419.527 747.678 420.606 747.678 421.875ZM777.213 413.182V416.023H765.906V413.182H777.213ZM769.202 407.955H772.554V428.75C772.554 429.697 772.691 430.407 772.966 430.881C773.25 431.345 773.61 431.657 774.045 431.818C774.491 431.97 774.959 432.045 775.452 432.045C775.821 432.045 776.124 432.027 776.361 431.989C776.598 431.941 776.787 431.903 776.929 431.875L777.611 434.886C777.384 434.972 777.066 435.057 776.659 435.142C776.252 435.237 775.736 435.284 775.111 435.284C774.164 435.284 773.236 435.08 772.327 434.673C771.427 434.266 770.679 433.646 770.082 432.812C769.495 431.979 769.202 430.928 769.202 429.659V407.955ZM802.369 435.455C800.4 435.455 798.671 434.986 797.185 434.048C795.707 433.111 794.552 431.799 793.719 430.114C792.895 428.428 792.483 426.458 792.483 424.205C792.483 421.932 792.895 419.948 793.719 418.253C794.552 416.558 795.707 415.241 797.185 414.304C798.671 413.366 800.4 412.898 802.369 412.898C804.339 412.898 806.063 413.366 807.54 414.304C809.027 415.241 810.182 416.558 811.006 418.253C811.839 419.948 812.256 421.932 812.256 424.205C812.256 426.458 811.839 428.428 811.006 430.114C810.182 431.799 809.027 433.111 807.54 434.048C806.063 434.986 804.339 435.455 802.369 435.455ZM802.369 432.443C803.866 432.443 805.097 432.06 806.062 431.293C807.028 430.526 807.743 429.517 808.207 428.267C808.671 427.017 808.903 425.663 808.903 424.205C808.903 422.746 808.671 421.387 808.207 420.128C807.743 418.868 807.028 417.85 806.062 417.074C805.097 416.297 803.866 415.909 802.369 415.909C800.873 415.909 799.642 416.297 798.676 417.074C797.71 417.85 796.995 418.868 796.531 420.128C796.067 421.387 795.835 422.746 795.835 424.205C795.835 425.663 796.067 427.017 796.531 428.267C796.995 429.517 797.71 430.526 798.676 431.293C799.642 432.06 800.873 432.443 802.369 432.443ZM820.725 421.875V435H817.373V413.182H820.612V416.591H820.896C821.407 415.483 822.183 414.593 823.225 413.92C824.267 413.239 825.612 412.898 827.259 412.898C828.737 412.898 830.029 413.201 831.137 413.807C832.245 414.403 833.107 415.312 833.722 416.534C834.338 417.746 834.646 419.28 834.646 421.136V435H831.293V421.364C831.293 419.65 830.848 418.314 829.958 417.358C829.068 416.392 827.846 415.909 826.293 415.909C825.223 415.909 824.267 416.141 823.424 416.605C822.591 417.069 821.933 417.746 821.45 418.636C820.967 419.527 820.725 420.606 820.725 421.875ZM861.453 435H852.476V405.909H861.851C864.673 405.909 867.088 406.491 869.095 407.656C871.103 408.812 872.642 410.473 873.712 412.642C874.782 414.801 875.317 417.386 875.317 420.398C875.317 423.428 874.777 426.037 873.697 428.224C872.618 430.402 871.046 432.079 868.982 433.253C866.917 434.418 864.408 435 861.453 435ZM855.999 431.875H861.226C863.631 431.875 865.625 431.411 867.206 430.483C868.787 429.555 869.966 428.234 870.743 426.52C871.519 424.806 871.908 422.765 871.908 420.398C871.908 418.049 871.524 416.027 870.757 414.332C869.99 412.628 868.844 411.321 867.32 410.412C865.795 409.493 863.896 409.034 861.624 409.034H855.999V431.875ZM880.771 435V413.182H884.124V435H880.771ZM882.476 409.545C881.822 409.545 881.259 409.323 880.786 408.878C880.321 408.433 880.089 407.898 880.089 407.273C880.089 406.648 880.321 406.113 880.786 405.668C881.259 405.223 881.822 405 882.476 405C883.129 405 883.688 405.223 884.152 405.668C884.625 406.113 884.862 406.648 884.862 407.273C884.862 407.898 884.625 408.433 884.152 408.878C883.688 409.323 883.129 409.545 882.476 409.545ZM905.718 418.068L902.707 418.92C902.517 418.419 902.238 417.931 901.869 417.457C901.509 416.974 901.016 416.577 900.391 416.264C899.766 415.952 898.966 415.795 897.991 415.795C896.656 415.795 895.543 416.103 894.653 416.719C893.772 417.325 893.332 418.097 893.332 419.034C893.332 419.867 893.635 420.526 894.241 421.009C894.847 421.491 895.794 421.894 897.082 422.216L900.32 423.011C902.271 423.485 903.725 424.209 904.681 425.185C905.638 426.151 906.116 427.396 906.116 428.92C906.116 430.17 905.756 431.288 905.036 432.273C904.326 433.258 903.332 434.034 902.053 434.602C900.775 435.17 899.288 435.455 897.593 435.455C895.368 435.455 893.526 434.972 892.067 434.006C890.609 433.04 889.686 431.629 889.298 429.773L892.479 428.977C892.782 430.152 893.355 431.032 894.198 431.619C895.05 432.206 896.163 432.5 897.536 432.5C899.099 432.5 900.339 432.169 901.258 431.506C902.186 430.833 902.65 430.028 902.65 429.091C902.65 428.333 902.385 427.699 901.854 427.188C901.324 426.667 900.51 426.278 899.411 426.023L895.775 425.17C893.777 424.697 892.309 423.963 891.371 422.969C890.443 421.965 889.979 420.71 889.979 419.205C889.979 417.973 890.325 416.884 891.016 415.938C891.717 414.991 892.669 414.247 893.871 413.707C895.084 413.168 896.457 412.898 897.991 412.898C900.15 412.898 901.845 413.371 903.076 414.318C904.317 415.265 905.197 416.515 905.718 418.068ZM920.026 435.455C917.98 435.455 916.219 434.972 914.741 434.006C913.264 433.04 912.128 431.709 911.332 430.014C910.537 428.319 910.139 426.383 910.139 424.205C910.139 421.989 910.546 420.033 911.361 418.338C912.185 416.634 913.33 415.303 914.798 414.347C916.276 413.381 917.999 412.898 919.969 412.898C921.503 412.898 922.885 413.182 924.116 413.75C925.348 414.318 926.356 415.114 927.142 416.136C927.928 417.159 928.416 418.352 928.605 419.716H925.253C924.997 418.722 924.429 417.841 923.548 417.074C922.677 416.297 921.503 415.909 920.026 415.909C918.719 415.909 917.573 416.25 916.588 416.932C915.613 417.604 914.85 418.556 914.301 419.787C913.761 421.009 913.491 422.443 913.491 424.091C913.491 425.777 913.757 427.244 914.287 428.494C914.827 429.744 915.584 430.715 916.56 431.406C917.545 432.098 918.7 432.443 920.026 432.443C920.897 432.443 921.688 432.292 922.398 431.989C923.108 431.686 923.709 431.25 924.202 430.682C924.694 430.114 925.045 429.432 925.253 428.636H928.605C928.416 429.924 927.947 431.084 927.199 432.116C926.46 433.139 925.48 433.954 924.259 434.56C923.046 435.156 921.635 435.455 920.026 435.455ZM942.369 435.455C940.4 435.455 938.671 434.986 937.185 434.048C935.707 433.111 934.552 431.799 933.719 430.114C932.895 428.428 932.483 426.458 932.483 424.205C932.483 421.932 932.895 419.948 933.719 418.253C934.552 416.558 935.707 415.241 937.185 414.304C938.671 413.366 940.4 412.898 942.369 412.898C944.339 412.898 946.063 413.366 947.54 414.304C949.027 415.241 950.182 416.558 951.006 418.253C951.839 419.948 952.256 421.932 952.256 424.205C952.256 426.458 951.839 428.428 951.006 430.114C950.182 431.799 949.027 433.111 947.54 434.048C946.063 434.986 944.339 435.455 942.369 435.455ZM942.369 432.443C943.866 432.443 945.097 432.06 946.062 431.293C947.028 430.526 947.743 429.517 948.207 428.267C948.671 427.017 948.903 425.663 948.903 424.205C948.903 422.746 948.671 421.387 948.207 420.128C947.743 418.868 947.028 417.85 946.062 417.074C945.097 416.297 943.866 415.909 942.369 415.909C940.873 415.909 939.642 416.297 938.676 417.074C937.71 417.85 936.995 418.868 936.531 420.128C936.067 421.387 935.835 422.746 935.835 424.205C935.835 425.663 936.067 427.017 936.531 428.267C936.995 429.517 937.71 430.526 938.676 431.293C939.642 432.06 940.873 432.443 942.369 432.443ZM957.373 435V413.182H960.612V416.477H960.839C961.237 415.398 961.956 414.522 962.998 413.849C964.04 413.177 965.214 412.841 966.521 412.841C966.767 412.841 967.075 412.846 967.444 412.855C967.813 412.865 968.093 412.879 968.282 412.898V416.307C968.168 416.278 967.908 416.236 967.501 416.179C967.103 416.113 966.682 416.08 966.237 416.08C965.176 416.08 964.229 416.302 963.396 416.747C962.572 417.183 961.918 417.789 961.435 418.565C960.962 419.332 960.725 420.208 960.725 421.193V435H957.373ZM979.83 435.455C978.012 435.455 976.407 434.995 975.015 434.077C973.623 433.149 972.534 431.842 971.748 430.156C970.962 428.461 970.569 426.458 970.569 424.148C970.569 421.856 970.962 419.867 971.748 418.182C972.534 416.496 973.628 415.194 975.029 414.276C976.431 413.357 978.05 412.898 979.887 412.898C981.308 412.898 982.43 413.134 983.254 413.608C984.087 414.072 984.721 414.602 985.157 415.199C985.602 415.786 985.948 416.269 986.194 416.648H986.478V405.909H989.83V435H986.592V431.648H986.194C985.948 432.045 985.597 432.547 985.143 433.153C984.688 433.75 984.04 434.285 983.197 434.759C982.354 435.223 981.232 435.455 979.83 435.455ZM980.285 432.443C981.629 432.443 982.766 432.093 983.694 431.392C984.622 430.682 985.327 429.702 985.81 428.452C986.293 427.192 986.535 425.739 986.535 424.091C986.535 422.462 986.298 421.037 985.825 419.815C985.351 418.584 984.65 417.628 983.722 416.946C982.794 416.255 981.648 415.909 980.285 415.909C978.864 415.909 977.681 416.274 976.734 417.003C975.796 417.723 975.091 418.703 974.617 419.943C974.153 421.174 973.921 422.557 973.921 424.091C973.921 425.644 974.158 427.055 974.631 428.324C975.114 429.583 975.825 430.587 976.762 431.335C977.709 432.074 978.883 432.443 980.285 432.443Z" fill="white"/>
    <g filter="url(#filter1_d_11_26)">
        <path d="M406.527 484V454.909H410.049V467.864H425.561V454.909H429.083V484H425.561V470.989H410.049V484H406.527ZM442.102 484.511C440.719 484.511 439.465 484.251 438.338 483.73C437.211 483.2 436.316 482.438 435.653 481.443C434.99 480.439 434.659 479.227 434.659 477.807C434.659 476.557 434.905 475.544 435.397 474.767C435.89 473.981 436.548 473.366 437.372 472.92C438.196 472.475 439.105 472.144 440.099 471.926C441.103 471.699 442.111 471.519 443.125 471.386C444.45 471.216 445.525 471.088 446.349 471.003C447.182 470.908 447.788 470.752 448.167 470.534C448.556 470.316 448.75 469.937 448.75 469.398V469.284C448.75 467.883 448.366 466.794 447.599 466.017C446.842 465.241 445.691 464.852 444.147 464.852C442.547 464.852 441.292 465.203 440.383 465.903C439.474 466.604 438.835 467.352 438.466 468.148L435.284 467.011C435.852 465.686 436.609 464.653 437.556 463.915C438.513 463.167 439.555 462.646 440.681 462.352C441.818 462.049 442.935 461.898 444.034 461.898C444.734 461.898 445.539 461.983 446.449 462.153C447.367 462.314 448.252 462.651 449.105 463.162C449.967 463.673 450.681 464.445 451.25 465.477C451.818 466.509 452.102 467.892 452.102 469.625V484H448.75V481.045H448.579C448.352 481.519 447.973 482.026 447.443 482.565C446.913 483.105 446.207 483.564 445.326 483.943C444.446 484.322 443.371 484.511 442.102 484.511ZM442.613 481.5C443.939 481.5 445.056 481.24 445.966 480.719C446.884 480.198 447.575 479.526 448.039 478.702C448.513 477.878 448.75 477.011 448.75 476.102V473.034C448.608 473.205 448.295 473.361 447.812 473.503C447.339 473.635 446.789 473.754 446.164 473.858C445.549 473.953 444.948 474.038 444.36 474.114C443.783 474.18 443.314 474.237 442.954 474.284C442.083 474.398 441.269 474.582 440.511 474.838C439.763 475.084 439.157 475.458 438.693 475.96C438.238 476.453 438.011 477.125 438.011 477.977C438.011 479.142 438.442 480.023 439.304 480.619C440.175 481.206 441.278 481.5 442.613 481.5ZM473.675 467.068L470.664 467.92C470.474 467.419 470.195 466.931 469.826 466.457C469.466 465.974 468.973 465.577 468.348 465.264C467.723 464.952 466.923 464.795 465.948 464.795C464.613 464.795 463.5 465.103 462.61 465.719C461.729 466.325 461.289 467.097 461.289 468.034C461.289 468.867 461.592 469.526 462.198 470.009C462.804 470.491 463.751 470.894 465.039 471.216L468.277 472.011C470.228 472.485 471.682 473.209 472.638 474.185C473.595 475.151 474.073 476.396 474.073 477.92C474.073 479.17 473.713 480.288 472.993 481.273C472.283 482.258 471.289 483.034 470.01 483.602C468.732 484.17 467.245 484.455 465.55 484.455C463.325 484.455 461.483 483.972 460.025 483.006C458.566 482.04 457.643 480.629 457.255 478.773L460.436 477.977C460.739 479.152 461.312 480.032 462.155 480.619C463.007 481.206 464.12 481.5 465.493 481.5C467.056 481.5 468.296 481.169 469.215 480.506C470.143 479.833 470.607 479.028 470.607 478.091C470.607 477.333 470.342 476.699 469.811 476.188C469.281 475.667 468.467 475.278 467.368 475.023L463.732 474.17C461.734 473.697 460.266 472.963 459.328 471.969C458.4 470.965 457.936 469.71 457.936 468.205C457.936 466.973 458.282 465.884 458.973 464.938C459.674 463.991 460.626 463.247 461.828 462.707C463.041 462.168 464.414 461.898 465.948 461.898C468.107 461.898 469.802 462.371 471.033 463.318C472.274 464.265 473.154 465.515 473.675 467.068ZM494.574 467.068L491.562 467.92C491.373 467.419 491.093 466.931 490.724 466.457C490.364 465.974 489.872 465.577 489.247 465.264C488.622 464.952 487.822 464.795 486.846 464.795C485.511 464.795 484.398 465.103 483.508 465.719C482.627 466.325 482.187 467.097 482.187 468.034C482.187 468.867 482.49 469.526 483.096 470.009C483.702 470.491 484.649 470.894 485.937 471.216L489.176 472.011C491.127 472.485 492.58 473.209 493.537 474.185C494.493 475.151 494.971 476.396 494.971 477.92C494.971 479.17 494.611 480.288 493.892 481.273C493.181 482.258 492.187 483.034 490.909 483.602C489.63 484.17 488.144 484.455 486.449 484.455C484.223 484.455 482.381 483.972 480.923 483.006C479.465 482.04 478.541 480.629 478.153 478.773L481.335 477.977C481.638 479.152 482.211 480.032 483.054 480.619C483.906 481.206 485.019 481.5 486.392 481.5C487.954 481.5 489.195 481.169 490.113 480.506C491.041 479.833 491.505 479.028 491.505 478.091C491.505 477.333 491.24 476.699 490.71 476.188C490.18 475.667 489.365 475.278 488.267 475.023L484.63 474.17C482.632 473.697 481.164 472.963 480.227 471.969C479.299 470.965 478.835 469.71 478.835 468.205C478.835 466.973 479.181 465.884 479.872 464.938C480.573 463.991 481.524 463.247 482.727 462.707C483.939 462.168 485.312 461.898 486.846 461.898C489.005 461.898 490.7 462.371 491.931 463.318C493.172 464.265 494.053 465.515 494.574 467.068ZM503.37 454.909V484H500.017V454.909H503.37ZM518.657 484.455C516.555 484.455 514.742 483.991 513.217 483.062C511.702 482.125 510.532 480.818 509.708 479.142C508.894 477.456 508.487 475.496 508.487 473.261C508.487 471.027 508.894 469.057 509.708 467.352C510.532 465.638 511.678 464.303 513.146 463.347C514.623 462.381 516.347 461.898 518.316 461.898C519.453 461.898 520.575 462.087 521.683 462.466C522.791 462.845 523.799 463.46 524.708 464.312C525.618 465.155 526.342 466.273 526.882 467.665C527.422 469.057 527.691 470.771 527.691 472.807V474.227H510.873V471.33H524.282C524.282 470.098 524.036 469 523.544 468.034C523.061 467.068 522.369 466.306 521.47 465.747C520.58 465.188 519.529 464.909 518.316 464.909C516.981 464.909 515.826 465.241 514.85 465.903C513.885 466.557 513.141 467.409 512.62 468.46C512.1 469.511 511.839 470.638 511.839 471.841V473.773C511.839 475.42 512.123 476.817 512.691 477.963C513.269 479.099 514.069 479.966 515.092 480.562C516.115 481.15 517.303 481.443 518.657 481.443C519.538 481.443 520.333 481.32 521.044 481.074C521.763 480.818 522.384 480.439 522.904 479.938C523.425 479.426 523.828 478.792 524.112 478.034L527.35 478.943C527.01 480.042 526.437 481.008 525.632 481.841C524.827 482.665 523.833 483.309 522.649 483.773C521.465 484.227 520.135 484.455 518.657 484.455ZM544.495 484V454.909H561.939V458.034H548.018V467.864H560.632V470.989H548.018V484H544.495ZM567.283 484V462.182H570.522V465.477H570.749C571.147 464.398 571.866 463.522 572.908 462.849C573.95 462.177 575.124 461.841 576.431 461.841C576.677 461.841 576.985 461.846 577.354 461.855C577.723 461.865 578.003 461.879 578.192 461.898V465.307C578.078 465.278 577.818 465.236 577.411 465.179C577.013 465.113 576.592 465.08 576.147 465.08C575.086 465.08 574.139 465.302 573.306 465.747C572.482 466.183 571.828 466.789 571.346 467.565C570.872 468.332 570.635 469.208 570.635 470.193V484H567.283ZM590.65 484.455C588.547 484.455 586.734 483.991 585.209 483.062C583.694 482.125 582.525 480.818 581.701 479.142C580.886 477.456 580.479 475.496 580.479 473.261C580.479 471.027 580.886 469.057 581.701 467.352C582.525 465.638 583.67 464.303 585.138 463.347C586.615 462.381 588.339 461.898 590.309 461.898C591.445 461.898 592.567 462.087 593.675 462.466C594.783 462.845 595.792 463.46 596.701 464.312C597.61 465.155 598.334 466.273 598.874 467.665C599.414 469.057 599.684 470.771 599.684 472.807V474.227H582.865V471.33H596.275C596.275 470.098 596.028 469 595.536 468.034C595.053 467.068 594.362 466.306 593.462 465.747C592.572 465.188 591.521 464.909 590.309 464.909C588.973 464.909 587.818 465.241 586.843 465.903C585.877 466.557 585.133 467.409 584.613 468.46C584.092 469.511 583.831 470.638 583.831 471.841V473.773C583.831 475.42 584.115 476.817 584.684 477.963C585.261 479.099 586.061 479.966 587.084 480.562C588.107 481.15 589.295 481.443 590.65 481.443C591.53 481.443 592.326 481.32 593.036 481.074C593.756 480.818 594.376 480.439 594.897 479.938C595.417 479.426 595.82 478.792 596.104 478.034L599.343 478.943C599.002 480.042 598.429 481.008 597.624 481.841C596.819 482.665 595.825 483.309 594.641 483.773C593.457 484.227 592.127 484.455 590.65 484.455ZM613.931 484.455C611.828 484.455 610.015 483.991 608.49 483.062C606.975 482.125 605.806 480.818 604.982 479.142C604.167 477.456 603.76 475.496 603.76 473.261C603.76 471.027 604.167 469.057 604.982 467.352C605.806 465.638 606.952 464.303 608.419 463.347C609.897 462.381 611.62 461.898 613.59 461.898C614.726 461.898 615.848 462.087 616.956 462.466C618.064 462.845 619.073 463.46 619.982 464.312C620.891 465.155 621.615 466.273 622.155 467.665C622.695 469.057 622.965 470.771 622.965 472.807V474.227H606.147V471.33H619.556C619.556 470.098 619.31 469 618.817 468.034C618.334 467.068 617.643 466.306 616.743 465.747C615.853 465.188 614.802 464.909 613.59 464.909C612.255 464.909 611.099 465.241 610.124 465.903C609.158 466.557 608.415 467.409 607.894 468.46C607.373 469.511 607.113 470.638 607.113 471.841V473.773C607.113 475.42 607.397 476.817 607.965 477.963C608.542 479.099 609.343 479.966 610.365 480.562C611.388 481.15 612.577 481.443 613.931 481.443C614.811 481.443 615.607 481.32 616.317 481.074C617.037 480.818 617.657 480.439 618.178 479.938C618.699 479.426 619.101 478.792 619.385 478.034L622.624 478.943C622.283 480.042 621.71 481.008 620.905 481.841C620.1 482.665 619.106 483.309 617.922 483.773C616.739 484.227 615.408 484.455 613.931 484.455Z" fill="white"/>
    </g>
    <defs>
        <filter id="filter0_b_11_26" x="-2" y="287" width="1032" height="295" filterUnits="userSpaceOnUse" color-interpolation-filters="sRGB">
            <feFlood flood-opacity="0" result="BackgroundImageFix"/>
            <feGaussianBlur in="BackgroundImageFix" stdDeviation="1"/>
            <feComposite in2="SourceAlpha" operator="in" result="effect1_backgroundBlur_11_26"/>
            <feBlend mode="normal" in="SourceGraphic" in2="effect1_backgroundBlur_11_26" result="shape"/>
        </filter>
        <filter id="filter1_d_11_26" x="397.527" y="445.909" width="234.438" height="47.6023" filterUnits="userSpaceOnUse" color-interpolation-filters="sRGB">
            <feFlood flood-opacity="0" result="BackgroundImageFix"/>
            <feColorMatrix in="SourceAlpha" type="matrix" values="0 0 0 0 0 0 0 0 0 0 0 0 0 0 0 0 0 0 127 0" result="hardAlpha"/>
            <feOffset/>
            <feGaussianBlur stdDeviation="4.5"/>
            <feComposite in2="hardAlpha" operator="out"/>
            <feColorMatrix type="matrix" values="0 0 0 0 1 0 0 0 0 1 0 0 0 0 1 0 0 0 0.69 0"/>
            <feBlend mode="normal" in2="BackgroundImageFix" result="effect1_dropShadow_11_26"/>
            <feBlend mode="normal" in="SourceGraphic" in2="effect1_dropShadow_11_26" result="shape"/>
        </filter>
    </defs>
</svg>