<svg width="394.2" height="75.5" viewBox="0 0 394.2 75.2" xmlns="http://www.w3.org/2000/svg">
    <g id="svgGroup" stroke-linecap="round" fill-rule="evenodd" font-size="9pt" stroke="#ffffff" stroke-width="0.25mm" fill="none" style="stroke:#ffffff;stroke-width:0.25mm;fill:none">
        <path d="M 31 74 L 21.5 74 L 21.5 12.4 L 0 12.4 L 0 4 L 52.5 4 L 52.5 12.4 L 31 12.4 L 31 74 Z" id="0" vector-effect="non-scaling-stroke"/>
        <path d="M 70.5 74 L 61.5 74 L 61.5 22 L 70.5 22 L 70.5 74 Z M 61.637 11.288 A 5.973 5.973 0 0 0 66 13.1 A 8.175 8.175 0 0 0 67.496 12.969 A 5.647 5.647 0 0 0 70.6 11.35 Q 72.3 9.6 72.3 6.8 A 7.26 7.26 0 0 0 72.3 6.719 A 6.06 6.06 0 0 0 70.45 2.35 A 7.395 7.395 0 0 0 70.392 2.293 A 6.059 6.059 0 0 0 66 0.5 A 8.264 8.264 0 0 0 64.344 0.658 A 5.661 5.661 0 0 0 61.4 2.2 A 5.588 5.588 0 0 0 59.929 4.832 A 7.987 7.987 0 0 0 59.7 6.8 A 5.992 5.992 0 0 0 60.192 9.219 A 6.643 6.643 0 0 0 61.55 11.2 A 7.466 7.466 0 0 0 61.637 11.288 Z" id="1" vector-effect="non-scaling-stroke"/>
        <path d="M 128.6 69 L 122.4 75 L 95.5 47.3 L 95.5 74 L 86.5 74 L 86.5 0 L 95.5 0 L 95.5 42.3 L 119 21 L 124.2 26.7 L 104.1 44.5 L 128.6 69 Z" id="2" vector-effect="non-scaling-stroke"/>
        <path d="M 161.6 74 L 152.1 74 L 152.1 12.4 L 130.6 12.4 L 130.6 4 L 183.1 4 L 183.1 12.4 L 161.6 12.4 L 161.6 74 Z" id="3" vector-effect="non-scaling-stroke"/>
        <path d="M 200.7 71.75 A 24.559 24.559 0 0 0 205.298 73.84 Q 209.353 75.2 214 75.2 Q 221.4 75.2 227.25 71.8 Q 233.1 68.4 236.5 62.25 A 26.255 26.255 0 0 0 239.153 55.109 A 34.184 34.184 0 0 0 239.9 47.8 A 34.542 34.542 0 0 0 239.415 41.891 A 25.795 25.795 0 0 0 236.45 33.45 Q 233 27.4 227.15 24.1 A 24.848 24.848 0 0 0 222.509 22.073 A 27.738 27.738 0 0 0 214 20.8 A 31.325 31.325 0 0 0 212.42 20.839 A 26.169 26.169 0 0 0 200.8 24.1 Q 194.9 27.4 191.5 33.5 A 26.023 26.023 0 0 0 188.751 41.09 A 35.006 35.006 0 0 0 188.1 48 A 34.82 34.82 0 0 0 188.365 52.354 A 27.451 27.451 0 0 0 191.45 62.15 Q 194.8 68.3 200.7 71.75 Z M 214 67.2 Q 221.9 67.2 226.3 61.85 A 18.802 18.802 0 0 0 230.119 53.76 A 27.105 27.105 0 0 0 230.7 48 Q 230.7 42.8 228.5 38.45 A 19.198 19.198 0 0 0 224.328 32.881 A 18.17 18.17 0 0 0 222.55 31.45 Q 218.8 28.8 214 28.8 A 19.249 19.249 0 0 0 208.774 29.472 A 14.037 14.037 0 0 0 201.7 34 A 17.878 17.878 0 0 0 198.026 41.374 Q 197.3 44.306 197.3 47.8 Q 197.3 53 199.5 57.45 A 19.437 19.437 0 0 0 203.03 62.49 A 17.627 17.627 0 0 0 205.45 64.55 Q 209.2 67.2 214 67.2 Z" id="4" vector-effect="non-scaling-stroke"/>
        <path d="M 294 69 L 287.8 75 L 260.9 47.3 L 260.9 74 L 251.9 74 L 251.9 0 L 260.9 0 L 260.9 42.3 L 284.4 21 L 289.6 26.7 L 269.5 44.5 L 294 69 Z" id="5" vector-effect="non-scaling-stroke"/>
        <path d="M 346 74 L 304 74 L 304 4 L 346 4 L 346 12.2 L 313.5 12.2 L 313.5 33.5 L 341.5 33.5 L 341.5 41.5 L 313.5 41.5 L 313.5 65.8 L 346 65.8 L 346 74 Z" id="6" vector-effect="non-scaling-stroke"/>
        <path d="M 394.2 74 L 354 74 L 354 66.9 L 382.7 29.8 L 354.6 29.8 L 354.6 22 L 393.7 22 L 393.7 28.9 L 365.1 66 L 394.2 66 L 394.2 74 Z" id="7" vector-effect="non-scaling-stroke"/>
    </g>
</svg>